<svg width="159mm" height="145mm" version="1.1" viewBox="0 0 159 145" xmlns="http://www.w3.org/2000/svg">
  <g transform="translate(-53.6 -16.1)">
    <g transform="translate(-448 -76.4)">
      <path transform="matrix(.265 0 0 .265 448 76.4)" d="m298 79.9c-3.58 0-6.5 0.441-6.5 0.98 0 0.539-1.72 1.86-3.82 2.93-4.69 2.39-10.6 8.81-12.7 13.7-0.838 2-1.53 6.18-1.54 9.27-8e-3 3.1-0.346 6.14-0.75 6.77-0.46 0.715-5.22 1.28-12.7 1.5-10.7 0.319-12.6 0.666-17.6 3.12-6.5 3.19-13.9 10.6-17.1 17.2-1.22 2.51-2.58 4.56-3.02 4.56-0.441 0-0.801 94.3-0.801 210 0 121 0.376 210 0.885 210 0.486 0 1.92 2.55 3.18 5.66 3.42 8.43 12.3 17.4 21.8 22.1 4.2 2.06 7.78 4.08 7.96 4.5 0.436 0.987 341 0.987 341 0 0.183-0.415 3.77-2.44 7.96-4.5 9.42-4.62 18.4-13.7 21.9-22.1 1.28-3.09 2.7-5.62 3.14-5.62 0.449 0 0.814-94.3 0.814-210 0-115-0.36-210-0.801-210s-1.8-2.05-3.02-4.56c-3.19-6.57-10.6-14-17.1-17.2-5-2.46-6.96-2.8-17.6-3.12-7.52-0.225-12.3-0.785-12.7-1.5-0.404-0.628-0.742-3.34-0.75-6.03-8e-3 -2.69-0.545-6.65-1.19-8.81-1.48-4.94-7.87-12.3-12.9-14.9-2.13-1.09-3.88-2.42-3.88-2.96 0-1.3-11.7-1.26-13.3 0.0469-0.664 0.564-3.64 2.7-6.61 4.75-7.29 5.03-10.9 11.5-11.9 21.3l-0.738 7.4h-204l-0.73-7.33c-1.14-11.4-6.88-20.1-16.1-24.3-1.48-0.673-2.69-1.6-2.69-2.06 0-0.462-2.92-0.84-6.5-0.84zm256 18.2c2.57 0.0427 5.2 0.881 6.3 2.38 0.949 1.3 1.28 7.13 1.27 22.3-8e-3 11.3-0.346 21.1-0.75 21.7-0.404 0.605-1.72 1.62-2.92 2.25-3.48 1.83-9.15 0.843-10.8-1.89-0.402-0.65-0.664-10.7-0.582-22.3 0.144-20.5 0.215-21.2 2.36-23 1.19-0.995 3.16-1.44 5.16-1.41zm-256 0.26c7.79 0 7.73-0.166 7.73 24.5 0 17.5-0.275 22-1.41 22.9-3.36 2.79-10.5 2.03-12.8-1.34-0.404-0.597-0.742-10.3-0.75-21.6-0.0177-23.8 0.166-24.4 7.25-24.4zm22 101c26.1 3e-3 60.7 0.0474 107 0.109l187 0.252 0.254 177c0.281 197 0.766 183-6.52 190-2.05 1.97-5.31 4.41-7.23 5.43-3.37 1.79-9.85 1.87-172 2.05-183 0.201-173 0.51-180-5.18-1.79-1.37-4.54-5.08-6.09-8.25l-2.83-5.76-0.24-176c-0.164-119 0.0889-177 0.785-178 0.757-1.41 2.88-1.79 81.2-1.78z" style="fill:#444"/>
      <path d="m641 116c-7.46-0.661-12.5 5.82-17.9 9.9-12.9 11.1-25.5 22.5-37.1 35-3.98 4.03-8.04 8.01-12.5 11.5-6.17-5.58-10.1-13.5-17.1-18.1-7.39-3.59-15.9 2.26-18.7 9.19-3.78 7.04 1.87 13.3 5.89 18.6 5.97 8.19 12.1 17.2 21.5 21.7 5.88 2.74 11.8-0.619 16.2-4.48 16-12.3 30-27 44-41.4 7.57-8.03 15.2-16.1 21.8-24.9 3.64-5.95 1.81-15.8-6.11-16.9z" style="fill:#ff0055;font-feature-settings:normal;font-variant-alternates:normal;font-variant-caps:normal;font-variant-ligatures:normal;font-variant-numeric:normal;font-variant-position:normal;image-rendering:auto;isolation:auto;mix-blend-mode:normal;paint-order:stroke markers fill;shape-padding:0;shape-rendering:auto;solid-color:#000000;stroke-linecap:round;stroke-linejoin:round;stroke-width:12;stroke:#ffffff;text-decoration-color:#000000;text-decoration-line:none;text-decoration-style:solid;text-indent:0;text-orientation:mixed;text-transform:none;white-space:normal"/>
      <path d="m608 124 2.37-0.17-0.0197-4.9c-0.0228-5.68-0.177-6.22-2.01-7.09-1.49-0.709-5.97-1.09-6.32-0.544-0.128 0.202-0.234 1.03-0.236 1.84-0.0127 4.6-5.16 8.17-9.17 6.36-1.52-0.691-3.14-2.22-3.81-3.6-0.311-0.643-0.646-1.98-0.743-2.96l-0.177-1.79h-53.4l-0.171 1.73c-0.0941 0.951-0.347 2.15-0.562 2.67-0.899 2.15-3.34 4.07-5.57 4.37-3.69 0.506-7.59-2.91-7.59-6.66 0-2.27 0.0328-2.24-2.88-2.24-3.02 0-4.57 0.595-5.42 2.08-0.492 0.856-0.585 3.15-0.437 10.7 9e-3 0.439 2.41 0.462 46.9 0.435 25.8-0.0154 48-0.105 49.3-0.198z" style="fill:#444;stroke-width:.265"/>
    </g>
  </g>
</svg>
