<svg width="185mm" height="63.4mm" version="1.1" viewBox="0 0 185 63.4" xmlns="http://www.w3.org/2000/svg">
  <g transform="translate(232 -233)">
    <path d="m-190 276c-0.0601-0.0309-0.152-0.114-0.204-0.184-0.0921-0.124-0.0957-0.184-0.109-1.81l-0.0135-1.68h-3.91l-0.129-0.129c-0.174-0.174-0.191-0.33-0.174-1.6 0.0159-1.16 0.0323-1.24 0.29-1.36 0.0812-0.0369 0.678-0.0525 2.02-0.0525h1.91v-1.95h-1.86c-2.03 0-2.09-7e-3 -2.26-0.255-0.0758-0.116-0.083-0.246-0.083-1.5 0-1.48 7e-3 -1.53 0.246-1.69 0.107-0.0725 0.294-0.081 2.04-0.093l1.92-0.0132 3.2e-4 -5.17c1.6e-4 -3.28 0.0167-5.23 0.0454-5.33 0.0248-0.0893 0.0979-0.212 0.162-0.273l0.117-0.11h4.96c5.36 0 5.36 1.3e-4 6.36 0.247 2.59 0.642 4.53 2.6 5.1 5.16 0.24 1.08 0.24 2.52 4.8e-4 3.59-0.524 2.34-2.25 4.23-4.55 4.99-1.18 0.39-1.8 0.438-5.53 0.439l-2.85 1.6e-4 0.0122 0.966 0.0122 0.966 4.27 0.0227c2.35 0.0125 4.31 0.0398 4.35 0.0606 0.0422 0.0208 0.114 0.0924 0.159 0.159 0.0724 0.107 0.0841 0.249 0.0974 1.19 0.0181 1.28 3e-3 1.41-0.18 1.59l-0.137 0.137-8.56 0.0232-0.0119 1.67c-0.0132 1.85-0.0114 1.84-0.314 1.97-0.204 0.0851-3.03 0.0891-3.19 4e-3zm10.1-12.5c0.478-0.149 0.776-0.294 1.15-0.557 0.817-0.579 1.32-1.48 1.42-2.53 0.0757-0.823-0.0457-1.55-0.368-2.21-0.152-0.312-0.268-0.466-0.599-0.8-0.587-0.591-1.13-0.882-1.96-1.05-0.369-0.074-0.696-0.0822-3.32-0.0829l-2.91-5.5e-4 -0.0232 7.39 6.2-0.0286 0.4-0.125z" style="fill:#ff0055;"/>
    <path d="m-193 291c-16.7-0.776-19.6-3.54-24.7-23.5l-1.11-4.29-1.54-0.59c-2.06-0.787-4.13-3.2-5.1-5.94-0.619-1.75-0.808-3.24-0.949-7.51l-0.175-5.33 1.54-0.41c19.7-5.23 44.7-7.02 59.9-4.28 4.82 0.868 9.26 2.26 15.2 4.75 5.89 2.48 6.61 2.65 11.1 2.64 4.28-3e-3 5.33-0.289 13.5-3.66 4.87-2.02 10.6-3.53 16.3-4.32 5.95-0.818 19.7-0.803 28.4 0.03 9.32 0.893 23.5 3.4 28 4.93l1.33 0.459 0.102 3.67c0.176 6.36-1.29 11.3-4.08 13.8-0.657 0.577-1.65 1.14-2.22 1.25-0.562 0.112-1.16 0.384-1.33 0.603-0.171 0.219-0.75 2.22-1.29 4.46-1.32 5.5-3.22 11.4-4.5 13.9-2.88 5.77-6.69 8.03-15.3 9.03-5.72 0.665-22.9 0.567-27-0.154-8.41-1.5-12.9-4.26-15.5-9.41-0.676-1.38-1.6-4.41-2.34-7.67-0.672-2.96-1.55-6.13-1.95-7.04-1.22-2.76-3.39-5.29-6.07-7.07-2.45-1.63-2.58-1.67-5.64-1.79-2.8-0.111-3.33-0.027-5.02 0.797-3.82 1.87-6.79 5.31-8.25 9.56-0.401 1.16-1.13 4.02-1.63 6.35-3.12 14.6-11.2 18.1-39.7 16.7zm24.4-5.95c5.93-1.51 8.6-5.67 12.7-19.7 2.13-7.37 2.29-9.8 0.86-12.7-2.11-4.24-7.16-6.87-15.9-8.26-4.02-0.642-17.6-0.548-22.6 0.155-5.66 0.804-12 2.3-14.5 3.41-3.52 1.59-5.47 4.12-5.47 7.08 0 1.93 2.58 13.4 3.92 17.4 2.74 8.27 6.72 11.4 16.4 12.9 2.97 0.455 22.5 0.21 24.5-0.308zm83.4 0.316c9.95-1.42 13.9-4.52 16.8-13 1.31-3.94 3.88-15.4 3.88-17.3 0-2.96-1.95-5.48-5.47-7.08-2.43-1.1-8.79-2.6-14.5-3.41-4.95-0.703-18.6-0.796-22.6-0.155-8.62 1.38-13.8 4.05-15.8 8.24-1.44 2.89-1.28 5.31 0.843 12.7 4.3 15 6.83 18.6 13.9 19.9 3.08 0.559 19.4 0.67 23 0.156z" style="fill:#444444;"/>
    <path d="m-97.6 276c-0.0601-0.0309-0.152-0.114-0.204-0.184-0.0921-0.124-0.0957-0.184-0.109-1.81l-0.0135-1.68h-3.91l-0.129-0.129c-0.174-0.174-0.191-0.33-0.174-1.6 0.0159-1.16 0.0323-1.24 0.29-1.36 0.0812-0.0369 0.678-0.0525 2.02-0.0525h1.91v-1.95h-1.86c-2.03 0-2.09-7e-3 -2.26-0.255-0.0758-0.116-0.083-0.246-0.083-1.5 0-1.48 7e-3 -1.53 0.246-1.69 0.107-0.0725 0.294-0.081 2.04-0.093l1.92-0.0132 3.2e-4 -5.17c1.6e-4 -3.28 0.0167-5.23 0.0454-5.33 0.0248-0.0893 0.0979-0.212 0.162-0.273l0.117-0.11h4.96c5.36 0 5.36 1.3e-4 6.36 0.247 2.59 0.642 4.53 2.6 5.1 5.16 0.24 1.08 0.24 2.52 4.8e-4 3.59-0.524 2.34-2.25 4.23-4.55 4.99-1.18 0.39-1.8 0.438-5.53 0.439l-2.85 1.6e-4 0.0122 0.966 0.0122 0.966 4.27 0.0227c2.35 0.0125 4.31 0.0398 4.35 0.0606 0.0422 0.0208 0.114 0.0924 0.159 0.159 0.0724 0.107 0.0841 0.249 0.0974 1.19 0.0181 1.28 3e-3 1.41-0.18 1.59l-0.137 0.137-8.56 0.0232-0.0119 1.67c-0.0132 1.85-0.0114 1.84-0.314 1.97-0.204 0.0851-3.03 0.0891-3.19 4e-3zm10.1-12.5c0.478-0.149 0.776-0.294 1.15-0.557 0.817-0.579 1.32-1.48 1.42-2.53 0.0757-0.823-0.0457-1.55-0.368-2.21-0.152-0.312-0.268-0.466-0.599-0.8-0.587-0.591-1.13-0.882-1.96-1.05-0.369-0.074-0.696-0.0822-3.32-0.0829l-2.91-5.6e-4 -0.0232 7.39 6.2-0.0286 0.4-0.125z" style="fill:#ff0055;"/>
  </g>
</svg>
