<?xml version="1.0" encoding="UTF-8" standalone="no"?>
<svg
   xmlns:dc="http://purl.org/dc/elements/1.1/"
   xmlns:cc="http://creativecommons.org/ns#"
   xmlns:rdf="http://www.w3.org/1999/02/22-rdf-syntax-ns#"
   xmlns:svg="http://www.w3.org/2000/svg"
   xmlns="http://www.w3.org/2000/svg"
   width="194.11177mm"
   height="60.809673mm"
   viewBox="0 0 194.11177 60.809673"
   version="1.1"
   id="svg8">
  <defs
     id="defs2" />
  <metadata
     id="metadata5">
    <rdf:RDF>
      <cc:Work
         rdf:about="">
        <dc:format>image/svg+xml</dc:format>
        <dc:type
           rdf:resource="http://purl.org/dc/dcmitype/StillImage" />
        <dc:title></dc:title>
      </cc:Work>
    </rdf:RDF>
  </metadata>
  <g
     id="layer1"
     transform="translate(295.34587,-185.07497)">
    <path
       style="fill:#000000;stroke-width:0.264583"
       d="m -294.89139,245.57067 c -0.36498,-0.26687 -0.44887,-0.7897 -0.45421,-2.83072 -0.006,-2.27946 0.08,-2.71639 0.96154,-4.88464 1.59421,-3.92138 4.36238,-10.19993 5.32477,-12.07723 1.57784,-3.07787 1.29367,-3.45415 -2.48055,-3.28457 -2.06983,0.093 -2.73069,0.0373 -2.96938,-0.2503 -0.31159,-0.37545 -0.41093,-5.23374 -0.11675,-5.70974 0.0842,-0.13618 3.25361,-0.2417 7.25969,-0.2417 8.11712,0 7.3594,-0.2705 7.47475,2.66842 0.0484,1.23291 -0.0649,1.99709 -0.39181,2.64197 -0.61023,1.20392 -3.17469,7.15308 -4.43995,10.30003 -0.55583,1.38244 -1.3253,3.26438 -1.70993,4.18208 -1.07528,2.56552 -1.0791,2.56182 2.65791,2.58185 1.75017,0.009 3.38508,0.0949 3.63314,0.19014 0.3885,0.14908 0.45102,0.59149 0.45102,3.19168 0,2.20518 -0.0958,3.09817 -0.35571,3.31383 -0.54011,0.44825 -14.25329,0.64123 -14.84453,0.2089 z m 23.93149,0.15442 c -4.71957,-0.0613 -5.46691,-0.12822 -5.75469,-0.51498 -0.25488,-0.34255 -0.33073,-3.67699 -0.33073,-14.53981 0,-13.63555 0.0166,-14.10421 0.5087,-14.36758 0.56891,-0.30447 11.76174,-0.26504 12.06872,0.0425 0.10198,0.10217 0.20104,1.33204 0.22014,2.73304 0.0442,3.24409 -0.0149,3.29892 -3.5594,3.29892 -2.92295,0 -2.88816,-0.0271 -2.88816,2.24895 0,2.2866 -0.0505,2.24896 3.0181,2.24896 1.74481,0 2.80899,0.11209 3.0144,0.3175 0.20365,0.20365 0.3175,1.24513 0.3175,2.90432 0,2.46785 -0.0304,2.60677 -0.66197,3.02056 -0.52438,0.34358 -1.00949,0.39653 -2.33375,0.25471 -1.11276,-0.11917 -1.90884,-0.071 -2.38073,0.14399 -0.69075,0.31473 -0.70897,0.38286 -0.70897,2.6525 0,2.8628 0.0185,2.87726 3.67747,2.87726 3.20677,0 3.2017,-0.005 3.2017,3.38118 0,1.91409 -0.0871,2.43413 -0.46302,2.76422 -0.66984,0.58821 -0.97171,0.6114 -6.94531,0.53375 z m 29.97486,-0.1992 c -0.48226,-0.3378 -0.50523,-0.93198 -0.55906,-14.46246 -0.0353,-8.88012 0.0401,-14.25731 0.2035,-14.50708 0.21803,-0.33327 1.21123,-0.39687 6.19792,-0.39687 h 5.93828 l 1.01652,0.81544 c 0.55908,0.44849 1.39512,1.44128 1.85786,2.2062 0.96224,1.59061 1.18508,3.00913 1.24025,7.89471 0.0399,3.53176 -0.35732,4.80472 -2.10164,6.73547 -0.51992,0.5755 -0.88332,1.18505 -0.80756,1.35456 0.0758,0.16951 0.60655,1.4393 1.17951,2.82174 0.57295,1.38245 1.36116,3.19637 1.75156,4.03094 0.79266,1.69445 0.94547,3.04367 0.38492,3.39855 -0.20444,0.12943 -1.71372,0.23715 -3.35395,0.23938 -2.85056,0.004 -2.9923,-0.0222 -3.21014,-0.59126 -1.18164,-3.08657 -1.97308,-5.30584 -2.27858,-6.38935 -0.44295,-1.57098 -0.82914,-2.04144 -1.21475,-1.47979 -0.17239,0.25109 -0.21394,1.75228 -0.11423,4.12673 0.12763,3.03918 0.0871,3.78985 -0.21829,4.04331 -0.56558,0.46938 -5.28788,0.59701 -5.91212,0.15978 z m 8.36942,-16.16076 c 0.79371,-0.66786 0.81404,-0.74226 0.81364,-2.97657 -5.3e-4,-2.64805 -0.5095,-4.02492 -1.58709,-4.29294 -1.44229,-0.35874 -1.5875,-0.0189 -1.5875,3.71546 0,3.2293 0.032,3.4377 0.58804,3.82715 0.76824,0.5381 0.81795,0.53044 1.77291,-0.2731 z m 10.10695,16.12397 c -0.36272,-0.26623 -0.37319,-0.52749 -0.0848,-2.11667 0.18096,-0.99712 0.79436,-4.55139 1.3631,-7.89837 0.56874,-3.34698 1.22699,-6.97838 1.46278,-8.06979 0.23579,-1.09141 0.82292,-3.96356 1.30472,-6.38255 0.48181,-2.419 0.95894,-4.53236 1.06029,-4.69636 0.20785,-0.3363 6.6968,-0.42256 7.19796,-0.0957 0.16391,0.10692 0.50125,1.44455 0.74963,2.97252 0.24838,1.52797 0.79133,4.38547 1.20656,6.35 0.41523,1.96453 1.06827,5.715 1.45121,8.33437 0.38293,2.61938 0.89086,5.715 1.12871,6.87917 0.23786,1.16416 0.43811,2.71198 0.445,3.43958 l 0.0125,1.32292 -2.8144,0.13229 c -4.01582,0.18876 -3.74424,0.35056 -4.05843,-2.41781 -0.2403,-2.11725 -0.71753,-2.58184 -2.44693,-2.3821 -0.53223,0.0615 -1.13128,1.51865 -1.13128,2.75183 0,1.86757 -0.24381,2.01205 -3.54717,2.10189 -1.87369,0.051 -3.03084,-0.028 -3.29952,-0.22523 z m 9.33133,-11.54869 c 0.43467,-0.31784 0.4451,-0.54613 0.14201,-3.10885 -0.1799,-1.52121 -0.44609,-3.06349 -0.59153,-3.42729 -0.23097,-0.57774 -0.32425,-0.36009 -0.73708,1.71979 -0.56785,2.86096 -0.6353,4.79783 -0.17357,4.98415 0.56194,0.22674 0.87309,0.18836 1.36017,-0.1678 z m 13.1342,11.78691 c -1.23229,-0.0495 -2.31875,-0.21662 -2.41434,-0.3713 -0.26248,-0.42469 -0.25756,-28.34708 0.005,-28.76985 0.16806,-0.27054 1.02284,-0.38677 3.25095,-0.44206 1.66262,-0.0413 3.1498,0.005 3.30485,0.10247 0.30433,0.19159 1.22788,2.66699 2.4784,6.64286 0.7639,2.42876 0.95098,2.86894 1.12231,2.6407 0.1862,-0.24807 2.03134,-5.53392 2.54468,-7.28985 0.43481,-1.48731 0.6778,-1.92168 1.14506,-2.04691 0.8951,-0.2399 6.09937,-0.18981 6.4973,0.0625 0.27818,0.1764 0.36918,3.04641 0.45394,14.31781 0.0685,9.10699 0.0123,14.27234 -0.15879,14.59199 -0.23248,0.43438 -0.59895,0.4948 -3.00123,0.4948 -2.1109,0 -2.81179,-0.0908 -3.06615,-0.3973 -0.24745,-0.29816 -0.31778,-2.11381 -0.28183,-7.27604 0.0335,-4.81224 -0.0386,-6.87874 -0.24014,-6.87874 -0.15842,0 -0.3605,0.20836 -0.44907,0.46302 -0.79052,2.27312 -2.51867,6.29795 -2.87161,6.68795 -0.24203,0.26744 -0.59872,0.42537 -0.79263,0.35096 -0.3328,-0.12771 -2.09513,-4.3423 -2.80131,-6.6993 -0.17828,-0.59506 -0.45314,-1.03881 -0.61079,-0.9861 -0.19953,0.0667 -0.25698,2.24035 -0.18902,7.15219 0.10362,7.48887 0.0436,7.90562 -1.12221,7.79409 -0.30961,-0.0296 -1.57116,-0.0944 -2.80345,-0.14393 z m 32.11807,-0.25727 c -0.20707,-0.20707 -0.37934,-0.75494 -0.38281,-1.21749 -0.008,-1.08645 -0.41165,-2.82001 -0.73062,-3.13897 -0.35434,-0.35434 -1.87734,-0.35297 -2.23231,0.002 -0.16435,0.16434 -0.39402,1.08964 -0.51039,2.05621 -0.11636,0.96657 -0.34813,1.92194 -0.51503,2.12305 -0.22714,0.27369 -1.09593,0.36566 -3.45437,0.36566 -2.71715,0 -3.17459,-0.0617 -3.32291,-0.44822 -0.0946,-0.24652 0.14957,-2.06223 0.54259,-4.0349 0.39303,-1.97267 0.83689,-4.42011 0.98636,-5.43876 0.66625,-4.54033 3.60761,-19.20899 3.91303,-19.51441 0.11717,-0.11717 1.80107,-0.17967 3.74202,-0.13889 4.08503,0.0858 3.67124,-0.27099 4.2283,3.64601 0.17591,1.23693 0.60179,3.55864 0.94641,5.15937 0.34461,1.60073 1.10339,6.06558 1.68616,9.92188 0.58278,3.8563 1.18259,7.42739 1.33292,7.93575 0.36728,1.24205 0.34463,2.2612 -0.0574,2.58261 -0.1819,0.14542 -1.56029,0.32092 -3.06309,0.38999 -2.13826,0.0983 -2.81422,0.0437 -3.10885,-0.2509 z m -1.57787,-11.54291 c 0.45359,-0.33168 0.4657,-0.52822 0.17525,-2.84427 -0.6596,-5.25962 -0.85803,-5.3284 -1.57163,-0.54477 -0.43829,2.9381 -0.44462,3.26509 -0.0674,3.48575 0.57746,0.33782 0.89856,0.31661 1.46381,-0.0967 z m -90.58415,11.36651 c -0.21798,-0.26265 -0.33496,-4.32639 -0.4118,-14.30497 -0.10397,-13.50283 -0.0913,-13.95408 0.40437,-14.4498 0.46861,-0.46861 0.9183,-0.51157 5.34035,-0.51022 2.65575,8e-4 5.25314,0.1194 5.77198,0.26353 1.37622,0.38231 3.04004,1.92275 3.56695,3.30245 0.49856,1.30546 0.64072,4.30447 0.29906,6.30888 -0.15187,0.89095 -0.49539,1.5847 -1.13556,2.29328 l -0.91781,1.01591 0.76813,0.88172 c 1.60354,1.84064 1.93863,3.0147 1.9328,6.77181 -0.005,3.48702 -0.50215,5.27901 -1.87668,6.7702 -1.63289,1.77147 -2.70608,2.02693 -8.50877,2.02539 -3.87778,-0.001 -4.99345,-0.0795 -5.23302,-0.36818 z m 8.63631,-6.80449 c 0.42452,-0.82332 0.421,-3.62273 -0.006,-4.46591 -0.18285,-0.36139 -0.66892,-0.7754 -1.08016,-0.92002 -1.17399,-0.41287 -1.49,0.26584 -1.49,3.20015 0,2.19258 0.0584,2.48887 0.55972,2.84002 0.70313,0.49249 1.5698,0.21125 2.01606,-0.65424 z m 0.86379,-7.23282 c 0,-0.5892 -0.41434,-0.70648 -0.4578,-0.12957 -0.0212,0.28096 0.0732,0.51083 0.20967,0.51083 0.13647,0 0.24813,-0.17156 0.24813,-0.38126 z m -1.12837,-5.45801 c 0.85264,-1.67753 -0.0546,-4.06419 -1.48201,-3.89878 -0.68407,0.0793 -0.69834,0.12176 -0.77446,2.30706 -0.0516,1.48128 0.0253,2.28983 0.22967,2.41616 0.52289,0.32316 1.68344,-0.14892 2.0268,-0.82444 z m 92.84772,19.68292 c -0.0986,-0.0986 -0.1746,-6.64464 -0.1689,-14.54678 0.0101,-14.02159 0.0229,-14.37424 0.53195,-14.64666 0.29834,-0.15966 1.68237,-0.24687 3.23365,-0.20374 l 2.71208,0.0754 0.61539,2.24896 c 1.2194,4.45632 3.00633,9.55248 3.31358,9.45 0.21888,-0.073 0.2904,-1.69143 0.25465,-5.76249 -0.0363,-4.12935 0.0353,-5.71504 0.26459,-5.86082 0.42058,-0.26742 5.51628,-0.25677 5.94035,0.0124 0.52438,0.33286 0.30741,28.83122 -0.22204,29.1663 -0.59701,0.37784 -5.42658,0.30684 -5.71849,-0.0841 -0.29124,-0.38999 -2.40005,-6.92414 -3.39429,-10.51719 -0.38254,-1.38244 -0.79053,-2.61128 -0.90663,-2.73075 -0.11611,-0.11946 -0.18278,2.79757 -0.14817,6.4823 0.0442,4.70511 -0.0251,6.75736 -0.23259,6.89388 -0.37207,0.24474 -5.83274,0.26562 -6.07513,0.0232 z m 12.70888,-6.63375 c -0.0666,-0.25466 -0.12101,-0.0463 -0.12101,0.46302 0,0.50932 0.0544,0.71768 0.12101,0.46302 0.0665,-0.25466 0.0665,-0.67138 0,-0.92604 z m -0.002,-1.17409 c -0.0845,-0.21107 -0.14716,-0.14837 -0.15985,0.15985 -0.0115,0.27892 0.051,0.43519 0.13896,0.34727 0.0879,-0.0879 0.0973,-0.31612 0.0209,-0.50712 z m 8.44652,7.56859 c -0.0884,-0.23018 -0.16065,-6.83588 -0.16065,-14.67933 v -14.26082 l 0.59531,-0.14853 c 0.32742,-0.0817 1.78594,-0.11374 3.24115,-0.0712 l 2.64583,0.0773 0.0684,14.38991 c 0.0495,10.40709 -0.0144,14.48973 -0.23083,14.75052 -0.21875,0.26358 -1.06608,0.36061 -3.14899,0.36061 -2.35449,0 -2.87762,-0.0727 -3.01031,-0.41852 z m 9.06982,-0.0145 c -0.23571,-0.28402 -0.16924,-1.05979 0.28633,-3.34187 0.32632,-1.63459 0.88342,-4.69839 1.23801,-6.80845 0.97273,-5.78837 1.10925,-6.53778 1.68704,-9.26041 0.29337,-1.38245 0.70634,-3.46604 0.91769,-4.63021 0.76249,-4.19983 0.87225,-4.68028 1.12753,-4.93556 0.20258,-0.20257 5.34519,-0.3917 6.84978,-0.25191 0.40119,0.0373 0.58887,0.57601 0.87588,2.51423 0.13151,0.8882 0.71193,4.11522 1.28981,7.17116 0.57788,3.05593 1.25166,7.10406 1.49728,8.99583 0.24563,1.89177 0.75172,4.95364 1.12463,6.80415 0.55482,2.75314 0.61684,3.43831 0.3413,3.77032 -0.26662,0.32118 -0.96548,0.40573 -3.35366,0.40573 -2.99495,0 -3.01873,-0.005 -3.27489,-0.67868 -0.14192,-0.37328 -0.25804,-1.23976 -0.25804,-1.92551 0,-1.99445 -0.99195,-2.90184 -2.36751,-2.16566 -0.61359,0.32838 -0.82996,0.87696 -0.99431,2.52089 -0.22382,2.23888 -0.19358,2.22061 -3.64457,2.20209 -2.26115,-0.0121 -3.11369,-0.11062 -3.34235,-0.38615 z m 9.70561,-11.55785 c 0.0737,-0.19207 -0.0491,-1.74598 -0.27289,-3.45314 -0.22384,-1.70717 -0.40694,-3.15737 -0.40694,-3.22268 0,-0.0653 -0.1,-0.11874 -0.22221,-0.11874 -0.38186,0 -1.28394,6.02004 -1.00932,6.73569 0.19364,0.50462 1.72218,0.55169 1.91131,0.0589 z m 11.16027,11.70508 c -0.39967,-0.23279 -0.46302,-0.69783 -0.46302,-3.39914 0,-2.1927 0.099,-3.20493 0.33073,-3.3816 0.35397,-0.26985 5.56779,-0.22397 6.01586,0.053 0.39475,0.24397 0.35,6.29656 -0.0495,6.69607 -0.39445,0.39445 -5.16674,0.4204 -5.83406,0.0317 z m 2.31511,-8.65978 c -0.72761,-0.0451 -1.41878,-0.17669 -1.53595,-0.2924 -0.11716,-0.11571 -0.27054,-1.67511 -0.34083,-3.46533 -0.0703,-1.79022 -0.17769,-3.33565 -0.23866,-3.4343 -0.061,-0.0986 -0.24438,-3.06276 -0.40759,-6.58691 -0.22982,-4.96262 -0.22507,-6.49392 0.0211,-6.79049 0.45254,-0.54528 6.13257,-0.55289 6.58411,-0.009 0.32178,0.38773 0.10552,5.45899 -0.54821,12.85507 -0.16078,1.81901 -0.33951,4.02167 -0.39719,4.89479 -0.19546,2.9592 -0.24896,3.00744 -3.13674,2.8284 z m -174.21865,-33.67408 c -1.13948,-1.08397 -2.22021,-1.59065 -1.96298,-0.92032 0.18839,0.49093 -0.67962,0.75086 -1.17313,0.35131 -0.22777,-0.18442 -0.33726,-0.20677 -0.24331,-0.0497 0.10507,0.17569 -0.0536,0.26055 -0.41224,0.22049 -0.32067,-0.0358 -0.67233,-0.0751 -0.78147,-0.0872 -0.10915,-0.0121 -0.19844,-0.15569 -0.19844,-0.31903 0,-0.19345 0.15562,-0.17039 0.44641,0.0661 0.39225,0.31907 0.42472,0.30528 0.26762,-0.11363 -0.11158,-0.29751 -0.0761,-0.4133 0.0943,-0.30796 0.15022,0.0928 0.43398,0.0353 0.63057,-0.12783 0.19659,-0.16315 0.5188,-0.2627 0.71602,-0.22121 0.21755,0.0458 0.34004,-0.13118 0.31145,-0.44988 -0.0259,-0.28892 0.0931,-0.61452 0.26458,-0.72355 0.22932,-0.14585 0.22016,-0.19932 -0.0346,-0.2023 -0.21079,-0.002 -0.2653,-0.13349 -0.13928,-0.33478 0.11388,-0.1819 0.21701,-0.44979 0.22917,-0.59532 0.043,-0.51395 0.44877,-1.19062 0.71403,-1.19062 0.16314,0 0.14769,0.14578 -0.0394,0.37115 -0.23659,0.28507 -0.22876,0.39938 0.0337,0.49294 0.18798,0.067 0.24601,0.22395 0.12895,0.3488 -0.11705,0.12484 -0.32359,0.0519 -0.45897,-0.16222 -0.13538,-0.21407 -0.24797,-0.2642 -0.25019,-0.1114 -0.002,0.1528 0.14477,0.43816 0.32667,0.63413 0.22991,0.24769 0.2346,0.30229 0.0154,0.1791 -0.21557,-0.12115 -0.2975,0.0549 -0.25895,0.5565 0.0614,0.79833 0.83669,1.05695 0.84196,0.28085 0.002,-0.24908 0.14121,-0.59101 0.31005,-0.75985 0.16884,-0.16884 0.24552,-0.50083 0.17041,-0.73776 -0.10419,-0.32862 -0.077,-0.34774 0.11445,-0.0806 0.37021,0.51642 0.16522,1.6992 -0.3612,2.08413 -0.43425,0.31752 -0.4333,0.36349 0.0179,0.86203 0.26212,0.28964 0.70073,0.59776 0.97469,0.68471 0.27397,0.087 0.42983,0.26859 0.34637,0.40363 -0.0835,0.13505 -0.0384,0.24554 0.10014,0.24554 0.13854,0 0.32043,0.17859 0.40419,0.39687 0.22164,0.5776 0.11106,0.51162 -1.14494,-0.68319 z m 164.89249,-0.94702 c 1.63131,-1.66484 2.2543,-2.52694 1.48048,-2.04869 -0.18055,0.11158 -0.23397,0.0731 -0.13065,-0.0941 0.0962,-0.15557 0.0475,-0.3253 -0.10805,-0.37716 -0.15559,-0.0519 -0.3174,-0.40875 -0.35959,-0.7931 -0.0547,-0.49822 0.026,-0.65938 0.28123,-0.56146 0.35566,0.13648 0.46067,0.43641 0.37687,1.07647 -0.0241,0.18385 0.14727,0.40757 0.38074,0.49717 0.23347,0.0896 0.35948,0.3323 0.28002,0.53936 -0.0795,0.20706 -0.0463,0.31577 0.0738,0.24158 0.51251,-0.31675 0.28666,-2.08676 -0.36509,-2.86133 -0.6704,-0.79671 -0.66927,-1.35576 0.002,-1.09809 0.44439,0.17053 0.46129,-0.97683 0.019,-1.28693 -0.18513,-0.12978 -0.17364,-0.19573 0.0346,-0.19844 0.17151,-0.002 0.48475,0.16888 0.6961,0.38023 0.21135,0.21135 0.47707,0.30065 0.59049,0.19844 0.11341,-0.10221 0.1304,-0.0529 0.0377,0.10953 -0.0927,0.16245 0.0404,0.48438 0.29567,0.71541 0.43503,0.3937 0.46105,0.35859 0.41484,-0.55995 -0.0271,-0.539 -0.0602,-1.06556 -0.0735,-1.17013 -0.0133,-0.10458 -0.22233,-0.11411 -0.46448,-0.0212 -0.31969,0.12267 -0.38096,0.073 -0.22371,-0.18148 0.14811,-0.23963 0.11473,-0.28748 -0.10556,-0.15134 -0.34456,0.21296 -1.22558,-0.45418 -1.652,-1.25094 -0.23009,-0.42993 -0.20096,-0.4438 0.28909,-0.13776 0.29973,0.18718 0.54496,0.42702 0.54496,0.53296 0,0.10595 0.19812,0.11661 0.44027,0.0237 0.327,-0.12548 0.38509,-0.0723 0.22577,0.20674 -0.1737,0.30422 -0.14672,0.31277 0.14181,0.045 0.43238,-0.40134 0.87753,-0.43857 0.63954,-0.0535 -0.0942,0.15248 0.13686,0.58544 0.51355,0.96212 0.37669,0.37669 0.68307,0.81749 0.68084,0.97954 -0.002,0.16206 -0.11939,0.11606 -0.26045,-0.10222 -0.14107,-0.21828 -0.25831,-0.27451 -0.26054,-0.12495 -0.002,0.14956 0.25239,0.49149 0.5658,0.75985 0.46398,0.39727 0.5398,0.40962 0.40812,0.0665 -0.24382,-0.63539 0.46773,-1.17762 1.40251,-1.06879 0.56554,0.0658 0.7632,0.002 0.63474,-0.20623 -0.10947,-0.17712 -0.0697,-0.22961 0.0963,-0.12703 0.15557,0.0962 0.34316,0.0252 0.41686,-0.15756 0.0737,-0.18281 0.1434,-0.20582 0.15489,-0.0512 0.0333,0.44816 -1.49372,1.77943 -1.81401,1.58148 -0.15972,-0.0987 -0.21053,-0.30871 -0.11291,-0.46666 0.10682,-0.17283 0.0541,-0.21095 -0.13229,-0.0957 -0.17038,0.1053 -0.23305,0.3156 -0.13928,0.46734 0.27143,0.43917 -0.47674,0.73672 -1.07366,0.427 -0.29888,-0.15508 -0.45515,-0.18749 -0.34728,-0.072 0.23355,0.24997 -0.30024,0.96873 -0.58755,0.79117 -0.10954,-0.0677 -0.15791,0.23126 -0.10748,0.66437 0.0829,0.71164 -0.085,0.90547 -0.72011,0.83138 -0.21961,-0.0256 -0.0608,1.28289 0.18209,1.5008 0.10735,0.0963 0.13004,-0.008 0.0504,-0.2322 -0.1183,-0.33286 0.11054,-0.40886 1.25262,-0.41598 1.18629,-0.007 1.34236,0.0463 1.03323,0.35543 -0.20028,0.20028 -0.62044,0.4135 -0.9337,0.47383 -0.31326,0.0603 -0.62863,0.16876 -0.70084,0.24097 -0.0722,0.0722 -0.36365,0.007 -0.64767,-0.14508 -0.39723,-0.2126 -0.63341,-0.17046 -1.02354,0.1826 -0.39502,0.35749 -0.50806,0.37678 -0.51121,0.0872 -0.003,-0.31044 -0.0441,-0.30838 -0.24713,0.0125 -0.13369,0.21134 -0.18437,0.47923 -0.11262,0.59532 0.0717,0.11608 -0.0622,0.21107 -0.29766,0.21107 -0.2676,0 -0.35675,0.12399 -0.23778,0.33073 0.10468,0.1819 0.0938,0.24336 -0.0242,0.13659 -0.11798,-0.10677 -0.47527,0.0872 -0.79398,0.43114 -0.31872,0.3439 -0.86636,0.77221 -1.21698,0.95181 -0.35062,0.1796 0.16617,-0.49365 1.14844,-1.49611 z m 3.31712,-4.12448 c 0.031,-0.32742 -0.008,-0.87371 -0.0869,-1.21397 -0.11738,-0.50719 -0.21261,-0.56104 -0.52854,-0.29884 -0.57813,0.47981 -0.23879,1.77963 0.5493,2.10408 0.005,0.002 0.0352,-0.26384 0.0661,-0.59127 z m 3.70939,-2.45439 c -0.0815,-0.0815 -0.22941,0.0654 -0.32877,0.32632 -0.14358,0.37708 -0.11319,0.40747 0.14812,0.14811 0.18082,-0.17948 0.26211,-0.39297 0.18065,-0.47443 z m -5.1707,6.91746 c -0.38487,-0.62274 -0.23878,-1.12643 0.30859,-1.06394 0.30117,0.0344 0.64962,0.0724 0.77433,0.0846 0.12471,0.0121 0.15175,0.21749 0.0601,0.45635 -0.137,0.35701 -0.0974,0.37684 0.22242,0.11139 0.25964,-0.21548 0.53702,-0.24011 0.83378,-0.074 0.36345,0.20339 0.3785,0.28978 0.0824,0.4728 -0.5391,0.33318 -2.07825,0.34187 -2.28158,0.0129 z m -170.6171,-1.88338 c 0.14995,-0.42453 0.12103,-0.46377 -0.14626,-0.19844 -0.40594,0.40296 -1.28568,0.43753 -1.28568,0.0505 0,-0.1541 -0.13746,-0.19524 -0.30546,-0.0914 -0.18367,0.11351 -0.23386,0.0729 -0.12589,-0.10176 0.19428,-0.31436 1.99341,-0.26627 2.53383,0.0677 0.25044,0.15478 0.26912,0.0838 0.0763,-0.29003 -0.14038,-0.27222 -0.20184,-0.64386 -0.13658,-0.82586 0.0793,-0.22128 -0.0345,-0.27213 -0.34374,-0.15348 -0.35133,0.13482 -0.40799,0.0872 -0.23591,-0.19825 0.19333,-0.32069 0.16094,-0.32253 -0.22118,-0.0126 -0.24621,0.19972 -0.44766,0.24406 -0.44766,0.0985 0,-0.40962 0.73769,-0.92442 1.04898,-0.73203 0.15313,0.0946 0.37697,-0.0944 0.49743,-0.41999 0.12623,-0.34123 0.46482,-0.61017 0.79919,-0.63481 0.55667,-0.041 0.55052,-0.0118 -0.1519,0.72138 -0.79685,0.83173 -0.92442,1.46565 -0.40533,2.01418 0.39067,0.41283 0.16193,0.93287 -0.32768,0.74499 -0.18583,-0.0713 -0.48897,0.01 -0.67364,0.18039 -0.26566,0.24532 -0.29674,0.19957 -0.14886,-0.21911 z m 8.2115,0.0593 c -0.0713,-0.18566 -0.0973,-2.8348 -0.0578,-5.88698 l 0.0717,-5.54941 0.75957,-0.0868 c 1.63141,-0.18644 1.88361,0.0467 1.91421,1.76933 0.0422,2.37418 0.0805,2.41852 2.08872,2.41852 2.00091,0 1.99296,0.009 2.06588,-2.41366 l 0.0508,-1.68738 h 1.32292 1.32292 v 5.82083 5.82083 l -1.08122,0.0792 c -0.6689,0.049 -1.19376,-0.0564 -1.37637,-0.27641 -0.16234,-0.1956 -0.33064,-1.2433 -0.374,-2.3282 l -0.0788,-1.97255 -1.78996,-0.0783 c -1.62796,-0.0712 -1.80905,-0.0267 -2.00097,0.49209 -0.11605,0.31373 -0.17975,1.10108 -0.14154,1.74966 0.11239,1.90792 -0.22591,2.46679 -1.49324,2.46679 -0.62607,0 -1.12716,-0.14064 -1.20273,-0.33757 z m 16.1149,-0.0133 c -2.06443,-0.77042 -3.26336,-2.527 -3.46843,-5.08167 -0.1512,-1.88372 0.38237,-3.37811 1.77075,-4.95939 1.86783,-2.12733 5.83161,-1.97901 7.74056,0.28965 1.68969,2.00809 1.95801,4.93879 0.67959,7.42299 -1.11704,2.17063 -4.24354,3.25353 -6.72247,2.32842 z m 3.67238,-3.06702 c 0.80794,-0.72189 0.86407,-0.8838 0.86407,-2.49223 0,-1.44669 -0.0999,-1.82655 -0.62854,-2.38923 -2.31529,-2.46452 -5.90004,0.73216 -4.38986,3.91464 0.90635,1.90999 2.6457,2.31478 4.15433,0.96682 z m 9.43666,2.8911 c -1.32513,-0.70038 -2.54098,-2.1687 -2.90204,-3.50465 -0.82615,-3.05677 0.82456,-6.70063 3.43091,-7.57359 3.71776,-1.24521 7.43815,1.47993 7.43353,5.44496 -0.003,2.8246 -0.95376,4.56689 -3.01491,5.52663 -1.66365,0.77465 -3.60447,0.81649 -4.94749,0.10665 z m 3.69217,-2.49609 c 0.93901,-0.48558 1.36128,-1.43816 1.36128,-3.07083 0,-3.61366 -4.29611,-4.21265 -5.33538,-0.74388 -0.24694,0.8242 -0.21889,1.21017 0.16006,2.20243 0.68584,1.79585 2.21172,2.44087 3.81404,1.61228 z m 7.51285,2.84764 c -0.42308,-0.17072 -0.47509,-10.43773 -0.0568,-11.21925 0.2483,-0.46395 0.58204,-0.51177 3.57187,-0.51177 h 3.29799 v 1.16231 c 0,1.33582 -0.23874,1.50761 -1.80353,1.29773 -0.59121,-0.0793 -1.38702,-0.0659 -1.76845,0.0299 -0.59353,0.14897 -0.68167,0.29674 -0.6113,1.02488 l 0.0822,0.85082 1.76314,0.0777 c 0.96973,0.0427 1.87852,0.22133 2.01954,0.39687 0.14102,0.17554 0.19729,0.70611 0.12506,1.17906 -0.13082,0.8565 -0.13742,0.85989 -1.66991,0.85989 -2.07009,0 -2.37012,0.33063 -2.37012,2.61182 0,1.03187 -0.13347,1.91374 -0.3175,2.09777 -0.31531,0.31531 -1.62865,0.3979 -2.26219,0.14227 z m 10.44594,0.01 c -0.43198,-0.12912 -0.46263,-0.58269 -0.39688,-5.87423 l 0.0712,-5.7343 2.34672,-0.0769 c 3.79106,-0.12424 5.71072,0.74566 6.92247,3.13692 1.50588,2.97173 0.47589,6.51552 -2.3088,7.94363 -0.97977,0.50247 -5.57559,0.92147 -6.63476,0.60489 z m 5.37157,-2.88176 c 1.76125,-0.91078 2.04203,-3.5649 0.53036,-5.01317 -0.79773,-0.76427 -2.95931,-1.24988 -3.27681,-0.73616 -0.1617,0.26164 -0.26663,2.68348 -0.20546,4.74222 0.0241,0.81233 0.15549,1.13713 0.49586,1.22608 0.92754,0.24239 1.69644,0.17384 2.45605,-0.21897 z m 7.45047,2.7849 c -0.52317,-0.22376 -0.59899,-0.42272 -0.52917,-1.38851 l 0.0815,-1.12733 1.32292,-0.003 c 2.553,-0.007 2.61437,-0.72181 0.26458,-3.08317 -1.5976,-1.60547 -1.71979,-1.81151 -1.71979,-2.89998 0,-2.06191 1.35357,-3.14155 3.93861,-3.14155 1.89526,0 2.14681,0.15623 2.14681,1.33339 0,1.14031 -0.51106,1.47469 -1.81587,1.1881 -0.86219,-0.18937 -1.53825,0.38697 -1.18159,1.00729 0.12063,0.20982 0.83646,0.93431 1.59072,1.60998 1.64509,1.47367 2.09109,2.56277 1.67789,4.09728 -0.41376,1.53658 -1.6728,2.42378 -3.6352,2.56161 -0.84191,0.0591 -1.80554,-0.01 -2.14141,-0.15369 z m 10.79712,0.025 -0.66146,-0.18459 0.0641,-3.91121 c 0.0378,-2.30246 -0.0477,-4.12019 -0.20775,-4.41926 -0.17596,-0.32879 -0.55376,-0.50803 -1.07083,-0.50803 -0.78804,0 -0.79784,-0.0171 -0.71829,-1.25677 l 0.0806,-1.25677 h 3.30729 3.30729 l 0.0807,1.25677 c 0.0755,1.17695 0.0398,1.25677 -0.56292,1.25677 -1.13521,0 -1.28685,0.52149 -1.39808,4.80793 -0.1204,4.63977 -0.19457,4.78055 -2.22069,4.21516 z m 9.66832,0.0443 c -0.28497,-0.0724 -0.79707,-0.31438 -1.138,-0.53777 -1.18702,-0.77776 -1.37714,-1.59058 -1.46544,-6.26523 -0.0456,-2.41123 -0.005,-4.50972 0.0898,-4.66331 0.0953,-0.15425 0.75329,-0.24241 1.46991,-0.19695 l 1.29732,0.0823 0.0388,2.51354 c 0.0213,1.38245 0.0511,3.24918 0.0661,4.14829 0.0185,1.10373 0.16243,1.7698 0.44314,2.05052 0.44536,0.44536 2.12793,0.5562 2.72272,0.17935 0.51445,-0.32594 0.76226,-2.00807 0.81434,-5.52794 0.025,-1.68578 0.10529,-3.16203 0.17855,-3.28055 0.0733,-0.11853 0.65967,-0.2155 1.30315,-0.2155 1.04258,0 1.18898,0.0757 1.34453,0.6955 0.29761,1.18575 -0.0647,8.41628 -0.4639,9.25733 -0.5618,1.18369 -2.35942,1.95987 -4.45299,1.92272 -0.95144,-0.0169 -1.96304,-0.0899 -2.24802,-0.1623 z m 10.6274,-0.1557 c -0.18338,-0.47789 -0.20588,-9.92646 -0.0258,-10.82995 0.13465,-0.67552 0.23823,-0.7276 1.44693,-0.7276 h 1.30189 l 0.0261,1.25677 c 0.0632,3.04677 0.23084,3.09963 2.06656,0.6517 l 1.43119,-1.90847 h 1.39748 c 0.76862,0 1.4642,0.10795 1.54575,0.23989 0.0815,0.13194 -0.36389,0.87608 -0.98986,1.65365 -1.70765,2.12123 -2.30218,3.03441 -2.30218,3.53612 0,0.24925 0.65485,1.64742 1.45521,3.10704 0.80037,1.45963 1.45521,2.82084 1.45521,3.02491 0,0.2839 -0.35095,0.35241 -1.49434,0.29169 l -1.49433,-0.0793 -0.95306,-1.75806 c -1.41397,-2.60828 -1.56312,-2.80307 -1.83305,-2.39404 -0.12552,0.1902 -0.25393,1.1401 -0.28536,2.1109 -0.0329,1.01634 -0.19068,1.84999 -0.37194,1.96524 -0.52873,0.33618 -2.2321,0.23551 -2.37637,-0.14044 z m 20.25168,0.16197 c -0.58742,-0.11314 -0.59531,-0.17012 -0.59531,-4.2972 0,-4.44905 -0.0529,-4.6416 -1.32292,-4.81728 -0.59401,-0.0822 -0.66146,-0.21292 -0.66146,-1.28213 v -1.19062 h 3.30729 3.30729 v 1.19062 c 0,1.02145 -0.0819,1.20228 -0.57609,1.27266 -1.1284,0.16067 -1.27302,0.69557 -1.32769,4.9107 -0.0463,3.56814 -0.10177,4.0058 -0.52917,4.17442 -0.52168,0.20581 -0.71116,0.2104 -1.60194,0.0388 z m 9.39781,0.005 c -0.53938,-0.14136 -0.68204,-0.60625 -2.05396,-6.69324 -0.57342,-2.54413 -0.94361,-4.72466 -0.82265,-4.84562 0.12096,-0.12096 0.73334,-0.18252 1.36085,-0.13681 l 1.14091,0.0831 0.90032,3.77031 c 0.49518,2.07367 0.98542,3.77031 1.08941,3.77031 0.104,0 0.34787,-0.71572 0.54194,-1.59049 0.32891,-1.48258 0.29327,-2.72278 -0.15008,-5.22253 l -0.1525,-0.85989 h 1.32367 c 1.15701,0 1.34039,0.075 1.45635,0.59531 0.073,0.32742 0.40283,1.9943 0.73303,3.70417 0.33021,1.70987 0.68837,3.10885 0.7959,3.10885 0.10754,0 0.59425,-1.63711 1.08158,-3.63802 l 0.88607,-3.63802 1.1269,-0.0815 c 0.7963,-0.0576 1.16999,0.0308 1.27378,0.3013 0.1449,0.37759 -1.72838,8.69737 -2.36323,10.4958 -0.31867,0.90272 -0.36323,0.92635 -1.76968,0.938 -1.93987,0.0161 -2.05213,-0.0412 -2.40828,-1.22996 -0.37645,-1.25649 -0.65274,-1.30923 -0.89611,-0.17106 -0.10113,0.47295 -0.30376,1.00873 -0.45029,1.19063 -0.25623,0.31807 -1.69094,0.3991 -2.64393,0.14933 z m 13.64538,-0.21325 c -0.29598,-0.21642 -0.35254,-1.33451 -0.29459,-5.82357 l 0.0717,-5.55573 3.50573,-0.0738 3.50573,-0.0738 -0.004,0.86757 c -0.006,1.329 -0.24267,1.49507 -2.25222,1.58175 l -1.84477,0.0796 -0.0829,0.85989 c -0.0714,0.7405 0.002,0.86345 0.52917,0.88544 0.65672,0.0274 3.12834,0.18332 3.45634,0.21804 0.10914,0.0115 0.19844,0.55678 0.19844,1.21163 0,1.32224 0.15795,1.24102 -2.51354,1.29239 l -1.5875,0.0305 v 1.05834 1.05833 l 2.24896,0.13229 2.24896,0.13229 0.0822,0.99432 c 0.0533,0.645 -0.0396,1.03541 -0.26458,1.11129 -0.76273,0.25724 -6.6542,0.26842 -7.00312,0.0133 z m 22.59362,0.2365 c -0.087,-0.087 -0.0866,-0.34465 7.9e-4,-0.57257 0.1172,-0.30542 0.0602,-0.35485 -0.21667,-0.18793 -0.32068,0.19332 -0.32252,0.16094 -0.0126,-0.22118 0.19979,-0.24621 0.42799,-0.44766 0.50719,-0.44766 0.0792,0 0.0703,0.0737 -0.0198,0.16379 -0.0901,0.0901 0.0102,0.3378 0.22291,0.55049 0.21269,0.21269 0.31906,0.49618 0.23637,0.62996 -0.17216,0.27857 -0.48742,0.31592 -0.71824,0.0851 z m -11.98255,-0.4443 c -0.0713,-0.18583 -0.0973,-2.77544 -0.0578,-5.75469 l 0.0718,-5.41681 h 3.43596 c 3.74714,0 3.85294,0.0492 3.46159,1.60843 -0.15215,0.60624 -0.26671,0.64053 -2.14009,0.64053 h -1.97934 v 0.92604 c 0,0.69865 0.1137,0.93049 0.46302,0.94415 0.71815,0.0281 3.34994,0.19008 3.57188,0.21985 0.10914,0.0146 0.19844,0.5624 0.19844,1.21725 v 1.19062 h -2.13188 -2.13188 l 0.0814,1.12448 0.0814,1.12448 2.24634,0.13229 c 2.42355,0.14273 2.63109,0.30188 2.26996,1.74072 -0.16016,0.63812 -0.17423,0.64053 -3.7359,0.64053 -2.65635,0 -3.60846,-0.0868 -3.70479,-0.33787 z m 11.71737,-1.28246 c 0.17948,-0.18082 0.39297,-0.26211 0.47443,-0.18065 0.0815,0.0815 -0.0654,0.2294 -0.32632,0.32876 -0.37708,0.14359 -0.40747,0.1132 -0.14811,-0.14811 z m -171.71261,-0.49336 c -0.35987,-0.28307 -0.70994,-0.45905 -0.77793,-0.39105 -0.068,0.068 -0.12363,-0.055 -0.12363,-0.27325 0,-0.21828 0.12899,-0.4068 0.28663,-0.41893 0.15765,-0.0121 0.5478,-0.0513 0.867,-0.087 0.50902,-0.0569 0.54495,0.003 0.29223,0.48507 -0.27926,0.53306 -0.27184,0.53554 0.24127,0.0806 0.54304,-0.48149 1.53888,-0.36676 1.22499,0.14113 -0.0967,0.15641 -0.0456,0.19981 0.11697,0.0994 0.45812,-0.28313 0.26626,-1.11791 -0.26616,-1.15801 -0.26605,-0.02 -0.8398,-0.21407 -1.27501,-0.43118 -0.50732,-0.25309 -0.72752,-0.28254 -0.61361,-0.0821 0.0977,0.17197 -0.19822,-0.0373 -0.65765,-0.46506 -0.55974,-0.52114 -0.73391,-0.8404 -0.52794,-0.9677 0.34403,-0.21262 1.01684,-0.0259 1.01684,0.28215 0,0.10994 0.28929,0.16814 0.64287,0.12932 0.6719,-0.0737 1.08603,0.48031 0.76771,1.02711 -0.0982,0.16877 0.08,0.08 0.39602,-0.19717 0.595,-0.52188 0.77327,-0.84059 0.31006,-0.55431 -0.14552,0.0899 -0.27831,-0.0519 -0.2951,-0.31511 -0.0168,-0.26325 -0.0484,-0.65723 -0.0703,-0.87551 -0.0219,-0.21828 0.0659,-0.54571 0.19521,-0.72761 0.14645,-0.2061 0.12623,-0.33073 -0.0537,-0.33073 -0.16054,0 -0.21369,-0.19541 -0.11972,-0.44028 0.12548,-0.32699 0.0723,-0.38508 -0.20675,-0.22576 -0.30421,0.1737 -0.31277,0.14672 -0.045,-0.14181 0.41821,-0.45055 0.45448,-2.47485 0.0398,-2.21854 -0.21102,0.13042 -0.21082,0.0301 8e-4,-0.3652 0.21545,-0.40258 0.21166,-0.5945 -0.0145,-0.73427 -0.201,-0.12422 -0.23404,-0.0725 -0.0962,0.15056 0.13998,0.2265 0.0875,0.29894 -0.15756,0.21727 -0.4747,-0.15824 -0.50678,-2.36917 -0.0367,-2.52588 0.2028,-0.0676 0.27264,0.0415 0.1804,0.28192 -0.0828,0.21572 -0.0233,0.47082 0.13211,0.56689 0.15544,0.0961 0.2808,0.31647 0.27857,0.48978 -0.002,0.18934 -0.10651,0.15671 -0.26062,-0.0818 -0.14106,-0.21828 -0.2583,-0.27451 -0.26053,-0.12495 -0.002,0.14956 0.24316,0.4836 0.54531,0.74231 0.43981,0.37657 0.48611,0.54659 0.23219,0.85255 -0.17445,0.2102 -0.21161,0.38217 -0.0826,0.38217 0.12902,0 0.23574,0.92274 0.23715,2.05052 0.002,1.93637 0.0355,2.0522 0.59407,2.08067 0.50275,0.0256 0.54151,-0.0316 0.25827,-0.38152 -0.20098,-0.24828 -0.21388,-0.34015 -0.0325,-0.23149 0.16541,0.0991 0.44679,0.004 0.62529,-0.21089 0.1785,-0.21507 0.43762,-0.32116 0.57582,-0.23575 0.1382,0.0854 0.48702,-0.0581 0.77516,-0.3188 0.4707,-0.42599 0.50642,-0.42862 0.35189,-0.0259 -0.0946,0.2465 -0.27457,0.44818 -0.39995,0.44818 -0.12539,0 -0.16308,0.16911 -0.0838,0.3758 0.10451,0.27236 -0.037,0.3559 -0.51423,0.30352 -0.46287,-0.0508 -0.61764,0.034 -0.52108,0.28566 0.0756,0.19687 0.006,0.37282 -0.15553,0.39101 -0.68118,0.0769 -0.78697,0.10823 -0.96408,0.28534 -0.10236,0.10236 -0.10258,0.51894 -5.3e-4,0.92572 0.1576,0.62791 0.23347,0.67972 0.50239,0.34305 0.17426,-0.21811 0.65697,-0.69421 1.07272,-1.05801 l 0.75592,-0.66146 -0.33432,0.64112 c -0.18387,0.35262 -0.70604,0.99346 -1.16038,1.4241 -0.45434,0.43064 -0.67724,0.70065 -0.49534,0.60003 0.55176,-0.30521 0.37234,0.1163 -0.39602,0.93039 -0.70974,0.75197 -1.33492,1.05857 -0.97673,0.479 0.13009,-0.21048 0.0324,-0.21209 -0.35298,-0.006 -0.4215,0.22558 -0.66953,0.17762 -1.18713,-0.22952 z m -0.63387,-3.05696 c -0.0862,-0.22456 -0.21342,-0.35154 -0.28277,-0.28219 -0.0693,0.0694 -0.0476,0.25308 0.0483,0.40829 0.26089,0.42213 0.41338,0.34012 0.23447,-0.1261 z m 176.54339,2.89239 c -0.0865,-0.22542 0.0144,-0.28481 0.29868,-0.17574 0.3251,0.12475 0.3868,0.0539 0.25414,-0.2918 -0.10425,-0.27168 -0.0693,-0.39109 0.0864,-0.2949 0.14385,0.0889 0.26155,0.0554 0.26155,-0.0744 0,-0.12986 0.17859,-0.23611 0.39688,-0.23611 0.21828,0 0.39687,0.10341 0.39687,0.2298 0,0.12639 0.25249,0.0947 0.5611,-0.0705 0.43157,-0.23098 0.51566,-0.22679 0.36429,0.0181 -0.10823,0.17513 0.13171,0.10318 0.5332,-0.15989 l 0.73,-0.47831 -0.36419,0.58316 c -0.2003,0.32074 -0.46164,0.58316 -0.58074,0.58316 -0.11911,0 -0.1316,0.13746 -0.0278,0.30546 0.11268,0.18232 0.073,0.23391 -0.0984,0.12798 -0.15795,-0.0976 -0.36129,-0.0576 -0.45186,0.0889 -0.23548,0.38103 -2.20404,0.25178 -2.36012,-0.15495 z m 0.60598,-3.43529 c -0.17549,-1.39282 -0.16748,-1.70479 0.0472,-1.83744 0.15496,-0.0958 0.15551,-0.32863 0.002,-0.61646 -0.13615,-0.2544 -0.21193,-0.787 -0.16841,-1.18354 0.0695,-0.63312 0.027,-0.67905 -0.34847,-0.37689 -0.78621,0.63263 -1.96969,0.26457 -1.71403,-0.53306 0.10566,-0.32964 0.0783,-0.36085 -0.0997,-0.11357 -0.18256,0.25372 -0.42594,0.27233 -0.951,0.0727 -0.38823,-0.14756 -0.70577,-0.3378 -0.70577,-0.42275 0,-0.085 0.14883,-0.0791 0.33073,0.0131 0.1819,0.0921 0.11524,-0.008 -0.14813,-0.22357 -0.26337,-0.21511 -0.36858,-0.45925 -0.2338,-0.54255 0.13478,-0.0833 0.44591,0.0705 0.6914,0.34175 0.34398,0.38009 0.77467,0.48196 1.87799,0.44419 0.78741,-0.027 1.51528,-0.13265 1.61749,-0.23486 0.10221,-0.10222 0.0262,-0.18585 -0.16896,-0.18585 -0.22487,0 -0.11991,-0.25784 0.28664,-0.70412 0.35278,-0.38727 0.48072,-0.61102 0.2843,-0.49724 -0.28954,0.16774 -0.29974,0.0997 -0.0539,-0.35968 0.16677,-0.31161 0.21533,-0.71293 0.1079,-0.89182 -0.15063,-0.25084 -0.10201,-0.24975 0.2125,0.005 0.26377,0.21348 0.38387,0.68072 0.34004,1.32291 -0.0373,0.54608 -0.0789,1.14873 -0.0924,1.33922 -0.0137,0.19205 -0.16076,0.26224 -0.33014,0.15755 -0.1949,-0.12045 -0.2334,-0.0722 -0.10638,0.13335 0.1095,0.17718 0.022,0.523 -0.19439,0.76849 -0.50775,0.57595 -0.1459,1.70592 0.47054,1.46937 0.34115,-0.13091 0.35454,-0.23171 0.0763,-0.57429 -0.28585,-0.35195 -0.26794,-0.38947 0.11706,-0.24524 0.25,0.0936 0.52674,0.0535 0.61498,-0.0893 0.0882,-0.14277 0.0177,-0.22687 -0.15689,-0.18689 -0.17453,0.04 -0.37742,-0.0927 -0.45087,-0.29485 -0.0776,-0.21351 -0.0159,-0.29487 0.14709,-0.19412 0.15434,0.0954 0.36678,0.034 0.47208,-0.13635 0.11957,-0.19347 0.0768,-0.2389 -0.11401,-0.12099 -0.52777,0.32618 -0.33198,-0.26606 0.26236,-0.79362 0.41321,-0.36679 0.53101,-0.39597 0.43262,-0.10716 -0.0744,0.21829 -0.0229,0.61481 0.11434,0.88118 0.20043,0.389 0.0372,0.68628 -0.82955,1.5108 -0.5935,0.56458 -1.11227,1.23961 -1.15284,1.50008 -0.0406,0.26046 -0.16663,0.6224 -0.28015,0.8043 -0.11851,0.18991 -0.0813,0.33073 0.0873,0.33073 0.16153,0 0.46895,-0.41945 0.68315,-0.9321 0.34786,-0.83254 0.44873,-0.90037 0.94447,-0.63506 0.30526,0.16337 0.48392,0.18201 0.39703,0.0414 -0.0869,-0.1406 0.10505,-0.4799 0.42654,-0.75401 0.45555,-0.38842 0.50753,-0.39878 0.23556,-0.0469 -0.19192,0.24829 -0.28047,0.56222 -0.19679,0.69763 0.19918,0.32228 -0.48757,0.88924 -0.76867,0.63458 -0.11909,-0.10787 -0.13921,-0.0608 -0.0447,0.10461 0.19401,0.33965 -0.43857,0.97924 -0.70499,0.71282 -0.0949,-0.0949 -0.41133,0.0437 -0.70326,0.30788 -0.29194,0.2642 -0.54437,0.37261 -0.56096,0.24091 z m -175.91775,-0.37211 c -0.39128,-0.10574 -0.6207,-0.3313 -0.56166,-0.55221 0.0549,-0.2054 0.1045,-0.52228 0.11024,-0.70418 0.0122,-0.38637 0.35346,-0.4387 0.57052,-0.0875 0.0827,0.13379 -0.0378,0.43144 -0.26786,0.66146 -0.23001,0.23001 -0.29767,0.4182 -0.15034,0.4182 0.14733,0 0.3509,-0.13435 0.45239,-0.29856 0.12508,-0.20238 0.26577,-0.15337 0.43674,0.15214 0.31894,0.56992 0.22957,0.63212 -0.59003,0.41063 z m -0.95131,-1.01708 c 0.10383,-0.168 0.0754,-0.30546 -0.0631,-0.30546 -0.13854,0 -0.3181,-0.17253 -0.39901,-0.3834 -0.0956,-0.24907 -0.02,-0.3346 0.21581,-0.24413 0.49631,0.19045 0.71059,0.83484 0.35143,1.05681 -0.17798,0.11 -0.21944,0.0611 -0.10513,-0.12382 z m 174.83971,-0.72972 c -0.42649,-0.3167 -0.42367,-0.36621 0.0466,-0.81634 0.48369,-0.46302 0.49465,-0.4623 0.32467,0.0213 -0.15072,0.4288 -0.1169,0.45148 0.23621,0.15842 0.3451,-0.28641 0.49837,-0.24946 0.94241,0.22716 0.29165,0.31305 0.43635,0.57911 0.32154,0.59124 -0.11481,0.0121 -0.48069,0.052 -0.81305,0.0887 -0.33237,0.0367 -0.80862,-0.085 -1.05834,-0.27046 z m -171.93234,-0.25884 c 0.0883,-0.23018 0.1606,-0.47533 0.1606,-0.54478 0,-0.0694 0.12428,-0.0495 0.27618,0.0444 0.15189,0.0939 0.4546,0.0226 0.67267,-0.15838 0.28174,-0.23382 0.47848,-0.24709 0.67973,-0.0458 0.37289,0.37288 0.0125,0.93569 -0.47846,0.74728 -0.21435,-0.0823 -0.31247,-0.0318 -0.2222,0.11425 0.23028,0.3726 -0.22561,0.32402 -0.64923,-0.0692 -0.28505,-0.26459 -0.31897,-0.26459 -0.1696,0 0.1029,0.18224 0.0482,0.33073 -0.12178,0.33073 -0.17261,0 -0.23776,-0.18435 -0.14791,-0.41852 z m -2.34349,-0.3648 c -0.25199,-0.27844 -0.38078,-0.63146 -0.28621,-0.78448 0.10168,-0.16452 0.0149,-0.21796 -0.2123,-0.13077 -0.44052,0.16904 -0.47443,-0.68767 -0.0401,-1.01341 0.16848,-0.12636 0.1364,-0.28117 -0.0883,-0.4262 -0.28785,-0.18578 -0.28031,-0.25562 0.0409,-0.37888 0.28754,-0.11033 0.3758,0.0128 0.32712,0.45623 -0.0458,0.41722 0.0656,0.59793 0.356,0.57731 0.30762,-0.0219 0.41893,0.19949 0.40891,0.81312 -0.008,0.46372 0.0817,0.78412 0.19843,0.71199 0.11672,-0.0721 0.21221,-0.0121 0.21221,0.13343 0,0.51867 -0.46575,0.53984 -0.9166,0.0417 z m 173.21232,-0.55469 c -0.3105,-0.4972 -0.29579,-0.52158 0.16572,-0.27459 0.27856,0.14909 0.59797,0.18595 0.70978,0.0819 0.11182,-0.10402 0.1498,-0.018 0.0844,0.19121 -0.18651,0.59659 -0.58784,0.5972 -0.9599,0.001 z m -168.85614,0.0434 c 0,-0.12995 0.17253,-0.30248 0.3834,-0.3834 0.25625,-0.0983 0.33461,-0.02 0.23627,0.23627 -0.16059,0.4185 -0.61967,0.5275 -0.61967,0.14713 z m -2.09602,-0.54844 c -0.33743,-0.21417 -0.19895,-1.4051 0.17797,-1.53058 0.20277,-0.0675 0.27263,0.0417 0.1804,0.28205 -0.0828,0.21572 -0.005,0.48219 0.17299,0.59215 0.20687,0.12785 0.25544,0.0898 0.13471,-0.10553 -0.25258,-0.40869 0.18018,-0.39043 0.59896,0.0253 0.2673,0.26534 0.29505,0.22611 0.14034,-0.19844 -0.1902,-0.52195 -0.185,-0.52229 0.3812,-0.0251 0.5772,0.50681 0.77631,0.84285 0.33943,0.57284 -0.12903,-0.0798 -0.3751,0.0243 -0.54682,0.23119 -0.30224,0.36418 -1.12354,0.44541 -1.57918,0.15619 z m 2.34926,-0.8098 c -0.32075,-0.19823 -0.29721,-0.30147 0.14492,-0.63558 0.29033,-0.2194 0.64694,-0.3933 0.79246,-0.38644 0.14552,0.007 0.12245,0.0703 -0.0513,0.14097 -0.17373,0.0707 -0.25491,0.28736 -0.1804,0.48152 0.17932,0.4673 -0.22535,0.6964 -0.7057,0.39953 z m 170.80241,-1.0554 c 0.15217,-0.24622 0.0994,-0.30545 -0.17757,-0.19918 -0.27047,0.10379 -0.38242,-0.008 -0.35677,-0.35604 0.0393,-0.53304 0.64812,-1.31627 0.68615,-0.88268 0.0121,0.13825 0.0521,0.52429 0.0889,0.85787 0.0368,0.33358 -0.0511,0.6794 -0.19522,0.76848 -0.15888,0.0982 -0.1768,0.024 -0.0455,-0.18845 z m -172.71312,-0.15408 c -0.087,-0.087 -0.0866,-0.34464 8e-4,-0.57257 0.097,-0.25292 0.0501,-0.34711 -0.12044,-0.24169 -0.27774,0.17165 -0.61355,-0.5289 -0.73875,-1.54112 -0.0739,-0.59741 0.48584,-1.54487 0.75416,-1.27656 0.0964,0.0964 -0.0267,0.39843 -0.27348,0.67116 -0.42514,0.46977 -0.42169,0.4861 0.0656,0.31005 0.28288,-0.10221 0.42922,-0.0917 0.3252,0.0234 -0.10402,0.11508 -0.0624,0.44607 0.0925,0.73554 0.21561,0.40286 0.20537,0.47915 -0.0436,0.32526 -0.21054,-0.13012 -0.28208,-0.0714 -0.20279,0.16651 0.0694,0.20829 0.46468,0.36239 0.91216,0.35564 0.62816,-0.009 0.78171,0.0956 0.75088,0.51405 -0.0456,0.61845 -0.52497,0.85414 -0.8075,0.39699 -0.12469,-0.20175 -0.086,-0.25057 0.10502,-0.13251 0.19674,0.12159 0.24646,0.0411 0.14227,-0.23046 -0.12316,-0.32093 -0.24405,-0.34775 -0.52322,-0.11605 -0.19969,0.16572 -0.29782,0.40688 -0.21807,0.53592 0.16419,0.26566 0.0188,0.31601 -0.22079,0.0764 z m 170.77734,-0.37709 c -0.29686,-0.31865 -0.65634,-0.50731 -0.79883,-0.41924 -0.14249,0.0881 -0.38664,-0.20582 -0.54256,-0.65308 -0.21792,-0.62513 -0.20858,-0.78674 0.0404,-0.69881 0.17812,0.0629 0.30784,0.30675 0.28828,0.54187 -0.0273,0.3276 0.0724,0.3697 0.42651,0.18019 0.59527,-0.31858 1.86284,0.89158 1.40912,1.3453 -0.20113,0.20113 -0.43948,0.11533 -0.8229,-0.29623 z m 0.51088,-0.32906 c -0.26131,-0.25936 -0.2917,-0.22897 -0.14811,0.14812 0.0994,0.26093 0.2473,0.40778 0.32876,0.32632 0.0815,-0.0815 1.7e-4,-0.29496 -0.18065,-0.47444 z m -169.4837,0.35902 c -0.21309,-0.34478 0.12666,-1.1078 0.41416,-0.93012 0.13264,0.082 0.1613,0.27829 0.0637,0.43624 -0.10682,0.17283 -0.0541,0.21095 0.13229,0.0957 0.17038,-0.1053 0.24071,-0.30321 0.1563,-0.43979 -0.0844,-0.13658 0.0246,-0.42644 0.24232,-0.64413 0.35134,-0.35133 0.38805,-0.32315 0.32684,0.25096 -0.11233,1.0536 -0.96153,1.83636 -1.3356,1.23111 z m -1.05781,-1.32206 c -0.18304,-0.29617 0.38297,-1.34765 0.72543,-1.34765 0.11911,0 0.1316,-0.13746 0.0278,-0.30546 -0.10963,-0.1774 -0.0733,-0.23408 0.0867,-0.13521 0.15152,0.0936 0.42262,-0.007 0.60245,-0.2237 0.17983,-0.21668 0.46121,-0.39214 0.62529,-0.38991 0.17249,0.002 0.14453,0.10147 -0.0663,0.235 -0.2185,0.13839 -0.28102,0.37535 -0.15602,0.59126 0.11474,0.19817 0.11581,0.27668 0.002,0.17447 -0.26734,-0.24093 -1.06892,0.56216 -1.07038,1.07239 -0.001,0.47371 -0.54553,0.70389 -0.77734,0.32881 z m 170.41066,-0.16312 c -0.24453,-0.63723 0.11606,-1.08651 0.42663,-0.53155 0.16442,0.29379 0.16389,0.54785 -0.002,0.71322 -0.1661,0.1661 -0.31633,0.10191 -0.42515,-0.18167 z m 1.52553,0.24056 c -0.16075,-0.0663 -0.23643,-0.41275 -0.16818,-0.76978 0.0683,-0.35703 0.24142,-0.57663 0.38482,-0.48801 0.14701,0.0909 0.1335,-0.0766 -0.031,-0.3839 -0.22006,-0.41118 -0.2103,-0.59189 0.0397,-0.7358 0.18229,-0.10493 0.24782,-0.098 0.1456,0.0154 -0.10221,0.11341 -0.032,0.36001 0.15596,0.548 0.18799,0.18799 0.3113,0.6203 0.27403,0.96069 -0.0373,0.34039 -0.0777,0.70819 -0.0898,0.81733 -0.0238,0.21469 -0.25052,0.22617 -0.7112,0.036 z m -2.26095,-0.85492 c -0.0218,-0.16807 -0.0516,-0.45441 -0.0661,-0.63632 -0.0146,-0.1819 -0.20505,-0.48532 -0.42333,-0.67426 -0.3014,-0.2609 1.19611,0.32838 1.52298,0.59929 0.0373,0.0309 -0.17109,0.27233 -0.46302,0.53653 -0.3228,0.29213 -0.54635,0.36061 -0.57048,0.17476 z"
       id="path897" />
  </g>
</svg>
