<svg width="231mm" height="299mm" version="1.1" viewBox="0 0 231 299" xmlns="http://www.w3.org/2000/svg">
  <g transform="translate(96.2 8.6)">
    <path d="m61.6 2.18c0.724 1.16 1.12 2.51 1.07 3.99l-0.708 45.2c-0.158 10 8.39 18.3 18.8 18.1l45.6-0.698c-0.952-4.44-3.12-8.67-6.51-12.1l-46.8-47.9c-3.28-3.35-7.25-5.54-11.4-6.56z" style="fill:#cccccc;paint-order:stroke fill markers"/>
    <path d="m-71.1-1.6h126c4.43 0 8.13 3.37 7.99 7.77l-0.683 45.2c-0.152 10 8.09 18.3 18.1 18.1l47.6-0.756v197c0 10.1-8.09 18.1-18.1 18.1h-181c-10.1 0-18.1-8.09-18.1-18.1v-249c0-10.1 8.09-18.1 18.1-18.1z" style="fill:none;paint-order:stroke markers fill;stroke-linecap:round;stroke-linejoin:round;stroke-width:8;stroke:#444444"/>
    <path d="m127 68.3c-1.01-4.63-3.3-9.04-6.88-12.7l-49.5-49.9c-3.46-3.49-7.66-5.77-12.1-6.84" style="fill:none;paint-order:stroke fill markers;stroke-linecap:round;stroke-linejoin:round;stroke-width:8;stroke:#444444"/>
    <g transform="scale(1.02 .98)" style="fill:#ff0055" aria-label="LEASE">
      <path d="m-64.5 42.7v-25.7h6.93v20.1h9.88v5.6z" style="fill:#ff0055;"/>
      <path d="m-28.3 42.7h-15.2v-25.7h15.2v5.56h-8.3v4.04h7.69v5.56h-7.69v4.84h8.3z" style="fill:#ff0055;"/>
      <path d="m-8.09 42.7-1.26-4.81h-8.34l-1.3 4.81h-7.62l8.37-25.8h9.25l8.48 25.8zm-2.7-10.5-1.11-4.21q-0.386-1.4-0.948-3.63-0.544-2.23-0.72-3.19-0.158 0.895-0.632 2.95-0.456 2.05-2.05 8.09z" style="fill:#ff0055;"/>
      <path d="m19.1 34.9q0 2.39-1.21 4.25-1.21 1.84-3.49 2.88-2.28 1.02-5.35 1.02-2.56 0-4.3-0.351-1.74-0.369-3.62-1.26v-6.18q1.98 1.02 4.12 1.6 2.14 0.562 3.93 0.562 1.54 0 2.26-0.527 0.72-0.544 0.72-1.39 0-0.527-0.298-0.913-0.281-0.404-0.93-0.807-0.632-0.404-3.41-1.65-2.51-1.14-3.77-2.21-1.25-1.07-1.86-2.46-0.597-1.39-0.597-3.28 0-3.55 2.58-5.53 2.58-1.98 7.09-1.98 3.98 0 8.13 1.84l-2.12 5.35q-3.6-1.65-6.21-1.65-1.35 0-1.97 0.474-0.614 0.474-0.614 1.18 0 0.755 0.772 1.35 0.79 0.597 4.25 2.18 3.32 1.49 4.6 3.21 1.3 1.7 1.3 4.3z" style="fill:#ff0055;"/>
      <path d="m38.3 42.7h-15.2v-25.7h15.2v5.56h-8.3v4.04h7.69v5.56h-7.69v4.84h8.3z" style="fill:#ff0055;"/>
    </g>
    <path d="m-61.3 103h148" style="fill:none;stroke-linecap:round;stroke-linejoin:round;stroke-width:8;stroke:#444444"/>
    <path d="m-61.3 129h148" style="fill:none;stroke-linecap:round;stroke-linejoin:round;stroke-width:8;stroke:#444444"/>
    <path d="m-61.3 155h148" style="fill:none;stroke-linecap:round;stroke-linejoin:round;stroke-width:8;stroke:#444444"/>
    <path d="m2.21 187h84" style="fill:none;stroke-linecap:round;stroke-linejoin:round;stroke-width:8;stroke:#444444"/>
    <path d="m-43.3 193c-11.3 0.46-18.2 14.2-14.3 24.3 0.39 3.94 6.38 8.83 0.38 10.6-3.29 0.863-8.11 6.39-2.62 7.6 3.72-0.545 7.79-6.72 11.1-2.16 3.48 4.35 10.5 7.91 14.8 2.54 3.69-2.21 4.97-7.9 9.41-8.66 4.25 3.78 0.973 13.5 7.87 15.3 9.68-0.989 17.4-8.31 25.6-13 2.61-1.05 7.56-5.35 3.27-7.46-5.95 0.661-10.4 6.25-15.8 8.8-3.73 1.47-7.63 6.46-11.8 4.83-3.08-5.72-0.882-14.2-5.67-19-5.86-1.58-8.25 6.36-11.7 9.59-2.25 2.4-5.24 9.39-9.36 5.71-3.23-1.9-5.12-6.06-1.19-8.39 6.28-6.44 14.5-16.5 8.27-25.5-1.96-2.61-4.92-4.59-8.19-5.02zm-0.388 5.53c5.51 0.955 6.6 7.76 3.56 11.7-2.65 4.54-6.02 8.69-10.2 11.9-2.8-6.68-4.85-16 1.64-21.4 1.4-1.14 3.02-2.71 4.99-2.31z" style="fill:#ff0055;"/>
  </g>
</svg>
