<svg width="211mm" height="251mm" version="1.1" viewBox="0 0 211 251" xmlns="http://www.w3.org/2000/svg">
  <g transform="translate(3.19 1.86)">
    <g transform="matrix(.265 0 0 .265 1.81 2.48)" style="fill:#444;">
      <path d="m508 64.6c-0.304-0.286-60.4-57.6-60.4-57.6-2.3-2.21-4.68-4.49-9.12-4.49h-242c-7.07 0-12.8 5.75-12.8 12.8v39.4l-85.3 14.6c-6.84 1.2-11.4 7.75-10.3 14.6l4.33 25.3c-27.7 9.33-56.2 19-83.7 28.8-6.5 2.38-9.9 9.6-7.59 16.1l54.7 152c1.1 3.06 3.98 4.96 7.06 4.96 0.842 0 1.7-0.143 2.54-0.445 3.9-1.4 5.92-5.7 4.52-9.6l-53.9-150c25.9-9.27 52.7-18.3 78.9-27.2l25.8 150 29.7 173c1.07 6.11 6.44 10.5 12.5 10.5 0.686 0 1.38-0.056 2.08-0.171l143-24.5-169 60.7-57.8-161c-1.4-3.9-5.7-5.92-9.6-4.52s-5.92 5.7-4.52 9.6l58.6 163c1.88 5.13 6.73 8.32 11.9 8.32 1.42 0 2.86-0.244 4.26-0.757l251-90.1 33.3-5.7h73.5c7.07 0 12.8-5.77 12.8-12.9v-327c1e-3 -4.49-2.44-6.78-4.21-8.45zm-19.9 1.78h-37.5l-0.93 4e-3c-1.8 0.012-6 0.043-7.07-1.02-0.246-0.245-0.534-1.06-0.534-2.58l-0.087-40.4zm9.08 332h-299v-146c0-4.14-3.36-7.5-7.5-7.5s-7.5 3.36-7.5 7.5v148c0 7.09 5.75 12.9 12.8 12.9h141l-173 29.6-29.2-171-32.3-188 80.4-13.8v147c0 4.14 3.36 7.5 7.5 7.5s7.5-3.36 7.5-7.5v-199h228l0.098 45.3c0 5.49 1.67 9.94 4.97 13.2 5.06 5.03 12.2 5.38 16.7 5.38 0.382 0 0.744-3e-3 1.08-5e-3l47.4-3e-3z"/>
      <path d="m234 119c0 4.14 3.36 7.5 7.5 7.5h214c4.14 0 7.5-3.36 7.5-7.5s-3.36-7.5-7.5-7.5h-214c-4.14 0-7.5 3.36-7.5 7.5z"/>
      <path d="m456 165h-214c-4.14 0-7.5 3.36-7.5 7.5s3.36 7.5 7.5 7.5h214c4.14 0 7.5-3.36 7.5-7.5s-3.36-7.5-7.5-7.5z"/>
      <path d="m456 218h-214c-4.14 0-7.5 3.36-7.5 7.5s3.36 7.5 7.5 7.5h214c4.14 0 7.5-3.36 7.5-7.5s-3.36-7.5-7.5-7.5z"/>
      <path d="m456 271h-214c-4.14 0-7.5 3.36-7.5 7.5s3.36 7.5 7.5 7.5h214c4.14 0 7.5-3.36 7.5-7.5s-3.36-7.5-7.5-7.5z"/>
      <path d="m456 325h-214c-4.14 0-7.5 3.36-7.5 7.5s3.36 7.5 7.5 7.5h214c4.14 0 7.5-3.36 7.5-7.5s-3.36-7.5-7.5-7.5z"/>
    </g>
    <g transform="matrix(.265 0 0 .265 79.5 92.9)">
      <path d="m258-7.55c-4.96-0.0497-9.98 0.172-15.1 0.68l-0.115 0.0117c-70.5 8.14-122 70.4-122 141v64.1h-18c-16.8 1e-5 -33.2 13.6-33.2 33.2v256c0 8.92 4.23 17 10.2 22.9s14 10.2 22.9 10.2h307c19.6 0 33.2-16.3 33.2-33.2v-256c0-9.36-3.25-17.9-9.25-23.9s-14.5-9.25-23.9-9.25h-223v-66.7c0-35 23.2-64.9 55.3-71.9 44.3-6.88 83.2 25.3 83.2 69.4 0 19.6 16.3 33.2 33.2 33.2s33.2-13.6 33.2-33.2c0-73.7-59.7-135-134-136zm-0.127 15.1c66.3 0.642 119 55.6 119 121 0 11.2-9.27 18-18 18s-18-6.88-18-18c0-53.1-48-92.6-101-84.3l-0.203 0.0332-0.201 0.043c-39.5 8.46-67.4 45-67.4 86.8v81.8h238c6 0 10.3 1.87 13.2 4.83 2.95 2.95 4.83 7.21 4.83 13.2v256c0 8.77-6.88 18-18 18h-307c-3.88 0-8.64-2.17-12.3-5.79s-5.79-8.37-5.79-12.3v-256c0-11.2 9.27-18 18-18h33.2v-79.2c0-62.9 45.9-118 108-126 4.51-0.448 8.96-0.65 13.4-0.607zm-0.789 268c-32-0.163-59.3 24.4-59.3 57.6 0 19.4 10.5 36 25.6 47.3v29.5c0 9.36 3.25 17.9 9.25 23.9s14.5 9.25 23.9 9.25 17.9-3.25 23.9-9.25 9.25-14.5 9.25-23.9v-29.3c18.3-12.3 30.9-34.6 25.4-59.4l-0.0488-0.221-0.0625-0.217c-5.9-20.7-22.9-37.7-43.6-43.6l-0.188-0.0527-0.189-0.043c-4.69-1.08-9.35-1.61-13.9-1.63zm-0.18 15c3.41 0.0556 6.92 0.483 10.5 1.29 15 4.37 28.6 17.9 33 32.9 4.21 19.4-6.56 36.5-22 45.3l-3.81 2.18v37.7c0 6-1.87 10.3-4.83 13.2s-7.21 4.83-13.2 4.83-10.3-1.87-13.2-4.83c-2.95-2.95-4.83-7.21-4.83-13.2v-37.3l-3.37-2.24c-13.7-9.16-22.2-22.2-22.2-37.2 0-25 19.7-43 44-42.6z"
        style="fill:#f05; paint-order:stroke markers fill;stroke-width:59.9;stroke:#fff;"/>
    </g>
  </g>
</svg>
