<?xml version="1.0" encoding="UTF-8"?>
<!-- Created with Inkscape (http://www.inkscape.org/) -->
<svg width="156mm" height="97.2mm" version="1.1" viewBox="0 0 156 97.2" xmlns="http://www.w3.org/2000/svg" xmlns:cc="http://creativecommons.org/ns#" xmlns:dc="http://purl.org/dc/elements/1.1/" xmlns:rdf="http://www.w3.org/1999/02/22-rdf-syntax-ns#">
  <metadata>
    <rdf:RDF>
      <cc:Work rdf:about="">
        <dc:format>image/svg+xml</dc:format>
        <dc:type rdf:resource="http://purl.org/dc/dcmitype/StillImage"/>
        <dc:title/>
      </cc:Work>
    </rdf:RDF>
  </metadata>
  <g transform="translate(1.66 -7.17)">
    <path transform="scale(.265)" d="m287 303-260 0.352-4 2.09c-6.2 3.24-9.82 9.14-10.3 16.8-0.288 4.52 0.0704 7.35 1.24 9.82 2.26 4.76 7.54 9.66 12.2 11.3 3.24 1.16 34.6 1.39 192 1.42 25.7 5e-3 48.5-6e-3 68.9-0.0293-1.26-2.18-2.28-4.5-3.08-6.96l-65.2-0.0215c-104-0.0349-191-0.436-192-0.891-4.3-1.78-8.5-8.35-8.5-13.3 0-3.7 3.84-10.2 7.23-12.3 3.23-1.95 5.74-1.98 193-1.98h65.5c0.628-2.08 1.45-4.2 2.43-6.35z" style="fill:#444444"/>
    <path d="m10.4 78.6c-0.103-0.103-0.186-11.9-0.185-26.3l3e-3 -26.1 0.621-1.33c0.694-1.49 1.87-2.61 3.52-3.34 1.02-0.455 1.86-0.485 11.5-0.421l58 0.0692v1.32l-57.9 0.132c-9.81 0.0224-10.4 0.159-11.4 0.685-0.582 0.304-1.42 1.06-1.85 1.68l-0.794 1.12-0.132 26.2c-0.132 26.2-0.134 26.2-0.672 26.3-0.297 0.0425-0.624-7e-3 -0.728-0.11z" style="fill:#444444;stroke-width:.265"/>
    <path d="m16.4 78.4c-0.0733-0.192-0.102-11.8-0.065-25.7l0.0682-25.4 9.95-0.0693c8.62-0.06 56-0.0156 56.3 0.331 0.265 0.319 0.266 0.48 3e-3 0.797-0.281 0.339-47.7 0.397-55.6 0.397h-9.23l-0.135 49.9-0.596 0.0847c-0.328 0.0466-0.656-0.0725-0.73-0.265z" style="fill:#444444;stroke-width:.265"/>
    <path d="m93.1 65.2c-0.738 0.079-4.98 2.76-6.84 4.33-10.9 9.15-11.1 22.4-0.449 27.2 4.05 1.83 10.5 2.74 18.4 2.6 4.76-0.0835 22.8-2.33 26.6-3.3 10.5-2.73 16.1-6.31 18-11.6 0.604-1.63 0.678-2.38 0.498-5.08-0.176-2.64-0.36-3.49-1.12-5.14-2.46-5.36-7.29-9.35-14.6-12.1-1.5-0.564-2.93-1-3.17-0.977-0.244 0.0261-1.13 1.1-1.96 2.4-0.834 1.29-2.34 3.12-3.34 4.07-6.06 5.7-14.1 7.45-21.7 4.68-2.95-1.08-6.75-3.68-8.71-5.97-0.652-0.759-1.32-1.22-1.69-1.18zm-0.27 2.19 1.26 1.25c5.71 5.68 12.4 7.86 20.2 6.64 6.01-0.934 10.5-3.67 14.7-8.85l2.42-3.04 2.46 1.01c8.5 3.48 13.7 9.47 13.7 15.9 0.0249 6.65-5.92 11.2-18.3 14-3.91 0.889-16.7 2.63-20.9 2.84-18.2 0.923-26.6-2.12-28.1-10.1-1.15-6.37 3.05-13.5 11-18.6z" style="fill:#ff0055;stroke-width:.317"/>
    <path d="m108 70.7c-6.28-1.29-12.7-6.3-16.3-12.8-1.19-2.13-1.28-2.71-0.487-3.12 0.703-0.36 0.964-0.112 2.4 2.28 3.91 6.54 9.53 10.8 15.5 11.7 8.15 1.26 16.3-5.29 19.6-15.7 0.678-2.14 0.928-2.56 1.55-2.62 1.07-0.115 1.24 0.538 0.652 2.53-2.3 7.76-7.66 14.3-13.8 16.8-2.24 0.929-6.83 1.37-9.17 0.892z" style="fill:#444444;stroke-width:.317"/>
    <path d="m97.2 36.8c-2.89 0.319-5.48 1-6.89 1.93-3.05 2-3.55 1.04-2.38 9.06 0.854 5.83 4.37 5.17 6.52 5.76 1.21 0.324 3.76 0.22 5.37 0.0151 3.17-0.456 5.38-1.62 7.66-4.03 2.03-2.15 2.43-2.26 4.19-1.21 0.808 0.485 1.94 1.17 2.53 1.51 1.99 1.19 3.91 1.61 6.77 1.47 2.59-0.119 2.86-0.196 4.75-1.34 2.23-1.35 5.94-2.58 5.67-6.62-0.345-5.24-0.677-7.31-3.99-8.59-2.71-1.04-9.48-0.541-14.2 1.05-2.56 0.864-6.46 1.28-9.13 0.97-2.2-0.254-4.63-0.228-6.88 0.02zm0.404 2.12c2.1-0.214 4.4-0.263 6.47-0.0873 4.35 0.368 5.7 0.223 9.87-1.07 4.19-1.29 10.4-1.87 12.5-1.15 1.54 0.541 2.84 1.73 3.05 3.33 1.19 6.68-0.776 6.16-5.83 8.79-2.99 1.55-6.59 0.678-10.3-1.77-3.2-2.12-4.53-1.88-7.73 1.42-0.863 0.888-2.19 1.9-2.94 2.26l6e-5 6.14e-4c-2.27 1.01-7.2 1.8-10.2 0.63-1.79-0.69-2.51-1.66-2.85-4.73-0.476-4.31-0.375-4.56 1.9-6.09 1.05-0.702 3.39-1.25 6.08-1.53z" style="fill:#ff0055;stroke-width:.317"/>
    <path d="m98.6 41.1c-3.05 0.333-5.84 2.38-5.59 4.71 0.169 1.6 1.72 2.9 4.2 3.51 0.27 0.0662 1.27 0.0454 2.22-0.047 5.7-0.55 7.28-6.2 2.21-7.88-0.972-0.322-2.02-0.401-3.03-0.289zm0.159 2c2.9-0.297 5.4 1.61 2.91 3.25-2.64 1.75-6.69 0.997-6.39-1.18 0.0792-0.566 0.5-0.992 1.46-1.48 0.655-0.334 1.35-0.52 2.01-0.588z" style="fill:#ff0055;stroke-width:.317"/>
    <path d="m120 38.7c-1.98 0.205-3.9 1.11-4.87 2.66-1.31 2.09 0.126 4.72 2.94 5.38 2.69 0.64 5.72-0.183 7.25-1.98 1.13-1.32 1.23-2.62 0.314-4-1.08-1.63-3.39-2.3-5.63-2.06zm0.123 2.1c3.1-0.35 4.97 1.42 3.21 3.03-1.36 1.24-4.06 1.48-5.77 0.515-2.03-1.14-0.541-3.19 2.56-3.54z" style="fill:#ff0055;stroke-width:.317"/>
    <path d="m104 12.4c-4.89 0.479-6.93 1.13-10.4 3.34-5.97 3.75-8.73 10.8-7.77 20 0.186 1.76 0.448 3.42 0.583 3.68 0.134 0.263 0.58 0.442 0.991 0.398 0.545-0.0583 0.878-0.417 1.23-1.33 0.659-1.7 2.33-3.59 4.29-4.86 1.33-0.865 2.16-1.14 4.46-1.5 2.65-0.41 3.01-0.387 5.85 0.374 4.42 1.18 7.39 1.42 12 0.941 4.48-0.467 7.52-1.48 10.5-3.53 2.11-1.43 4.65-4.75 5.43-7.09 0.587-1.75 1.09-5.46 0.941-6.94-0.111-1.11-0.993-1.71-1.65-1.12-1.29 1.14-2.89 2.02-4.21 2.31-1.57 0.352-1.67 0.322-9.65-2.94-4.48-1.83-7.26-2.2-12.6-1.68zm-1.05 2.17c0.604-0.063 1.28-0.119 2.06-0.174 5.29-0.371 7.63 0.104 13.7 2.79l4.58 2.01 2.37-0.262c1.3-0.144 2.81-0.429 3.35-0.633l0.976-0.371-0.248 1.62c-0.578 3.79-2.82 7.17-6.09 9.17-4.76 2.91-12.7 3.7-19.2 1.91-3.71-1.02-6.31-1.13-8.94-0.403-2.42 0.672-5.3 2.39-6.63 3.95l6e-5 6.15e-4c-0.497 0.584-1 1.07-1.12 1.08-0.329 0.0352-0.249-4.02 0.131-6.64 0.94-6.5 4.66-11 10.9-13.2 1.2-0.422 2.35-0.669 4.17-0.858z" style="fill:#444444;stroke-width:.317"/>
    <path d="m26.7 39.4h31" style="fill:none;stroke-linecap:round;stroke-width:1.5;stroke:#444444"/>
    <path d="m26.7 44.6h23.1" style="fill:none;stroke-linecap:round;stroke-width:1.5;stroke:#444444"/>
    <path d="m26.7 49.9h25.7" style="fill:none;stroke-linecap:round;stroke-width:1.5;stroke:#444444"/>
    <path d="m26.7 55.2h15.1" style="fill:none;stroke-linecap:round;stroke-width:1.5;stroke:#444444"/>
    <path d="m26.7 60.5h34.7" style="fill:none;stroke-linecap:round;stroke-width:1.5;stroke:#444444"/>
  </g>
</svg>
