<?xml version="1.0" encoding="UTF-8"?>
<!-- Created with Inkscape (http://www.inkscape.org/) -->
<svg width="172mm" height="202mm" version="1.1" viewBox="0 0 172 202" xmlns="http://www.w3.org/2000/svg" xmlns:cc="http://creativecommons.org/ns#" xmlns:dc="http://purl.org/dc/elements/1.1/" xmlns:rdf="http://www.w3.org/1999/02/22-rdf-syntax-ns#">
  <metadata>
    <rdf:RDF>
      <cc:Work rdf:about="">
        <dc:format>image/svg+xml</dc:format>
        <dc:type rdf:resource="http://purl.org/dc/dcmitype/StillImage"/>
        <dc:title/>
      </cc:Work>
    </rdf:RDF>
  </metadata>
  <g transform="translate(.99 -32.1)">
    <path d="m116 229c-6.93-1.29-12.2-7.62-12.2-14.7-5e-3 -2.25 0.821-5.45 1.89-7.35 1.28-2.25 3.97-4.82 6.28-5.98 6-3.02 12.5-1.98 17.3 2.74 3.13 3.12 4.47 6.32 4.46 10.6-6e-3 3.9-1.28 7.16-3.93 10-3.51 3.82-8.7 5.56-13.8 4.61zm5.69-6.93c1.87-0.636 4.35-3.17 4.95-5.08 1.31-4.13-0.398-8.25-4.21-10.1-1.53-0.752-2.05-0.873-3.66-0.859-2.27 0.0199-4.23 0.819-5.8 2.36-2.46 2.42-3.17 6.39-1.67 9.43 0.876 1.78 2.9 3.71 4.49 4.27 1.52 0.538 4.31 0.536 5.9-5e-3zm25-9.62c-2.65-0.695-4.34-1.66-6.56-3.77-3.09-2.92-4.6-6.42-4.6-10.6 0-4.2 1.41-7.62 4.37-10.6 2.98-3 6.24-4.34 10.6-4.34 4.22 0 7.52 1.34 10.4 4.23 6.03 5.97 6.04 15.2 0.0315 21.2-3.93 3.91-9.04 5.32-14.3 3.95zm7.03-6.87c1.85-0.818 3.08-1.96 4.06-3.76 0.815-1.5 0.903-1.87 0.899-3.78-3e-3 -1.59-0.144-2.42-0.566-3.34-0.769-1.68-2.31-3.31-3.91-4.15-1.16-0.611-1.66-0.705-3.72-0.707-1.98-2e-3 -2.58 0.101-3.57 0.615-7 3.63-6.01 13.4 1.57 15.6 1.5 0.423 3.7 0.235 5.24-0.449zm-147-8.96c-1.24-0.559-1.82-1.57-1.94-3.33-0.278-4.37-2.2-9.74 0.0643-14.6 1.8-3.89 5.51-6.51 5.49-9.04-8e-3 -1.67-0.222-2.62-1.35-5.98-2.17-6.44-2.51-8.38-2.52-14.3-0.0121-5.72 0.113-6.39 2.28-12.2 6.63-17.9 16.3-29.8 32-39.5 1.96-1.21 3.74-2.36 3.95-2.54 0.316-0.283 0.227-0.497-0.58-1.39-1.22-1.35-1.65-2.19-2.02-4-0.352-1.71-0.0694-3.65 0.772-5.3 0.544-1.07 2.49-3.17 2.94-3.17 0.595 0 0.041-0.889-2.31-3.7-4.28-5.13-8.26-11.5-10.1-16.2-0.882-2.2-1.06-4.24-0.513-6.05 0.463-1.54 2.05-3.42 3.67-4.33 1.32-0.744 1.66-0.819 3.7-0.805 1.88 0.0124 2.51 0.134 3.82 0.745 2.22 1.04 3.89 0.989 5.52-0.155 1.09-0.765 1.67-2.17 2.01-4.83 0.503-3.99 2.06-6.28 5.26-7.74 1.1-0.505 1.9-0.664 3.35-0.674 2.88-0.0186 4.2 0.698 8.12 4.41 5.12 4.86 5.94 4.85 11.3-0.059 3.85-3.53 4.8-4.07 7.47-4.22 2.44-0.141 4.4 0.51 6.13 2.04 1.68 1.48 2.52 3.21 2.94 6.02 0.412 2.79 1.01 3.96 2.45 4.77 1.38 0.783 2.81 0.757 5.05-0.0898 1.25-0.473 2.34-0.691 3.48-0.695 4.48-0.0132 8.15 4.04 7.63 8.43-0.488 4.15-6.52 14.3-12.5 21-1.07 1.21-1.46 2.07-0.916 2.07 0.544 0 2.52 2.28 3.13 3.61 0.571 1.25 0.649 1.74 0.569 3.61-0.103 2.41-0.686 3.87-2.17 5.43-0.996 1.05-1.38 0.659 3.79 3.92 11.4 7.17 18.4 14.1 24.6 24.4 2.01 3.33 5.05 9.44 5.05 10.2 0 0.715-4.4 16.8-4.89 17.9-0.495 1.09-1.83 1.91-3.1 1.92-1.6 2e-3 -2.44-1.01-5.5-6.72-1.53-2.85-2.88-5.18-3.01-5.18-0.133-2e-3 -0.133 2.62 0 6.15 0.128 3.38 0.232 7.2 0.232 8.49v2.34l-0.988 0.905c-0.804 0.737-1.2 0.905-2.12 0.905-0.625 0-1.43-0.195-1.79-0.433-0.36-0.238-3.3-3.06-6.53-6.27-3.23-3.21-5.94-5.78-6.02-5.7-0.0772 0.0771 0.99 4.08 2.37 8.89 1.38 4.81 2.51 9 2.51 9.32 0 0.72-0.581 1.86-1.26 2.48-0.941 0.851-2.12 0.804-7.9-0.318-3.07-0.596-5.66-1.08-5.75-1.08-0.438 0 1e-3 0.94 1.98 4.23 3.52 5.87 3.66 6.31 2.55 7.97-1.01 1.49-1.32 1.56-7.93 1.56-3.32 2e-3 -6.02 0.109-6.02 0.239 0 0.256 0.3 0.387 9.78 4.26 4.37 1.78 6.72 2.89 7.22 3.39 1.57 1.57 1.07 4.2-0.976 5.09-1.11 0.484-8.59 1.79-14.4 2.51-4.7 0.584-13.7 0.789-18 0.411-7.12-0.622-16.2-2.08-25.8-4.14-3.18-0.721-3.43-1.25-6.22-0.151-4.96 1.96-12 3.9-17.4 4.8-3.68 0.607-9.62 0.927-10.4 0.562zm9.56-7.18c5.56-0.95 11.3-2.59 17.2-4.93 3.21-1.65 5.22-0.365 8.73 0.382 16.9 3.6 28.2 4.81 37.5 4.03 4.34-0.364 5.16-0.537 4.59-0.97-0.195-0.149-4.7-2.03-10-4.19s-10.1-4.14-10.7-4.42c-1.88-0.95-2.54-2.97-1.52-4.64 1.03-1.69 0.864-1.67 14-1.67 8.54 0 11.9-0.0831 11.9-0.293 0-0.161-1.35-2.57-3-5.36-1.65-2.79-3.08-5.4-3.18-5.8-0.279-1.15 0.618-2.91 1.76-3.45 0.515-0.244 1.16-0.443 1.42-0.441 0.269 2e-3 3.47 0.588 7.1 1.3 3.64 0.716 6.71 1.21 6.83 1.09 0.118-0.115-1.4-5.83-3.37-12.7s-3.59-12.8-3.59-13.2c0-1.97 2.45-3.66 4.27-2.94 0.558 0.22 3.8 3.24 8.63 8.04 4.25 4.23 7.81 7.61 7.91 7.51 0.0962-0.0962-0.0384-5.21-0.299-11.4-0.521-12.3-0.534-12.1 1.02-13.3 0.988-0.731 2.8-0.743 3.76-0.0238 0.44 0.33 2.35 3.57 5.06 8.6 2.4 4.44 4.52 8.24 4.72 8.44 0.388 0.395 0.394 0.38 1.69-4.39l0.519-1.91-0.999-2.06c-3.05-6.3-7.13-12-12.3-17.2-4.14-4.14-8.21-7.3-13.6-10.6-1.92-1.16-5.06-3.1-6.97-4.3l-3.47-2.18h-37l-1.51 1.01c-0.829 0.558-3.65 2.3-6.27 3.87-9.65 5.79-14.9 10-20.1 16.3-4.51 5.4-9.09 13.6-12 21.5-1.72 4.63-2.1 6.46-2.11 10-6e-3 3.68 0.704 7.32 2.38 12.2 2.53 7.39 4.57 9.17-0.285 14.6-4.08 4.57-4.22 13.8-3.14 13.8 1.08-0.0592 0.851 0.179 4.39-0.425zm81.6-100c0.635-0.575 0.615-1.55-0.0453-2.21-0.521-0.521-0.882-0.529-24.3-0.529-26.2 0-24.9-0.0782-24.9 1.58 0 1.69-1.58 1.59 24.8 1.59 21.9 0 24-0.0372 24.5-0.438zm-38.9-9.86c0-0.278-0.476-2.27-1.06-4.42-1.21-4.47-1.26-5.18-0.522-6.4 1.32-2.17 4.56-2 5.63 0.296 0.218 0.464 0.961 2.99 1.65 5.61 0.691 2.62 1.37 4.91 1.51 5.09 0.16 0.208 0.931 0.331 2.07 0.331h1.82l0.0149-8.67c0.0165-9.58 0.0924-10.1 1.55-11.1 1.56-1.05 3.63-0.652 4.68 0.903 0.465 0.686 0.508 1.42 0.584 9.8l0.082 9.06h1.83c1.47 0 1.87-0.0904 2.07-0.463 0.135-0.255 0.798-2.55 1.47-5.09 1.5-5.65 1.62-5.97 2.55-6.62 1.63-1.16 3.75-0.784 4.74 0.853 0.742 1.22 0.684 1.93-0.518 6.3-1.46 5.32-1.52 5.03 1.02 5.03h2.09l2.93-3.04c4.67-4.86 8.62-10.4 11.4-16 1.35-2.71 1.6-3.48 1.27-4.06-0.332-0.594-0.764-0.559-3.11 0.249-1.74 0.601-2.33 0.677-4.54 0.588-2.21-0.0886-2.77-0.213-4.26-0.95-3.57-1.76-5.77-4.92-6.37-9.16-0.289-2.04-0.426-2.42-1.04-2.88-0.48-0.357-0.917-0.471-1.37-0.357-0.366 0.092-2.06 1.47-3.77 3.06-3.14 2.92-4.82 4-7.02 4.5-2.52 0.581-5.5 0.183-7.95-1.06-0.53-0.27-2.44-1.86-4.23-3.54-2.73-2.54-3.41-3.05-4.11-3.05-1.22-0.0099-1.83 0.906-2.07 3.09-0.43 4.02-2.04 7.07-4.69 8.9-3.69 2.54-7.41 2.87-11.7 1.02-1.7-0.737-2.36-0.626-2.52 0.421-0.117 0.785 2.87 6.53 5.16 9.92 2.54 3.76 4.64 6.34 7.86 9.64l2.65 2.71h2.07c1.86 0 2.07-0.0512 2.07-0.505zm58.9 115c-5.15-1.06-9.56-4.96-11.3-9.99-0.806-2.34-0.864-6.84-0.116-9.05 1.74-5.15 5.64-8.88 10.6-10.2 1.82-0.474 5.06-0.526 7.05-0.114 5.37 1.11 10.1 5.91 11.3 11.4 0.474 2.18 0.204 6.31-0.543 8.29-2.26 6.01-7.99 9.99-14.2 9.89-0.975-0.0159-2.25-0.127-2.83-0.246zm6.59-7.24c1.58-0.774 2.99-2.18 3.91-3.91 0.501-0.942 0.605-1.54 0.604-3.52-5.3e-4 -2.07-0.093-2.56-0.703-3.7-2.62-4.94-8.87-6.14-13-2.5-1.8 1.58-2.67 3.57-2.68 6.09-6e-3 1.79 0.0974 2.22 0.919 3.83 2.08 4.08 6.88 5.71 11 3.71z" style="fill-opacity:.941;fill:#44444f;stroke-width:.265"/>
    <g transform="matrix(.751 0 -.204 .717 35.1 -225)" style="fill:#000000" aria-label="€">
      <path d="m148 508q0-0.141 0.0937-0.469 0.141-0.375 0.281-0.516l0.234-0.141q0.141-0.141 0.469-0.234 0.328-0.141 0.469-0.141h2.91q-0.0937-0.938-0.188-2.06-0.0469-1.12-0.0469-2.06 0-1.22 0.0937-2.44t0.281-2.3h-3.05l-0.188-0.0937q-0.516 0-0.938-0.422-0.422-0.422-0.422-0.984v-1.17q0-0.141 0.0937-0.516 0.141-0.375 0.281-0.516l0.234-0.141q0.141-0.141 0.469-0.234 0.328-0.141 0.469-0.141h4.17q0-0.0469 0-0.0469 0.0469 0 0.0469-0.0469v0.0937q0-0.188 0.0469-0.328 0.0937-0.141 0.141-0.281v-0.141q1.45-3.56 3.56-6.52 2.11-3 4.83-5.16 2.77-2.16 6.14-3.33 3.38-1.22 7.36-1.22 2.02 0 4.17 0.469 2.16 0.422 4.22 1.27 2.06 0.797 3.89 2.02 1.88 1.17 3.23 2.72v-0.0469q0.0469 0.0469 0.188 0.281 0.188 0.234 0.328 0.516 0.141 0.281 0.234 0.609 0.141 0.281 0.141 0.469 0 0.797-0.562 1.45-0.516 0.609-1.45 0.609-0.469 0-1.03-0.328-0.562-0.375-1.22-0.891-0.844-0.656-2.11-1.5-1.27-0.844-2.81-1.59-1.55-0.797-3.38-1.31-1.83-0.516-3.84-0.516-3.28 0-5.95 0.984-2.67 0.938-4.83 2.62-2.11 1.69-3.8 4.03t-2.95 5.11h27.6q0.141 0 0.516 0.141 0.375 0.0937 0.516 0.234l0.188 0.141q0.0937 0.188 0.188 0.562 0.141 0.375 0.141 0.469v1.17q0 0.562-0.375 0.984-0.328 0.422-0.938 0.422l-0.234 0.0937h-29.1q-0.234 1.22-0.281 2.39-0.0469 1.12-0.0469 2.34 0 1.03 0.0469 2.06 0.0469 0.984 0.281 2.06h24.2q0.141 0 0.516 0.141 0.375 0.0937 0.469 0.234l0.188 0.141q0.141 0.141 0.234 0.516 0.141 0.328 0.141 0.469v1.22q0 0.141-0.141 0.516-0.0937 0.375-0.234 0.516l-0.188 0.141q-0.0937 0.141-0.469 0.234-0.375 0.0937-0.516 0.0937h-23q1.12 2.81 2.86 5.25 1.78 2.39 4.03 4.17 2.3 1.78 5.02 2.81 2.77 0.984 5.86 0.984 3.52 0 6.66-1.22 3.19-1.27 5.72-3.75h-0.0469q0.281-0.281 0.609-0.469 0.328-0.234 1.27-0.516 1.17 0.0937 1.64 0.703 0.469 0.609 0.469 1.45 0 0.516-0.188 0.844-0.141 0.328-0.469 0.703-1.36 1.5-3.28 2.72-1.88 1.22-3.98 2.06-2.11 0.844-4.31 1.31-2.16 0.469-4.08 0.469-3.66 0-7.03-1.31-3.33-1.31-6.14-3.52-2.81-2.25-5.02-5.16-2.2-2.91-3.61-6.09-0.141-0.234-0.281-0.609-0.141-0.422-0.281-0.844h-3.94q-0.141 0-0.469-0.0937-0.328-0.0937-0.469-0.234l-0.234-0.141q-0.141-0.141-0.281-0.516-0.0937-0.375-0.0937-0.516z" style="fill:#444444;stroke-width:3.78;stroke:#444444"/>
    </g>
    <path transform="scale(.265)" d="m199 337c-12.7-0.561-13.6-0.92-13.6-5.39 0-3.41 0.81-4.01 6.61-4.86 5.01-0.733 170-0.928 175-0.207 3.89 0.554 5.85 2.33 5.85 5.29 0 2.63-1.26 4.11-4.06 4.75-2.67 0.611-157 0.986-170 0.414z" style="fill:#ff0055;paint-order:stroke markers fill;stroke-linecap:round;stroke-linejoin:round;stroke-width:1.91;stroke:#444444"/>
    <path d="m118 188c-6.36-2.54-7.62-11.4-2.22-15.7 4.4-3.46 8.42-3.47 12.1-0.0444 7.49 6.97-0.393 19.5-9.88 15.7z" style="fill:#ff0055;paint-order:stroke markers fill"/>
    <path d="m145 204c-3.22-3-3.56-8.25-0.792-12.2 2.74-3.92 10.9-3.92 13.6 0 6.36 9.08-4.81 19.7-12.8 12.2z" style="fill:#ff0055;paint-order:stroke markers fill"/>
    <path d="m113 220c-3.3-3.51-3.34-6.86-0.123-10.9 4.8-6.1 14.8-2.67 14.8 5.08 0 8.05-9.21 11.7-14.7 5.87z" style="fill:#ff0055;paint-order:stroke markers fill"/>
  </g>
</svg>
