<svg width="173mm" height="138mm" version="1.1" viewBox="0 0 173 138" xmlns="http://www.w3.org/2000/svg">
  <g transform="translate(229 -83)">
    <path transform="scale(.265)" d="m-320 531c-24.2 0.0168-48.4 0.563-50.4 1.62-5.87 3.14-5.57 133-5.57 133v126h-31.2c0.137-0.696 0.217-1.42 0.217-2.18v-131c0-4.57-2.66-8.24-5.97-8.24h-99.5c-3.31 0-5.97 3.68-5.97 8.24v131c0 0.758 0.0795 1.49 0.217 2.18h-35.8v-179l-3.02-3.02c-2.02-2.02-4.42-3.22-7.25-3.63-2.33-0.339-24.5-0.478-49.2-0.309-49.4 0.338-48 0.166-51 6.45-1.3 2.73-1.5 15-1.5 91.3v88.1h-38v-104l-3.04-3.04c-1.67-1.67-4.48-3.3-6.25-3.63-1.77-0.326-23.9-0.455-49.2-0.289-50.5 0.331-49 0.15-52 6.44-1.27 2.68-1.5 10.9-1.5 53.8v50.6h-8.88c-11.5 0-14.3 0.611-18 4.04-2.62 2.39-3.11 3.57-3.11 7.46 0 3.91 0.487 5.06 3.17 7.51 1.74 1.59 4.11 3.08 5.25 3.31 1.84 0.364 180 0.545 341 0.531-1.4e-4 -3e-3 1.5e-4 -9e-3 0-0.0117h67.4c104-0.0488 187-0.192 188-0.439 1.66-0.332 4.41-1.88 6.12-3.44 2.62-2.39 3.11-3.57 3.11-7.46s-0.489-5.06-3.11-7.45c-3.82-3.49-6.44-4.05-19-4.05h-9.88v-126c0-137 0.304-130-5.7-134-1.98-1.06-26.2-1.57-50.4-1.56zm-33.9 22.6 67.5 0.527 0.256 119 0.254 119h-18c-9.9 0-18-0.139-18-0.309s2.29-2.68 5.09-5.59c6.45-6.69 8.17-10.6 6.83-15.4-1.3-4.72-5.51-7.68-10.9-7.68-4.05 0-4.69 0.485-17.9 13.5-7.54 7.42-14 13.5-14.4 13.5s-0.68-12.9-0.68-28.7v-28.7l22-22.1c21.9-22 22.6-23 22.2-29-0.602-7.48-9.02-11.7-16-8.07-1.49 0.787-8.09 6.86-14.7 13.5-6.59 6.64-12.3 12.1-12.8 12.1-0.421 0-0.753-13.6-0.738-30.2l0.0273-30.2 20.6-20.5c11.3-11.3 21.3-21.5 22.1-22.7 1.97-2.97 1.88-8.71-0.197-11.9-0.923-1.41-3.16-3.18-4.96-3.93-5.89-2.46-8.82-0.736-23 13.5-7.14 7.16-13.3 13-13.8 13-0.421 0-0.766-26-0.766-26zm-290 75h68v163h-59.4l18.6-18.8c20.3-20.5 21.4-22.2 18.3-28.7-1.9-4-5.84-6.5-10.2-6.5-3.93 0-8.59 3.65-22.2 17.4-6.32 6.38-11.8 11.6-12.2 11.6-0.422 0-0.768-12.2-0.768-27.2v-27.2l22.9-23c24.9-25.1 25.7-26.4 22.5-33.2-2.73-5.75-9.47-7.94-15.2-4.92-1.49 0.787-8.54 7.31-15.7 14.5-7.14 7.19-13.3 13.1-13.8 13.1-0.421 0-0.766-11.2-0.766-25zm147 44.6 67.5 0.525 0.252 118h-67.7c-3e-3 -1.21-0.0109-2.35-0.01-3.59l0.0254-30.2 20.6-20.5c11.3-11.3 21.3-21.5 22.1-22.7 1.97-2.97 1.88-8.71-0.197-11.9-0.923-1.41-3.16-3.18-4.96-3.93-5.89-2.46-8.82-0.736-23 13.5-7.14 7.16-13.3 13-13.8 13-0.421 0-0.766-11.7-0.766-26zm-229 30.3v88h-67.6l0.109-2.53c0.0827-1.89 5.72-8.17 22.3-24.8 22-22.2 22.8-23.2 22.3-29.1-0.43-5.34-5.22-9.5-11-9.5-3.9 0-8.6 3.66-21.7 16.9-6.04 6.11-11.2 11.1-11.5 11.1-0.284 2.6e-4 -0.412-11.1-0.283-24.8l0.234-24.8 33.5-0.264z" style="fill:#444;"/>
    <path d="m-93.2 88c-1.6-0.0155-2.83 1.2-2.83 2.97 0 1.62 0.93 2.4 4.3 3.6 1.56 0.556 2.84 1.08 2.84 1.17l0.0212 0.0558a3 3 0 0 0-0.844 0.294l-60.1 30.8-11.3-10.6a3 3 0 0 0-3.38-0.498l-47.1 23.4a3 3 0 1 0 2.67 5.38l45.2-22.4 11.3 10.6a3 3 0 0 0 3.42 0.481l62-31.8a3 3 0 0 0 0.214-0.12l0.128 0.335c0.0612 0.0612-0.244 1.06-0.678 2.21-1.28 3.41-1.38 3.94-0.945 4.98 0.964 2.31 4.16 2.44 5.28 0.226 0.201-0.399 1.29-3.28 2.43-6.41 1.13-3.13 2.16-5.73 2.29-5.78s0.225-0.677 0.225-1.4c0-2.07-0.529-2.42-7.49-4.97-3.29-1.21-6.43-2.29-6.97-2.42-0.242-0.0546-0.478-0.082-0.707-0.0842z" style="fill:#ff0055;"/>
    <path d="m-222 209c-4 0-4 6.53 0 6.53h159c4 0 4-6.53 0-6.53z" style="fill:#ff0055;"/>
  </g>
</svg>
