<?xml version="1.0" encoding="UTF-8"?>
<!-- Created with Inkscape (http://www.inkscape.org/) -->
<svg width="396mm" height="381mm" version="1.1" viewBox="0 0 396 381" xmlns="http://www.w3.org/2000/svg" xmlns:cc="http://creativecommons.org/ns#" xmlns:dc="http://purl.org/dc/elements/1.1/" xmlns:rdf="http://www.w3.org/1999/02/22-rdf-syntax-ns#">
  <metadata>
    <rdf:RDF>
      <cc:Work rdf:about="">
        <dc:format>image/svg+xml</dc:format>
        <dc:type rdf:resource="http://purl.org/dc/dcmitype/StillImage"/>
        <dc:title/>
      </cc:Work>
    </rdf:RDF>
  </metadata>
  <g transform="translate(670 57.5)">
    <g transform="translate(-568 -.541)">
      <path d="m-69.7 318c0-0.448-0.68-0.815-1.51-0.815-2.24 0-5.82-3.69-5.82-6 0-2.53 3.7-5.72 9.73-8.38 5.6-2.48 8.3-5 12-11.3 3.62-6.07 7.82-10.6 11.1-11.9 1.39-0.567 3.47-2.02 4.62-3.23 1.15-1.21 3.63-2.66 5.52-3.23l3.43-1.03-0.451-22.1-3.26-0.197c-20-1.21-37-5.72-43-11.4-2.94-2.81-3.07-7.22-0.307-10.2 2.12-2.28 6.49-4.69 11.4-6.28l3.16-1.02-0.491-4.18c-0.27-2.3-1.57-7.37-2.88-11.3-1.32-3.89-3.02-11.2-3.8-16.3-0.773-5.07-1.66-9.91-1.96-10.8-0.354-0.98-2.18-2.04-4.98-2.88-3.75-1.13-4.42-1.63-4.42-3.29 0-1.76-0.764-2.19-7.53-4.27l-7.53-2.32v-4.45c0-2.45 0.367-4.45 0.815-4.45s0.815-0.537 0.815-1.19 0.623-2.5 1.38-4.1c1.72-3.6 4.02-4.27 9.99-2.89 9.16 2.12 7.43 4.89 16.4-26.3 7.38-25.5 8.24-27.9 11.6-32.6 9.02-12.6 23.3-21.6 40.6-25.6 3.47-0.789 6.31-1.71 6.31-2.05 0-0.339-1.69-2.91-3.75-5.71-7.69-10.4-11.7-20.9-13.4-34.7-1.08-8.91-0.369-18.5 2.09-28.2 1.83-7.22 8.72-20.5 13.5-26.1 7.47-8.64 17.9-15.8 25.2-17.2 1.35-0.27 2.46-0.812 2.46-1.2s4.95-0.713 11-0.713c6.79 0 11 0.312 11 0.815 0 0.448 0.797 0.815 1.77 0.815 4.06 0 13.9 5.99 21.1 12.8 5.33 5.08 7.66 6.76 9.32 6.76 1.44 0 3.2 0.985 5.03 2.82 2.44 2.44 2.69 3.05 1.89 4.55-0.752 1.41-0.582 2.54 0.89 5.94 1.31 3.03 1.93 6.39 2.21 12l0.388 7.84 4.39 0.453c13.4 1.38 16.6 14.4 4.91 20-1.93 0.934-4.82 1.7-6.41 1.7-3.6 0-4.09 0.643-5.96 7.74-3.47 13.2-12.8 27.1-23.3 34.8-3.1 2.26-5.63 4.34-5.63 4.62 7.98e-4 0.281 1.74 1.61 3.87 2.95 9.44 5.95 18.9 18.7 20.3 27.4 0.352 2.2 0.908 3.13 1.89 3.13 2.07 0 29.5-10.4 30.6-11.6 0.519-0.569 5.05-22.8 10.1-49.4 5.01-26.6 9.31-48.7 9.56-49.1 0.244-0.395 1.98-0.487 3.86-0.205l3.42 0.512 1.66-5.16c1.77-5.48 2.14-5.7 7.05-4.37 2.16 0.589 2.35 0.385 5.07-5.59 1.55-3.41 3.15-6.2 3.55-6.2 0.401 0 11.9 5.34 25.5 11.9 61 29.3 110 52.4 111 52.9 1.81 0.535 2.68 3.69 1.02 3.69-0.448 0-0.815 0.46-0.815 1.02 0 0.562-13 29.8-28.9 64.9-15.9 35.1-29.1 64.5-29.4 65.4-0.463 1.46 0.395 1.52 21.1 1.52 18.1 0 21.8 0.197 22.8 1.22 0.682 0.682 2.67 1.22 4.51 1.22 4.35 0 4.97 1.32 4.97 10.6 0 9.43-0.58 10.6-5.32 10.6h-3.63l-0.418 119-85.5 0.207c-67.8 0.165-85.6-3e-3 -86.1-0.815-0.357-0.562-0.654-11.2-0.661-23.6-7e-3 -12.4-0.287-22.6-0.623-22.6-0.336 6e-3 -4.28 4.03-8.76 8.95-4.49 4.93-8.8 8.94-9.6 8.95-0.798 6e-3 -1.65 0.53-1.89 1.16-0.243 0.634-1.91 2.17-3.7 3.41-3.76 2.61-4.37 2.19-5.24-3.55-0.497-3.29-0.662-3.46-3.28-3.46-1.52 0-2.76 0.363-2.76 0.806 0 1.18-8.69 6.75-9.9 6.35-0.569-0.19-1.41-2.14-1.88-4.32-0.69-3.25-1.22-4.07-2.88-4.46-1.93-0.451-2.37-1.76-8.31-24.8-3.45-13.4-6.63-24.7-7.08-25.1-0.539-0.539-2.22 0.454-5 2.96-3.35 3.01-5.69 4.25-11.7 6.17-7.1 2.27-22.5 4.96-28.5 4.96-1.74 0-2.92 0.467-3.23 1.29-0.982 2.56-0.545 19.7 0.524 20.5 0.56 0.424 2.66 1.24 4.67 1.82 2.06 0.59 4.73 2.18 6.11 3.63 1.35 1.42 3.74 3.37 5.32 4.34 3.17 1.95 4.97 4.17 8.75 10.8 3.31 5.84 5.52 7.83 13 11.8 7.36 3.87 9.88 6.72 8.54 9.66-0.492 1.08-2.02 2.46-3.4 3.07-1.38 0.61-2.5 1.39-2.5 1.72s-2.38 0.616-5.29 0.616c-2.99 0-5.29-0.355-5.29-0.815 0-0.448-0.564-0.815-1.25-0.815-4.06 0-13.9-7.89-18.5-14.9-4.14-6.22-7.91-10.8-8.91-10.8-0.481 0-1.32 2.21-1.87 4.9-2.08 10.2-4.11 12.6-10.6 12.6-3.42 0-6.06-2.39-6.06-5.5 0-1.23 0.733-4.81 1.63-7.94 1.92-6.73 1.99-7.74 0.525-7.74-1.51 0-8.44 7.48-12.5 13.5-5.24 7.73-15.1 15.8-19.3 15.8-0.69 0-1.25 0.367-1.25 0.815 0 0.448-2.02 0.815-4.48 0.815s-4.48-0.367-4.48-0.815zm340-60.7v-58.2h-25.6c-19.6 0-25.8 0.239-26.3 1.02-0.359 0.56-2.18 4.31-4.04 8.34-1.87 4.03-3.88 7.62-4.49 7.99-0.663 0.405-15.7-2.89-38.1-8.34l-37-9.01h-29.1v57.7c0 31.7 0.244 57.9 0.543 58.2 0.299 0.299 37.3 0.543 82.3 0.543h81.7zm-329 55.4c5.59-2.34 10.9-7.05 15.9-14.1 2.73-3.87 6.23-8.38 7.79-10 1.77-1.85 2.5-3.17 1.94-3.51-0.489-0.302-0.888-1.12-0.888-1.82 0-1.07 0.734-1.18 4.59-0.694 5.59 0.698 14.9 0.662 18.8-0.0733 2.85-0.536 2.88-0.517 2.39 1.91-0.392 1.96-0.0698 2.84 1.6 4.39 1.15 1.06 4.13 4.82 6.62 8.36 8.14 11.6 15.4 16.8 23.2 16.8 4.06 0 7.12-1.07 7.12-2.48 0-0.439-3.01-2.27-6.7-4.07-8.28-4.05-9.54-5.22-14.6-13.6-4.48-7.42-6.88-9.72-10.9-10.5-2.18-0.409-2.77-0.942-2.97-2.67-0.252-2.17-1.16-2.63-9.62-4.9-1.95-0.522-2.05-0.855-2.26-7.45-0.294-9.29-0.24-9.2-4.43-7.33l-3.5 1.56-0.407 6.27c-0.445 6.86-0.449 6.86-6.49 8.63-2.78 0.814-3.75 1.54-4.11 3.09-0.366 1.57-1.14 2.14-3.42 2.51-4.61 0.75-6.71 2.63-11.2 10-4.92 8.14-7.52 10.6-15.4 14.3-3.23 1.54-5.87 3.3-5.87 3.9 0 2.58 7.89 3.48 12.7 1.45zm40.7-10.6c1.88-4.51 1.56-5.89-1.47-6.37-3.43-0.539-4.54 0.607-5.19 5.34l-0.528 3.85h3c2.66 0 3.14-0.326 4.18-2.82zm117-43.6 3.38-2.45v-57h-2.69c-3.65 0-4.64-1.26-4.64-5.88 0-3.44-0.253-4.03-2.04-4.7-1.12-0.426-2.04-1.26-2.04-1.85s1.83-10.6 4.06-22.2c4.49-23.3 4.46-23.2 3.18-23.2-1.33 0-31.4 12.2-32.8 13.3-1.06 0.849-12.8 39.6-12.8 42.3 0 1.23 6.28 2.19 14.3 2.19 3.44 0 4.8 0.422 6.82 2.12 4.37 3.68 6.29 8.34 11.8 28.8 7.27 26.8 8.52 31 9.29 31 0.362 0 2.18-1.1 4.04-2.45zm-102-13.9c10.7-1.07 22.2-3.86 27.9-6.78 5.19-2.63 5.44-4.24 0.742-4.75-2.8-0.3-3.85-0.0126-5.5 1.5-5.93 5.45-43 9.51-65.2 7.14-14.3-1.53-27.7-5.82-27.7-8.87 0-1.73 4.21-1.53 10.6 0.5 15.8 5.03 47.1 5.34 69.2 0.692 4.06-0.855 7.38-2.4 5.15-2.4-0.48 0-14.9-1.45-32.1-3.23-29.2-3.03-31.3-3.35-33-5.09-1.58-1.6-2.36-5.12-5.72-25.7-2.75-16.8-4.2-23.8-4.94-23.8-0.576 0-1.05 0.275-1.05 0.611-0.0038 0.336 1.69 11.1 3.77 24 2.08 12.8 3.57 23.9 3.32 24.6-0.251 0.655-2.41 1.83-4.79 2.61-6.55 2.14-10 4.12-11 6.22-1.23 2.75-0.601 3.75 3.82 5.98 6.22 3.15 16.5 5.57 30.5 7.2 5.84 0.677 27.7 0.453 35.9-0.367zm213-34.7c4.32-8.97 75.4-167 75.4-167 0-0.83-1.15-1.21-17.1-5.64-6.5-1.81-40.2-11.2-74.8-20.9-34.7-9.66-63.2-17.4-63.5-17.1-0.307 0.307-19.4 99.4-19.7 102-5e-3 0.0542 2.28 0.345 5.08 0.646 2.8 0.301 6.23 0.91 7.62 1.35 1.39 0.443 3.78 0.92 5.29 1.06 3.19 0.296 104 20.9 105 21.4 0.256 0.234-2.35 6.84-2.69 6.83-0.332-2e-3 -14.8-3.07-27-5.71-28.7-6.25-56.8-12.2-57.5-12.2-0.366 0-0.595 1.56-0.51 3.46l0.154 3.46-7.9 0.503 3.07 2.65c4.47 3.86 4.13 8.89-0.719 10.5-0.462 0.154-0.0137 1.4 0.996 2.76 1.17 1.58 1.74 3.34 1.57 4.84-0.23 2.02-0.667 2.4-3 2.62-2.05 0.196-3.83-0.464-7.11-2.65-2.41-1.6-4.6-2.91-4.88-2.91s-1.43 0.733-2.57 1.63c-2.89 2.27-4.72 2.05-9.07-1.11-6.54-4.74-7.08-4.89-10.1-2.79-1.46 1.02-2.71 1.86-2.78 1.86-0.409 8e-3 -8.48 44.6-8.21 45.4 0.244 0.732 109 27.9 113 28.2 0.477 0.038 1.53-1.31 2.34-2.99zm-25.6-18.1c-7.84-1.68-28.1-5.91-45-9.4-21.9-4.52-30.7-6.67-30.7-7.44 0-0.596 0.517-1.08 1.15-1.08 1.68 0 91.8 18.7 92.6 19.2 1.21 0.747-0.104 1.97-2 1.86-0.982-0.0554-8.2-1.47-16-3.15zm-28.7-12.2c-24.5-4.83-45.2-9.01-46-9.3-0.99-0.38-1.12-0.773-0.482-1.41 0.641-0.641 14 1.65 48 8.23 25.9 5.02 47.4 9.3 47.7 9.52 1.52 0.936 0.44 1.92-2 1.84-1.46-0.0493-22.7-4.04-47.2-8.87zm1.4-3.96c-25.1-5.22-46-9.76-46.6-10.1-0.698-0.458-0.627-1.25 0.273-3.05 0.941-1.89 1.62-2.34 2.99-2 0.975 0.238 23.1 4.38 49.2 9.21s47.7 9.04 48 9.36c1.58 1.58-1.44 1.94-7.05 0.857-24.2-4.7-73-13.3-74.1-13.1-1.37 0.282 0.94 0.778 44.7 9.62 15.9 3.21 29.4 6.2 29.9 6.65 1.15 0.927 0.606 2.3-0.854 2.17-0.534-0.0472-21.5-4.35-46.6-9.57zm-29.1-9.57c-0.271-0.271-0.973-0.3-1.56-0.0643-0.65 0.26-0.457 0.453 0.492 0.492 0.859 0.0353 1.34-0.157 1.07-0.428zm22.8-3.55c-4.83-0.765-9.13-1.74-9.56-2.16-0.741-0.741 8.8-37.9 10-39.1 0.735-0.735 21.5 2.99 23 4.14 1.08 0.786 0.591 3.19-3.79 18.8-2.76 9.84-5.39 18.4-5.84 18.9-1.01 1.25-2.75 1.18-13.9-0.585zm11.6-2.67c2e-3 -0.112 2-7.17 4.44-15.7 2.44-8.51 4.18-15.7 3.86-16-0.872-0.872-16.4-3.47-17-2.84-0.76 0.76-8.41 29.1-8.43 31.2-0.0116 1.53 0.658 1.84 5.48 2.54 5.39 0.783 11.6 1.22 11.6 0.817zm40.7-9.55c-7.39-1.23-16.1-2.69-19.3-3.24-4.07-0.687-5.91-1.36-5.91-2.15 0-0.632 0.737-1.15 1.64-1.15 2.86 0 38.2 5.93 41.7 7.01 2.54 0.769 1.51 1.95-1.63 1.86-1.68-0.0514-9.1-1.1-16.5-2.33zm-2.85-8.04c-15.9-2.95-20.4-4.06-20.4-5.01 0-1.65 0.361-1.61 23.2 2.44 19.3 3.42 22.5 4.27 21.5 5.8-0.674 1.09-2.36 0.867-24.4-3.23zm2.89-6.73c-18.8-3.76-22.3-4.79-20.9-6.16 0.914-0.914 44.8 8.13 45.1 9.31 0.507 1.58-2.53 1.18-24.2-3.15zm9.54-23.9c-12.4-2.78-22.8-5.31-23.2-5.63-2.07-2.07 2.69-1.64 17.2 1.57 31 6.84 31.4 6.93 31.4 8.14 0 1.61-0.168 1.58-25.4-4.08zm1.24-4.84c-21-4.73-25.2-6.08-23.1-7.39 0.727-0.449 34.8 6.54 45.9 9.41 3.36 0.871 4.3 3.24 1.22 3.08-1.01-0.0533-11.8-2.34-24-5.09zm-58.7-6.15c-12.7-3.04-23.3-5.8-23.6-6.12-0.747-0.747 4.37-25.7 5.51-26.8 0.599-0.599 8.13 0.583 25.1 3.93 13.3 2.63 25 5.09 26 5.46 1.01 0.368 1.81 1.32 1.78 2.11s-1.78 7.13-3.89 14.1c-3.56 11.7-3.99 12.6-5.86 12.8-1.11 0.0836-12.4-2.34-25-5.38zm28.7-8.91c1.65-5.54 2.88-10.7 2.75-11.4-0.195-1.01-5.32-2.31-23.5-5.95-14.7-2.96-23.5-4.37-24-3.88-1.09 1.05-5.32 21.3-4.61 22.1 0.312 0.326 10.5 2.94 22.5 5.8 16.2 3.84 22.2 4.97 22.9 4.29 0.504-0.501 2.26-5.44 3.91-11zm-14.2-0.32c-1.11-0.571-2.57-2.04-3.26-3.27-1.12-2-1.12-2.46 5e-3 -4.47 0.688-1.23 2.26-2.72 3.49-3.31 1.93-0.928 2.65-0.873 5.26 0.407 2.67 1.3 3.06 1.88 3.27 4.78 0.174 2.37-0.171 3.67-1.22 4.62-2.13 1.92-5.24 2.43-7.55 1.24zm-26.6-1.04c-4.07-2.08-5.32-5.98-3.22-10 3.13-6.04 13.8-5.39 15.9 0.972 2.3 6.97-5.65 12.7-12.7 9.07zm71.6 10.8c-15.7-3.49-22.2-5.25-22.2-6.04 0-0.608 0.641-1.09 1.43-1.07 3.91 0.0933 46.9 10.3 47.2 11.2 0.564 1.69-3.11 1.13-26.5-4.06zm1.49-4.99c-13.2-2.97-22.5-5.42-22.7-6.02-0.208-0.624 0.396-1.01 1.56-0.992 4.11 0.056 47.4 10.2 47.7 11.2 0.55 1.68-3.05 1.12-26.6-4.16zm1.63-4.87c-13.2-2.96-22.5-5.44-22.7-6.04-0.54-1.62 1.37-1.32 25.7 3.98 16.3 3.57 23 5.34 23 6.12 0 1.67-1.81 1.38-26-4.06zm9.71-3.47c-8.74-1.96-19.3-4.33-23.4-5.26-5.16-1.17-7.53-2.07-7.53-2.86 0-0.635 0.285-1.15 0.634-1.15 0.805 0 44.9 9.66 46.9 10.3 1.47 0.454 1.55 2.11 0.108 2.41-0.42 0.0868-7.91-1.44-16.6-3.4zm-270 86.5c0.734-0.885 0.524-2.19-0.939-5.83l-1.89-4.69-20.6-6.02c-15.6-4.56-20.9-5.8-21.7-5.11-1.73 1.44-3.82 8.3-2.82 9.3 0.858 0.858 43.3 13.3 45.7 13.4 0.729 0.032 1.75-0.455 2.27-1.08zm183-33.2c0-1.05-6.31-7.44-10.5-10.6-1.96-1.5-2.61-2.51-2.23-3.5 0.706-1.84 3.78-1.09 8.59 2.09 2.76 1.82 3.85 2.16 4.69 1.46 1.78-1.48-0.525-3.4-14.1-11.8-1.11-0.689-1.27-1.18-0.607-1.88 0.682-0.715 2.73-0.627 8.44 0.364 4.15 0.72 7.77 1.07 8.06 0.779 0.874-0.896-5.34-5.72-10.9-8.45-6.22-3.06-16-5.28-19.9-4.53-5.15 0.967-6.98 2.49-9.36 7.78-4.18 9.31-1.81 14.8 8.82 20.4 2.74 1.44 6.24 3.55 7.77 4.68l2.78 2.07 3.08-1.77c4.04-2.33 4.51-2.27 9.22 1.08 4.11 2.92 6.17 3.56 6.17 1.92zm-37.7-7.08c-1.57-5.02-6.55-16.9-7.26-17.4-1.11-0.684-2.82-0.0447-3.31 1.24-0.474 1.23 5.78 17.8 7 18.6 1.43 0.882 4.05-0.92 3.57-2.45zm-56.2-39.4c-0.255-1.9-0.691-7.13-0.97-11.6-0.618-9.93-0.892-11-2.83-11-2.16 0-2.49 0.947-1.48 4.25 0.702 2.29 0.619 3.68-0.395 6.66-1.1 3.23-1.13 4.34-0.225 7.84 1.13 4.34 3.23 7.31 5.17 7.31 0.927 0 1.09-0.76 0.725-3.46zm-13.1-11.3c-0.936-2.34-1.2-4.48-0.837-6.87l0.522-3.48-4.26-0.288c-2.37-0.16-4.39 0.0741-4.56 0.527-0.79 2.09 2.86 8.84 6.21 11.5 1.93 1.53 3.69 2.61 3.9 2.4 0.211-0.211-0.228-1.91-0.975-3.78zm6.45-14.7c9.9-0.997 12.6-2.13 19.3-8 4.16-3.66 10.1-11.3 9.36-12-0.249-0.249-5.52-1.1-11.7-1.9-11.1-1.43-11.3-1.43-13 0.169-1.71 1.56-3.52 1.41-3.52-0.287 0-1.41 4.91-8.04 5.95-8.04 0.544 0 1.35 0.825 1.79 1.83 0.726 1.65 1.83 1.96 11.4 3.15 9.14 1.14 10.8 1.16 11.9 0.163 1.6-1.39 5.43-12.6 6.13-18 0.821-6.3 1.12-6.56 7.03-6.09 3.77 0.303 5.83 0.0675 7.66-0.874 4.78-2.47 3.92-7.06-1.8-9.59-5.73-2.54-7.48-1.94-10.9 3.73-3.42 5.67-7.27 8.58-11.3 8.58-2.32 0-3.52-0.674-6.25-3.53-5.62-5.86-7.57-16.7-4.98-27.6 0.608-2.58 0.806-4.88 0.441-5.11-1.11-0.688-45.6-6.26-46.1-5.77-0.25 0.25 0.143 1.71 0.873 3.25 2.71 5.71 1.11 6.18-3.25 0.966-1.67-1.99-4.07-4.06-5.35-4.58-3.26-1.35-9.33-0.499-11.6 1.63-3.39 3.19-4.85 12-2.69 16.4 1.86 3.72 5.81 5.02 13.4 4.41 7.49-0.595 8.76 0.296 3.45 2.42-4 1.6-10.5 1.69-14.1 0.199-3.65-1.53-6.8-5.51-7.47-9.45-0.306-1.81-0.847-3.11-1.2-2.89-1.43 0.886-2.87 11.9-2.76 21.2 0.222 18.7 7.22 35.7 19.1 46.4 5.31 4.78 7.01 5.65 14.2 7.3 13.4 3.11 14.6 3.2 26.1 2.04zm-43.9-78.3c-1.51-2.16-1.57-3.15-0.33-5.87 1.06-2.32 3.16-3.26 5.58-2.5 1.64 0.52 2.34 3.67 0.815 3.67-0.448 0-0.815 0.886-0.815 1.97 0 4.68-2.85 6.16-5.25 2.74zm234 30.8c-4.67-2.12-87.1-32.2-88.3-32.2-0.964 0-2.73 5.24-2.37 7.06 0.207 1.07 10.3 4.16 46.3 14.2 25.3 7.06 46.6 12.8 47.2 12.8 0.672-0.0015-0.611-0.837-2.85-1.86zm8.96-2.24c-4.48-2.28-25.3-12.4-46.4-22.4-42.1-20.2-38.9-19.2-41.2-12.4-0.663 2.01-0.801 3.6-0.348 4.02 0.412 0.382 20.9 8.07 45.5 17.1 24.6 9.02 45.5 16.7 46.4 17.1 0.896 0.41 2.18 0.751 2.85 0.759 0.672 0.0074-2.44-1.85-6.92-4.13zm-165-4.38c3.28-3.47 3.38-4.22 0.73-5.23-2.44-0.928-3.44-4.24-2.13-7.09 0.852-1.87 1.27-2.02 4.18-1.56l3.23 0.517v-5.16c0-5.99-1.72-12.5-4.13-15.5-3.27-4.15-8.82-2.18-12.2 4.33-4.78 9.27-3.94 24.7 1.66 30.3 3.08 3.08 5.33 2.92 8.65-0.599zm-12.2-34.8c2.99-3.32 3.19-4.17 0.842-3.58-3.15 0.79-3.38-0.709-0.461-2.99l2.58-2.02-1.59-2.02c-4.81-6.12-14.2-12.1-23-14.8-6.2-1.84-16.5-1.71-23 0.304-5.32 1.64-13.7 6.54-16.4 9.58-1.48 1.67-1.47 1.67 6.32 2.26 4.29 0.322 8 0.897 8.23 1.28 0.61 0.987-1.82 5.4-3.48 6.33-1.16 0.651-0.921 0.872 1.43 1.3 2.97 0.544 43.4 5.91 45.7 6.06 0.706 0.046 2.03-0.741 2.93-1.75zm-63.7-6.99c-0.23-0.598-0.432-2.07-0.451-3.26-0.0327-2.13-0.101-2.1-3.26 1.39-4.38 4.84-4.26 5.97 0.451 4.28 2.41-0.868 3.53-1.69 3.26-2.41z" style="fill:#6b6b6b;stroke-width:.815"/>
      <path d="m-68.1 318c0-0.359-1.62-1.44-3.6-2.4-6.92-3.36-5.71-6.51 4.48-11.6 6.67-3.35 9.67-6.24 13.6-13.1 3.27-5.67 6.21-8.76 9.75-10.2 1.56-0.653 3.8-2.13 4.97-3.27 1.17-1.15 3.78-2.69 5.8-3.43l3.67-1.34 0.235-10.2c0.334-14.4 0.837-13.5-8.17-14.2-24.7-1.88-41.3-8.09-41.3-15.5 0-3.58 3.55-6.17 14.9-10.9 2.18-0.904 2.26-1.13 1.74-4.81-0.302-2.13-1.75-7.71-3.22-12.4-1.47-4.7-3.31-12.8-4.09-17.9-0.779-5.15-1.75-9.73-2.16-10.2-0.408-0.448-2.47-1.39-4.58-2.1-2.86-0.962-3.9-1.75-4.1-3.12-0.299-2.04-2.28-3.03-10.9-5.44l-5.5-1.53v-3.47c0-1.91 0.387-3.47 0.86-3.47 0.473 0 1.62-1.84 2.56-4.09 2.12-5.11 3.56-5.53 11.4-3.32 4.86 1.38 6.16 1.49 7.01 0.64 0.576-0.576 4.56-13.3 8.85-28.2 8.79-30.6 9.77-32.6 19.8-41.7 8.17-7.38 23.7-14.6 35.7-16.6 2.09-0.346 3.46-1.01 3.46-1.68 0-0.609-1.85-3.55-4.1-6.53-16.8-22.2-18.6-53.6-4.48-79 6.3-11.4 20.5-23.1 32-26.5 1.9-0.563 3.46-1.33 3.46-1.71 0-0.377 4.03-0.686 8.96-0.686 4.93 0 8.96 0.338 8.96 0.751 0 0.413 1.37 1.2 3.05 1.74 7.75 2.51 14.6 6.78 20.9 13.1 5.13 5.13 7.04 6.51 9.52 6.91 2.75 0.44 8.05 4.38 5.89 4.38-0.471 0-1.31-0.55-1.87-1.22-1.09-1.31-4.89-1.7-4.89-0.504 0 0.395 1.29 1.7 2.86 2.9 1.57 1.2 3.57 3.58 4.45 5.3 2 3.93 3.53 13.3 2.84 17.3-0.699 4.14 0.531 5.5 4.97 5.5 9.08 0 14.1 6.17 10.6 13-1.69 3.28-6.01 5.68-11.4 6.37l-4.65 0.591-1.95 6.92c-4.18 14.8-12.4 27.2-23.6 35.5-3.34 2.47-6.08 4.79-6.08 5.16s2.11 2.06 4.68 3.77c10.1 6.71 18.5 18.1 20.1 27.5 0.298 1.7 1.1 3.31 1.78 3.57 0.683 0.262 8.35-2.18 17-5.42 12.6-4.69 15.9-6.25 16.4-7.65 0.315-0.962 4.66-23.2 9.65-49.4l9.07-47.6 3.14 0.194c1.73 0.107 3.58-0.176 4.13-0.628 0.71-0.589 1.11-0.385 1.39 0.717 0.279 1.07 1.7 1.85 4.62 2.55 2.32 0.557 4.05 1.18 3.84 1.39-0.208 0.208-3.09-0.383-6.41-1.31-6.64-1.86-9.24-2.1-9.98-0.905-0.268 0.433-3.02 14.3-6.12 30.7-3.1 16.5-6.94 36.7-8.54 45-4.51 23.4-5.1 27.9-3.73 28.4 0.633 0.211-0.469 0.976-2.46 1.71-3.02 1.11-4 2.05-6.01 5.79-1.32 2.45-2.62 5.75-2.89 7.31l-0.492 2.85-2.85-5.38 2.49-2.32c1.37-1.28 2.49-2.78 2.49-3.34s1.65-2.78 3.67-4.93c3.6-3.84 4.67-6.44 2.65-6.42-0.56 0.0057-7.61 2.48-15.7 5.5l-14.6 5.49-0.598 3.67c-0.329 2.02-0.787 4.67-1.02 5.91-0.538 2.86 0.349 2.87 8.19 0.0901 5.57-1.98 8.24-2.13 6.36-0.364-1.39 1.31-25 10.6-25.7 10.2-0.406-0.251-2.35-2.9-4.32-5.89-12.4-18.9-34.3-39.3-51.3-47.8-8.65-4.34-14-5.36-17.2-3.27-1.98 1.3-2.12 1.76-1.79 5.82 0.879 10.6 13.9 29.9 31.4 46.8 14.4 13.9 24.3 20.8 35 24.5 7.59 2.61 6.94 2.76 31.5-7.09 9.42-3.78 15.7-4.75 14.7-2.3-0.272 0.709-0.518 1.9-0.546 2.65-0.0366 0.962-0.267 0.823-0.788-0.474-0.405-1.01-1.31-1.83-2.01-1.83-1.12 0-5.91 1.81-13.8 5.23-1.34 0.579-6.29 2.64-11 4.58-4.7 1.94-9.01 3.93-9.57 4.42-0.557 0.492-3.8 10.6-7.22 22.4-5.54 19.2-6.06 21.6-4.91 22.5 0.712 0.521 5.4 1.18 10.4 1.47 14 0.803 14.1 0.86 23.6 36 3.64 13.4 6.97 24.9 7.42 25.4 0.96 1.19 3.84-0.0891 7.88-3.48l2.54-2.14v-28.3c0-20.9-0.255-28.5-0.977-29.3-0.538-0.538-2.19-0.977-3.67-0.977-2.68 0-2.69-0.0172-2.69-4 0-3.41-0.325-4.24-2.2-5.61l-2.2-1.61 3.49-18.6c3.18-17 4.19-21.4 4.17-18.2-0.0033 0.635-1.48 8.83-3.28 18.2-2.64 13.8-3.07 17.3-2.23 18.1 0.894 0.892 21.9 6.18 96.5 24.3 8.59 2.09 16.4 3.68 17.5 3.53 1.58-0.231 7.08-11.9 40.5-85.7 32.3-71.3 38.5-85.6 37.5-86.5-0.609-0.576-31.1-9.41-67.7-19.6-36.6-10.2-66.4-18.7-66.3-18.9 0.164-0.164 21 5.38 46.2 12.3 25.2 6.94 47.2 12.9 48.7 13.2 2.65 0.529 2.76 0.471 1.64-0.879-1.11-1.33-1.04-1.4 0.83-0.797 5.14 1.64 9.77 2.65 9.77 2.12 0-0.318-0.458-1.04-1.02-1.61-1.25-1.27 2.94 0.507 17.8 7.51 6.3 2.98 12.1 5.41 12.8 5.41s1.38 0.55 1.38 1.22-0.481 1.22-1.07 1.22c-0.614 0-6.03 11-12.7 25.9-6.42 14.2-19.9 44-29.9 66.1-14.2 31.4-18 40.5-17.3 41.3 0.743 0.895 5.18 1.12 22.2 1.14 17.4 0.0212 21.6 0.243 22.9 1.22 0.87 0.658 2.98 1.2 4.68 1.2h3.1v17.9h-3.2c-6.22 0-5.82-4.43-5.57 62l0.219 59.4-170 5.4e-4v-24.2c0-22.2-0.116-24.2-1.37-24.2-0.755 0-4.94 3.85-9.3 8.55-6.04 6.52-8.42 8.55-9.99 8.55-1.43 0-2.2 0.538-2.51 1.77-0.246 0.973-1.49 2.59-2.77 3.58-2.69 2.1-3.32 1.57-4.12-3.46-0.515-3.22-0.713-3.4-4.82-4.3-1.89-0.416-2.39-0.198-2.76 1.21-0.416 1.59-8.3 7.66-9.02 6.94-0.177-0.177-0.753-2.26-1.28-4.63-0.787-3.54-1.31-4.39-2.98-4.78-1.91-0.447-2.37-1.81-8.31-24.8-3.45-13.4-6.75-24.6-7.33-25-1.72-1.09-2.26-0.837-5.24 2.48-5.11 5.69-16.8 9.49-35.3 11.5-4.69 0.509-8.81 1.1-9.16 1.32-0.352 0.217-0.639 5.52-0.639 11.8 0 8.38 0.268 11.5 1.02 11.7 0.56 0.188 2.66 0.762 4.66 1.28 2.19 0.562 4.63 1.97 6.11 3.53 1.35 1.43 3.83 3.43 5.49 4.45 1.96 1.2 4.38 4.07 6.86 8.12 5.23 8.56 7.68 11 14.4 14.2 3.19 1.54 6.49 3.57 7.33 4.51 2.13 2.38 1.2 5.21-2.32 7.11-1.58 0.85-2.87 1.83-2.87 2.17s-1.83 0.629-4.07 0.629c-2.24 0-4.07-0.34-4.07-0.755s-2-1.67-4.45-2.79c-5.36-2.45-12.1-9.03-18.6-18.2-2.62-3.66-5.31-6.87-5.98-7.13-1.7-0.652-2.7 0.143-2.7 2.14 0 2.09-3.17 13-4.05 13.9-1.17 1.23-6.71 2.07-8.68 1.32-2.36-0.898-2.55-4.23-0.661-11.5 1.39-5.36 1.31-8.89-0.208-9.39-1.55-0.509-8.23 6.15-13 13-2.42 3.45-6.24 7.92-8.48 9.94-3.71 3.33-11.6 7.81-13.7 7.81-0.476 0-0.865 0.367-0.865 0.815 0 0.448-1.1 0.815-2.44 0.815-1.34 0-2.44-0.293-2.44-0.652zm339-1.95c0.742-0.742 0.977-15 0.977-59 0-56.6-0.0405-58.1-1.58-58.9-2.42-1.3-50.7-1.14-52.3 0.175-0.684 0.56-2.84 4.59-4.78 8.96s-4 7.94-4.56 7.94-12.3-2.77-26.1-6.15c-50.5-12.4-47.3-11.8-62.1-11.8-7.53 0-13.9 0.362-14.8 0.843-1.54 0.822-1.58 2.33-1.58 58.9 0 44.1 0.235 58.3 0.977 59 1.42 1.42 164 1.42 166 0zm-328-3.02c5.33-2.58 10.7-7.63 15.2-14.3 2.17-3.21 5.41-7.42 7.21-9.35 1.8-1.93 3.11-3.92 2.92-4.43-0.251-0.653 2.71-0.919 10.2-0.919 8.27 0 10.6 0.238 10.6 1.08 8.15e-4 0.595 1.78 3.16 3.96 5.7 2.18 2.54 5.49 6.91 7.37 9.72 6.31 9.43 15.7 15.3 23.5 14.7 5.44-0.451 8.58-2.9 6.69-5.21-0.635-0.773-3.72-2.6-6.86-4.06-6.4-2.98-10.2-6.6-14.5-13.8-3.49-5.86-6.84-9.22-10-10.1-1.55-0.412-2.45-1.24-2.62-2.41-0.314-2.14-2.45-3.4-7.88-4.63l-4.07-0.927-0.233-7.4c-0.295-9.35-0.856-9.92-6.76-6.93l-4.41 2.23-0.473 12.4-3.84 0.964c-4 1.01-6.69 2.83-6.69 4.54 0 0.553-1.27 1.24-2.83 1.54-3.92 0.736-7.23 3.78-11 10.1-4.92 8.23-6.32 9.59-14.3 13.8-8.38 4.42-9.27 6.12-4.48 8.59 3.53 1.82 8.21 1.47 13.3-0.992zm38.3-7.8c1.6-1.6 3.16-6.43 2.83-8.75-0.229-1.61-0.804-1.88-4.49-2.09-4.71-0.272-5.36 0.312-6.37 5.69-0.901 4.8 0.0011 6.37 3.67 6.37 1.73 0 3.69-0.546 4.36-1.21zm78.1-28.1c3.11-1.79 5.98-3.26 6.37-3.26 0.397 0 1.29 1.1 1.99 2.44 0.695 1.34 1.47 2.44 1.73 2.44 1.4 0 19.8-15.3 19.9-16.4 0.0145-2.41-13.2-49.8-14.7-52.8-2.93-5.75-4.95-6.86-13.7-7.47-8.55-0.602-10.7-0.332-10.7 1.33 0 0.592-0.641 1.83-1.43 2.74-1.42 1.66-1.47 1.65-35.6-7.24-60.5-15.8-69.8-18-70.4-17.3-0.337 0.382 0.603 8.02 2.09 17 1.49 8.96 2.72 17.8 2.73 19.8 0.0162 2.23 0.391 3.46 1.05 3.46 0.84 0 43.1 4.27 72.3 7.3 5.57 0.579 7.15 0.496 8.1-0.423 1.01-0.981 1.38-0.953 2.65 0.192 0.811 0.734 2.85 1.55 4.53 1.82l3.05 0.488 5.38 21.2c7.07 27.8 7.16 28.1 8.21 28.1 0.498 0 3.45-1.47 6.56-3.26zm3.29-10c-0.35-0.54-2.89-10.3-5.63-21.8-4.1-17.1-4.81-21-3.95-21.9 0.577-0.613 1.41-0.892 1.85-0.62 0.44 0.272 1.75 4.44 2.9 9.26 6.34 26.4 7.85 33 7.85 34 0 1.49-2.24 2.25-3.03 1.03zm-59.5-22.1c12.3-1.93 21.2-4.89 25.2-8.42 1.83-1.61 1.83-4.03 0-4.55-0.784-0.221-18.8-2.17-40.1-4.33-34.1-3.47-38.9-4.12-40.6-5.56-1.69-1.46-2.31-4.14-5.83-25.3-2.16-13-3.79-23.8-3.61-24 0.175-0.188 3.94 0.67 8.37 1.91 8.96 2.5 11.5 2.16 11.5-1.58 0-2.35-2.25-8.48-3.69-10-1.38-1.5-41-13-43-12.5-2.58 0.675-5.98 9.84-4.39 11.8 0.52 0.651 6.26 2.71 12.8 4.58 6.5 1.87 12.4 3.58 13.2 3.81 1.08 0.317 1.21 0.723 0.563 1.79-0.612 1 0.169 7.45 2.87 23.8 2.04 12.3 3.71 23.3 3.71 24.4-9.77e-4 1.8-0.592 2.23-4.68 3.46-5.68 1.7-9.43 3.94-11.2 6.71-1.26 1.92-1.26 2.22-0.0296 4.11 3.3 5.03 17.6 9.24 38.4 11.3 6.69 0.672 32.9-0.292 40.5-1.49zm-51.5-5.04c-8.7-1.04-20.6-4.41-21.7-6.13-0.731-1.18 2.44-0.774 7.48 0.962 15.4 5.32 46.9 5.31 71.5-0.034 7.41-1.61 10.5-1.64 8-0.0762-2.13 1.32-18 4.21-29.5 5.37-14.2 1.43-23.3 1.41-35.8-0.0943zm102-61.4c4.42-15.1 6.54-23.6 6.08-24.4-0.879-1.48-5.18-2.69-6.15-1.72-0.397 0.397-0.708 3.16-0.691 6.14 0.0219 3.79-0.255 5.32-0.926 5.1-0.527-0.173-1.09-1.2-1.24-2.29-0.158-1.08-2.11-5.09-4.33-8.9-3.09-5.29-4.97-7.53-7.95-9.51-30.7-20.3-58.9-59.3-52.1-72.1 1.36-2.55 0.29-2.79-5.61-1.26-13.7 3.55-28.3 13.6-34.1 23.5-1.73 2.92-4.5 11.1-8.4 24.7-3.2 11.2-6.53 22.7-7.4 25.5-2.73 8.95-3.32 8.28 10.8 12.3 6.83 1.94 13.2 4.01 14.2 4.59 0.994 0.605 2.66 3.46 3.87 6.62 2.48 6.5 2.48 6.44 0.871 9.53-0.682 1.31-0.955 2.66-0.606 3s19.1 5.45 41.8 11.3c22.6 5.9 41.3 10.9 41.5 11.1s1.11 0.252 2 0.121c1.39-0.203 2.61-3.61 8.41-23.5zm-43.7 3.05c0.0235-1.01 0.519-4.49 1.1-7.75 0.776-4.33 0.819-6.23 0.161-7.11-0.534-0.71-6.51-2.39-14.7-4.15-12.9-2.76-16-3.75-14.9-4.8 0.743-0.743 32.4 6.31 32.7 7.31 0.202 0.527-0.324 4.78-1.17 9.44-0.846 4.67-1.54 8.58-1.55 8.69-0.0073 0.112-0.38 0.204-0.828 0.204s-0.795-0.825-0.772-1.83zm109 13.3c-1.02-0.996-20-5.78-20.9-5.25-0.361 0.223-0.657 1.67-0.657 3.21v2.8h11.2c6.9 0 10.9-0.289 10.4-0.758zm161-6.57v-6.92l-53.9-0.429-2.97 6.6c-1.63 3.63-2.97 6.94-2.97 7.35 0 0.455 11.9 0.671 29.9 0.542l29.9-0.214zm-210-67.5c1.77-3.88 1.99-12.4 0.465-17.7-2.09-7.2-4-10.4-9.92-16.7-7.41-7.85-8.53-7.46-4.82 1.67 1.99 4.89 1.99 4.89 0.457 8.31-1.51 3.38-1.51 3.45 0.162 6.43 1.29 2.29 1.59 3.91 1.27 6.77-0.378 3.36-0.0759 4.29 2.84 8.82 1.8 2.79 3.64 5.31 4.1 5.6 1.36 0.863 4.4-0.949 5.44-3.24zm-14-13.4c0.152-1.29-0.477-3.21-1.54-4.7-1.72-2.42-1.74-2.64-0.462-5.32 1.88-3.94 1.69-5.73-1.32-12.6-3.44-7.85-3.76-8.29-5.59-7.82-1.16 0.303-1.66-0.134-2.01-1.76-0.992-4.55-0.763-4.43-7.24-3.92-3.56 0.279-6.27 0.151-6.55-0.31-0.267-0.432 0.545-0.808 1.8-0.836 1.26-0.0282 5.25-0.335 8.87-0.682 5.51-0.527 7.24-1.07 10.6-3.32 9.43-6.34 18.1-17.2 15.2-19-0.341-0.211-5.84-1.03-12.2-1.81-11.2-1.38-11.7-1.37-13.2 0.0537-2.11 1.91-2.08 0.922 0.0586-2.54 1.77-2.87 3.19-3.57 3.19-1.57 0 0.646 0.313 1.37 0.696 1.6 0.779 0.481 19.8 2.92 22.7 2.92 2.52 0 5.44-6.49 7.81-17.3l1.74-7.97 4.18 0.517c5.56 0.689 11.4-1.7 12.2-5.03 1.23-4.89-4.13-9.28-11.3-9.28-3.75-0.00122-3.96 0.122-5.17 3.05-6.47 15.7-19.4 12.9-22.2-4.8-0.769-4.86-0.544-8.13 1.23-18 0.489-2.71 0.35-3.06-1.39-3.45-1.61-0.368-46.5-6.16-47.7-6.16-0.483 0 0.128 3.03 1.07 5.29 0.372 0.896-0.776 0.104-2.55-1.76-3.75-3.94-7.73-5.08-12.6-3.63-8.51 2.55-11.8 16.8-5.28 22.9 1.64 1.54 3.27 2.03 7.96 2.41 4.77 0.381 5.45 0.593 3.57 1.11-3.27 0.893-9.13-0.146-11.5-2.05-3.64-2.86-4.71-6.03-4.22-12.4 0.558-7.19 0.896-8.02 4.29-10.6 5.02-3.83 7.69-3.82 37.3 0.0475 14.9 1.95 28.3 3.55 29.9 3.57 2.34 0.0222 3.53-0.632 6.31-3.47 4.05-4.12 4.47-5.91 1.21-5.09-2.19 0.549-2.2 0.534-0.716-1.1 1.47-1.62 1.45-1.72-0.616-4.18-6.71-7.97-16.8-13.9-27.4-16.1-15.2-3.14-31.3 3.19-42.6 16.8-2.14 2.57-4.65 6.31-5.58 8.33-0.927 2.02-2.74 5.86-4.02 8.55-5.26 11-6.36 31.5-2.42 45.2 2.56 8.86 8.32 19.4 13.9 25.6 6.92 7.55 10.7 9.83 19.3 11.5 3.93 0.77 8.43 1.7 10 2.06 2.51 0.583 2.59 0.671 0.659 0.745-3.2 0.123-3.47 1.27-1.5 6.52 1.81 4.84 5.68 8.91 11.2 11.8 1.41 0.732 3.39 2.53 4.4 3.99 3.23 4.71 5.89 7.14 7.82 7.14 1.16 0 1.88 0.486 1.88 1.27 0 1.66 5.81 8.6 6.9 8.25 0.461-0.151 0.955-1.26 1.1-2.45zm-60.4-118c-0.678-0.678-0.706-3.79-0.0486-5.5 0.272-0.709 1.37-1.29 2.44-1.29 1.98 0 2.61 1.12 1.13 2.04-0.448 0.277-0.815 1.58-0.815 2.9 0 2.25-1.38 3.19-2.72 1.85zm25.2 86.5c-0.276-0.72-0.889-1.07-1.36-0.777-0.59 0.365-0.556 0.898 0.11 1.7 1.18 1.43 1.94 0.869 1.25-0.923zm-2.92-2.9c0.5-0.934 0.683-1.93 0.406-2.2-0.696-0.696-15.2-5-16.9-5.03-0.784-0.0142-1.41 0.249-1.4 0.585 0.0279 0.645 14.3 7.97 16 8.21 0.544 0.0758 1.4-0.627 1.9-1.56zm53.5-56.5c1.86-1.3 5.14-6.14 5.14-7.58 0-0.477-1.01-0.984-2.24-1.13-1.95-0.224-2.27-0.66-2.49-3.32-0.324-3.91 1.78-5.08 4.07-2.25 1.89 2.34 2.39 1.87 3.18-3.03 1.26-7.74-1.77-18.8-5.94-21.7-2.71-1.9-5.15-1.56-8.25 1.16-4.28 3.76-6.47 9.65-6.89 18.6-0.424 8.9 0.621 13.4 4.05 17.6 2.7 3.28 6.23 3.92 9.39 1.72zm80.9 144c-5.6-0.852-10.3-1.68-10.5-1.83s0.537-3.43 1.55-7.27c1.01-3.84 2.02-6.81 2.23-6.59 0.214 0.214-0.281 2.97-1.1 6.12-1.04 4.01-1.23 5.99-0.63 6.59 0.472 0.472 4.6 1.41 9.17 2.09 9.1 1.35 10.1 1.1 11-2.79 1.38-5.65 3.07-10.8 3.41-10.5 0.484 0.484-3.58 14.6-4.4 15.2-0.337 0.275-5.19-0.198-10.8-1.05zm16.4-18.8c-0.0444-0.385 0.735-3.81 1.73-7.61 2.22-8.47 2.33-8.34-8.83-10.3-9.24-1.65-9.24-1.65-11.3 5.5-0.746 2.62-1.51 4.61-1.7 4.42-0.496-0.496 2.57-11.3 3.41-12 0.385-0.328 5.4 0.302 11.2 1.4l10.5 2-0.482 2.54c-0.606 3.2-4.36 15-4.47 14.1zm-65.8-8.95c-0.495-1.86-0.765-3.51-0.601-3.67 0.165-0.165 1.48 0.544 2.93 1.57 1.45 1.03 2.2 2.02 1.68 2.19-0.526 0.175-0.956 0.799-0.956 1.39 0 0.587-0.484 1.25-1.08 1.48-0.713 0.274-1.38-0.724-1.98-2.96zm28.7-2.54c-4.69-4.2-3.42-4.91 2.29-1.29 2.63 1.67 3.66 2.8 3.33 3.67-0.698 1.82-1.15 1.63-5.62-2.38zm-2.01-11.6-3.67-1.98 4.07 0.574c4.78 0.673 4.84 0.707 3.94 2.22-0.572 0.971-1.29 0.836-4.35-0.816zm13.6-0.839c0.518-1.98-3.94-6.1-10.3-9.55-2.89-1.56-4.7-2.84-4.01-2.85 2.38-0.0355 11.7 6.12 13.9 9.25 2.13 2.93 2.4 4.58 0.73 4.58-0.38 0-0.522-0.643-0.317-1.43zm25.3-29.4c-3-3.31-0.521-8.28 4.13-8.28 2.29 0 5.11 2.7 5.11 4.89 0 4.1-6.46 6.47-9.24 3.4zm-21.3-87.3c-1.03-0.441-1.18-0.7-0.407-0.7 0.672 0 1.95 0.315 2.85 0.7 1.03 0.441 1.18 0.7 0.407 0.7-0.672 0-1.95-0.315-2.85-0.7zm8.15-9.4c-2.04-0.981-2.1-1.09-0.407-0.679 2.31 0.564 4.9 1.89 3.67 1.87-0.448-0.0066-1.91-0.542-3.26-1.19zm-7.67-2.59c-3.36-1.18-3.49-1.35-2.05-2.4 1.34-0.982 1.61-0.954 2.02 0.212 0.259 0.738 1.55 1.82 2.87 2.4 3.32 1.46 1.53 1.33-2.83-0.21zm-9.84-1.71c0-0.984 1.55-2.13 2.11-1.57 0.205 0.205-0.186 0.836-0.869 1.4-0.774 0.642-1.24 0.704-1.24 0.164zm13.4-11.6c0.277-0.448 0.848-0.815 1.27-0.815 0.422 0 0.766 0.367 0.766 0.815s-0.571 0.815-1.27 0.815c-0.698 0-1.04-0.367-0.766-0.815z" style="fill:#252525;stroke-width:.815"/>
      <g transform="matrix(.184 .0463 -.155 .44 453 64.3)" style="fill:#444444;stroke-linecap:round;stroke-linejoin:round;stroke-width:5.72;stroke:#444444" aria-label="LEK BIJ PLEK">
        <path d="m-1614 138v-66h13.8v55.4h35.4v10.7z" style="fill:#444444;stroke-linecap:round;stroke-linejoin:round;stroke-width:5.72;stroke:#444444"/>
        <path d="m-1555 138v-66h51.9v10.7h-38.1v16.6h35.2v10.7h-35.2v17.4h40v10.7z" style="fill:#444444;stroke-linecap:round;stroke-linejoin:round;stroke-width:5.72;stroke:#444444"/>
        <path d="m-1445 138-23.7-30.3-8.16 6.23v24.1h-13.8v-66h13.8v30l29.8-30h16.1l-28.2 27.9 30.5 38.1z" style="fill:#444444;stroke-linecap:round;stroke-linejoin:round;stroke-width:5.72;stroke:#444444"/>
        <path d="m-1337 119q0 9-6.75 13.9-6.75 4.92-18.8 4.92h-33v-66h30.2q12.1 0 18.3 4.22 6.23 4.17 6.23 12.4 0 5.62-3.14 9.52-3.09 3.84-9.47 5.2 8.02 0.938 12.2 5.06 4.22 4.08 4.22 10.8zm-17.7-28.7q0-4.45-2.86-6.33-2.81-1.88-8.39-1.88h-15.8v16.4h15.8q5.86 0 8.48-2.02 2.67-2.06 2.67-6.14zm3.84 27.7q0-9.28-13.3-9.28h-17.5v18.9h18q6.66 0 9.7-2.39 3.09-2.44 3.09-7.27z" style="fill:#444444;stroke-linecap:round;stroke-linejoin:round;stroke-width:5.72;stroke:#444444"/>
        <path d="m-1326 138v-66h13.8v66z" style="fill:#444444;stroke-linecap:round;stroke-linejoin:round;stroke-width:5.72;stroke:#444444"/>
        <path d="m-1281 139q-10.3 0-15.8-4.45-5.48-4.45-7.31-14.4l13.7-2.02q0.844 5.11 3.14 7.59 2.3 2.44 6.33 2.44 4.12 0 6.23-2.77 2.16-2.77 2.16-7.92v-34.6h-13.2v-10.8h27v45.1q0 10.3-5.86 16.1-5.86 5.77-16.4 5.77z" style="fill:#444444;stroke-linecap:round;stroke-linejoin:round;stroke-width:5.72;stroke:#444444"/>
        <path d="m-1165 93.1q0 6.38-2.91 11.4-2.91 5.02-8.34 7.78-5.39 2.72-12.8 2.72h-16.4v23.2h-13.8v-66h29.7q11.9 0 18.2 5.48 6.42 5.44 6.42 15.4zm-13.9 0.234q0-10.4-12.3-10.4h-14.3v21.4h14.7q5.72 0 8.81-2.81 3.09-2.86 3.09-8.2z" style="fill:#444444;stroke-linecap:round;stroke-linejoin:round;stroke-width:5.72;stroke:#444444"/>
        <path d="m-1155 138v-66h13.8v55.4h35.4v10.7z" style="fill:#444444;stroke-linecap:round;stroke-linejoin:round;stroke-width:5.72;stroke:#444444"/>
        <path d="m-1096 138v-66h51.9v10.7h-38.1v16.6h35.2v10.7h-35.2v17.4h40v10.7z" style="fill:#444444;stroke-linecap:round;stroke-linejoin:round;stroke-width:5.72;stroke:#444444"/>
        <path d="m-986 138-23.7-30.3-8.16 6.23v24.1h-13.8v-66h13.8v30l29.8-30h16.1l-28.2 27.9 30.5 38.1z" style="fill:#444444;stroke-linecap:round;stroke-linejoin:round;stroke-width:5.72;stroke:#444444"/>
      </g>
      <path d="m31.4 72.8c-0.675 4.89-0.766 7.46 0.315 10.4 1.08 2.89 1.08 3.89 1.08 3.89l8.89 9.42s-1.87-1.87-2.87-5.95c-1-4.08-0.506-5.32 0.935-10 1-3.27-0.935-5.68-0.802-6.82s0.535-1.6 0.535-1.6z" style="fill:#ff0055"/>
      <path transform="matrix(.265 0 0 .265 568 .541)" d="m-2302 892c-31.7-2.23-60.3-6.89-82.8-13.5-10-2.93-23.4-5.41-29.8-5.51-6.39-0.103-11.6-0.857-11.6-1.67 0-3.07 15.8-11.7 34.3-18.7 10.6-4 20.5-8.54 22-10.1 3.44-3.4 1.33-21.1-14-118-10.8-68-10.9-69.1-8.26-69.1 2.72 0 5.16 11.6 17.4 82.8 17.8 104 18.1 105 33.8 109 13.3 3.35 48.4 7.55 138 16.5 44.4 4.44 84.9 8.65 89.9 9.35l9.09 1.28-8.08 2.89c-31.8 11.4-130 19-190 14.8z" style="fill:#ff0055;paint-order:stroke markers fill"/>
      <path transform="matrix(.265 0 0 .265 568 .541)" d="m-2327 658c-12.4-2.83-114-32.2-138-40.1l-28.9-9.29 0.982-8.71c0.54-4.79 2.7-12.2 4.79-16.5 3.72-7.61 4.05-7.79 13.9-7.39 8.63 0.348 76.6 18.7 133 36 18.3 5.59 18.7 6.02 26.5 31.1 2.46 7.94 2.4 9.33-0.583 12.6-3.39 3.74-4.54 3.97-11.8 2.31z" style="fill:#ff0055;paint-order:stroke markers fill"/>
      <path transform="matrix(.265 0 0 .265 568 .541)" d="m-2288 923c-37.9-2.92-87.8-13-114-22.9-19.9-7.67-29.3-15.4-27.4-22.5l1.29-4.85 1.14 5.05c2.67 11.9 50.4 27.3 104 33.5 22.7 2.64 39 3.12 75.4 2.21 83.6-2.09 152-13.6 172-28.9 3.63-2.77 8.63-5.14 11.1-5.28 8.73-0.466 16.7 0.583 19.7 2.6 2.55 1.71 2.06 2.84-3.03 7.06-13.5 11.2-58.2 24.3-103 30.1-21.4 2.81-117 5.54-137 3.95z" style="fill:#ff0055;paint-order:stroke markers fill"/>
      <path transform="matrix(.265 0 0 .265 568 .541)" d="m-2410 1181c-8.13-2.5-10.3-7.13-5.21-11 2.08-1.59 11.9-7.14 21.9-12.3 23.6-12.3 34.9-23.1 52.7-50.3 14-21.4 28.4-37.3 33.7-37.3 9.17-0.041 18.1-4.79 22.7-12.1 2.71-4.3 7.01-8.46 9.55-9.24 2.54-0.785 9.34-3.17 15.1-5.31 12.5-4.62 13.9-7.73 15.9-35l1.34-18.2 10.4-4.56c5.71-2.51 11.4-4.55 12.7-4.55 3.1 0.0166 4.75 9.52 5.04 29.1 0.405 27.8 0.085 27.3 20.5 33.7 20.3 6.32 23 8.09 24.8 16.2 1.12 5.1 2.84 6.36 12.5 9.18 14.5 4.22 24 13.7 40.5 40.4 15.8 25.6 26.6 35.8 52.1 49 11.1 5.74 21.9 11.8 24.1 13.6 3.94 3.05 3.95 3.19 0.232 5.94-10.1 7.49-34.2 6.13-52.8-2.97-17.2-8.46-32.2-22.7-53.7-51.1-10.3-13.6-22.2-28.6-26.5-33.3-6.41-7.09-7.72-10-7.72-17.2l-8e-4 -8.63-49.5-0.01c-48.6 0-49.5 0.072-49.5 4.14 0 2.28 0.968 5.11 2.15 6.3 1.52 1.52-0.325 5.01-6.3 11.9-4.65 5.37-16.4 20.3-26.1 33.1-31.3 41.4-55.8 60-81.5 61.8-6.88 0.476-15.5-0.054-19.2-1.18z" style="fill:#ff0055;paint-order:stroke markers fill"/>
      <path transform="matrix(.265 0 0 .265 568 .541)" d="m-2244 1141c2.64-16.2 3.41-18.8 6.33-21.7 3.51-3.51 13.4-3.95 19.1-0.849 4.7 2.52 3.87 9.87-2.57 22.6-3.67 7.24-4.28 7.58-14 7.58h-10.2z" style="fill:#ff0055;paint-order:stroke markers fill"/>
    </g>
  </g>
</svg>
