<?xml version="1.0" encoding="UTF-8"?>
<svg width="150mm" height="60mm" version="1.1" viewBox="0 0 150 60" xmlns="http://www.w3.org/2000/svg">
  <g transform="translate(145 -84.4)" style="fill:#444;stroke-width:.5;stroke:#444;paint-order:stroke markers fill">
    <ellipse transform="rotate(-16.3)" cx="-137" cy="58.2" rx="1.89" ry="5.24"/>
    <ellipse transform="matrix(.92 .391 -.415 .91 0 0)" cx="-59.2" cy="132" rx="2.04" ry="5.53" />
    <ellipse transform="matrix(1 -.0258 -.726 .687 0 0)" cx="1.87" cy="150" rx="3.32" ry="4.86"/>
    <ellipse transform="matrix(.993 .122 -.969 .247 0 0)" cx="217" cy="335" rx="4.03" ry="6.01"/>
    <ellipse transform="matrix(.847 .532 -1 -.0114 0 0)" cx="220" cy="301" rx="3.27" ry="5.54"/>
    <ellipse transform="matrix(.312 .95 -.866 -.501 0 0)" cx="238" cy="222" rx="2.32" ry="3.35"/>
    <g transform="matrix(-1 0 0 1 -242 0)">
      <ellipse transform="rotate(-16.3)" cx="-137" cy="58.2" rx="1.89" ry="5.24"/>
      <ellipse transform="matrix(.92 .391 -.415 .91 0 0)" cx="-59.2" cy="132" rx="2.04" ry="5.53"/>
      <ellipse transform="matrix(1 -.0258 -.726 .687 0 0)" cx="1.87" cy="150" rx="3.32" ry="4.86"/>
      <ellipse transform="matrix(.993 .122 -.969 .247 0 0)" cx="217" cy="335" rx="4.03" ry="6.01"/>
      <ellipse transform="matrix(.847 .532 -1 -.0114 0 0)" cx="220" cy="301" rx="3.27" ry="5.54"/>
      <ellipse transform="matrix(.312 .95 -.866 -.501 0 0)" cx="238" cy="222" rx="2.32" ry="3.35"/>
    </g>
  </g>
  <text fill="#f05" x="8" y="50" style="font-size:1em; font-family:Source Sans Pro, Helvetica, sans-serif; font-weight:bold; font-variant-caps:small-caps;">Plek</text>
  <text fill="#f05" x="50" y="30" style="font-size:.7em; font-family:Source Sans Pro, Helvetica, sans-serif; font-weight:bold; font-style:italic;">driving excitement</text>
</svg>
