<svg width="128mm" height="156mm" version="1.1" viewBox="0 0 128 156" xmlns="http://www.w3.org/2000/svg">
  <g transform="translate(-9.05 .106)">
    <path d="m25.3 4.89c-1.16 1.88e-4 -2.11 0.944-2.11 2.11l0.0468 142c1.84e-4 0.558 0.222 1.09 0.617 1.49 4.01e-4 4e-4 0.645 0.446 0.781 0.494 0.136 0.0489 0.209 0.0641 0.267 0.0768 0.116 0.0253 0.165 0.03 0.209 0.0354 0.0872 0.0106 0.13 0.0128 0.175 0.0158 0.0912 6e-3 0.174 8e-3 0.278 0.012 0.208 6e-3 0.486 0.0128 0.846 0.0185 0.72 0.0114 1.76 0.0217 3.1 0.031 2.67 0.0188 6.51 0.0336 11.2 0.0441 9.46 0.021 22.5 0.0244 36.8 5e-3l52-0.0702c1.16-2e-3 2.1-0.944 2.1-2.11v-142c-1.9e-4 -1.16-0.943-2.11-2.11-2.11h-52.1zm2.11 4.21h100v138l-49.9 0.0675c-14.3 0.0194-27.3 0.0159-36.8-5e-3 -4.73-0.0105-8.57-0.0254-11.2-0.0441-0.906-6e-3 -1.47-0.0141-2.08-0.0212z" style="color-rendering:auto;color:#000000;dominant-baseline:auto;fill:#888888;font-feature-settings:normal;font-variant-alternates:normal;font-variant-caps:normal;font-variant-ligatures:normal;font-variant-numeric:normal;font-variant-position:normal;image-rendering:auto;isolation:auto;mix-blend-mode:normal;shape-padding:0;shape-rendering:auto;solid-color:#000000;text-decoration-color:#000000;text-decoration-line:none;text-decoration-style:solid;text-indent:0;text-orientation:mixed;text-transform:none;white-space:normal"/>
    <path d="m77.6 101c-0.291-0.0705-1.36-0.321-2.38-0.556-4.49-1.04-8.55-3.39-12.2-7.06-5.21-5.27-7.78-11.7-7.44-18.7 0.254-5.16 1.63-9.15 4.61-13.4 4.91-6.95 12.5-11 20.6-11h2.76v22.8h23.1l-0.179 2.99c-0.387 6.46-2.34 11.4-6.38 16.1-3.15 3.69-8.26 6.89-13 8.16-2.01 0.536-8.16 0.928-9.49 0.606z" style="fill:#444444;stroke-width:.265"/>
    <path d="m89.9 52.5v-14l2.45 0.0035c4.54 0.0065 9.42 1.42 13.4 3.9 2.58 1.6 6.67 5.69 8.28 8.29 2.51 4.05 3.59 7.61 3.81 12.5l0.148 3.37h-28.1v-14z" style="fill:#ff0055;stroke-width:.265"/>
    <path d="m79 113a1.5 1.5 0 1 0 0 3h32.3a1.5 1.5 0 1 0 0-3z" style="color-rendering:auto;color:#000000;dominant-baseline:auto;fill:#ff0055;font-feature-settings:normal;font-variant-alternates:normal;font-variant-caps:normal;font-variant-ligatures:normal;font-variant-numeric:normal;font-variant-position:normal;image-rendering:auto;isolation:auto;mix-blend-mode:normal;shape-padding:0;shape-rendering:auto;solid-color:#000000;text-decoration-color:#000000;text-decoration-line:none;text-decoration-style:solid;text-indent:0;text-orientation:mixed;text-transform:none;white-space:normal"/>
    <path d="m52.8 123a1.5 1.5 0 1 0 0 3h59a1.5 1.5 0 1 0 0-3z" style="color-rendering:auto;color:#000000;dominant-baseline:auto;fill:#ff0055;font-feature-settings:normal;font-variant-alternates:normal;font-variant-caps:normal;font-variant-ligatures:normal;font-variant-numeric:normal;font-variant-position:normal;image-rendering:auto;isolation:auto;mix-blend-mode:normal;shape-padding:0;shape-rendering:auto;solid-color:#000000;text-decoration-color:#000000;text-decoration-line:none;text-decoration-style:solid;text-indent:0;text-orientation:mixed;text-transform:none;white-space:normal"/>
    <path d="m52.8 133a1.5 1.5 0 1 0 0 3h59.4a1.5 1.5 0 1 0 0-3z" style="color-rendering:auto;color:#000000;dominant-baseline:auto;fill:#ff0055;font-feature-settings:normal;font-variant-alternates:normal;font-variant-caps:normal;font-variant-ligatures:normal;font-variant-numeric:normal;font-variant-position:normal;image-rendering:auto;isolation:auto;mix-blend-mode:normal;shape-padding:0;shape-rendering:auto;solid-color:#000000;text-decoration-color:#000000;text-decoration-line:none;text-decoration-style:solid;text-indent:0;text-orientation:mixed;text-transform:none;white-space:normal"/>
    <path d="m16.6 109c-3.38-0.0478-3.38 5.05 0 5h18c3.38 0.0478 3.38-5.05 0-5z" style="color-rendering:auto;color:#000000;dominant-baseline:auto;fill:#444444;font-feature-settings:normal;font-variant-alternates:normal;font-variant-caps:normal;font-variant-ligatures:normal;font-variant-numeric:normal;font-variant-position:normal;image-rendering:auto;isolation:auto;mix-blend-mode:normal;shape-padding:0;shape-rendering:auto;solid-color:#000000;text-decoration-color:#000000;text-decoration-line:none;text-decoration-style:solid;text-indent:0;text-orientation:mixed;text-transform:none;white-space:normal"/>
    <path d="m16.6 87.7c-3.38-0.0478-3.38 5.05 0 5h18c3.38 0.0478 3.38-5.05 0-5z" style="color-rendering:auto;color:#000000;dominant-baseline:auto;fill:#444444;font-feature-settings:normal;font-variant-alternates:normal;font-variant-caps:normal;font-variant-ligatures:normal;font-variant-numeric:normal;font-variant-position:normal;image-rendering:auto;isolation:auto;mix-blend-mode:normal;shape-padding:0;shape-rendering:auto;solid-color:#000000;text-decoration-color:#000000;text-decoration-line:none;text-decoration-style:solid;text-indent:0;text-orientation:mixed;text-transform:none;white-space:normal"/>
    <path d="m16.6 130c-3.38-0.0478-3.38 5.05 0 5h18c3.38 0.0478 3.38-5.05 0-5z" style="color-rendering:auto;color:#000000;dominant-baseline:auto;fill:#444444;font-feature-settings:normal;font-variant-alternates:normal;font-variant-caps:normal;font-variant-ligatures:normal;font-variant-numeric:normal;font-variant-position:normal;image-rendering:auto;isolation:auto;mix-blend-mode:normal;shape-padding:0;shape-rendering:auto;solid-color:#000000;text-decoration-color:#000000;text-decoration-line:none;text-decoration-style:solid;text-indent:0;text-orientation:mixed;text-transform:none;white-space:normal"/>
    <path d="m16.6 66.6c-3.38-0.0478-3.38 5.05 0 5h18c3.38 0.0478 3.38-5.05 0-5z" style="color-rendering:auto;color:#000000;dominant-baseline:auto;fill:#444444;font-feature-settings:normal;font-variant-alternates:normal;font-variant-caps:normal;font-variant-ligatures:normal;font-variant-numeric:normal;font-variant-position:normal;image-rendering:auto;isolation:auto;mix-blend-mode:normal;shape-padding:0;shape-rendering:auto;solid-color:#000000;text-decoration-color:#000000;text-decoration-line:none;text-decoration-style:solid;text-indent:0;text-orientation:mixed;text-transform:none;white-space:normal"/>
    <path d="m16.6 45.4c-3.38-0.0478-3.38 5.05 0 5h18c3.38 0.0478 3.38-5.05 0-5z" style="color-rendering:auto;color:#000000;dominant-baseline:auto;fill:#444444;font-feature-settings:normal;font-variant-alternates:normal;font-variant-caps:normal;font-variant-ligatures:normal;font-variant-numeric:normal;font-variant-position:normal;image-rendering:auto;isolation:auto;mix-blend-mode:normal;shape-padding:0;shape-rendering:auto;solid-color:#000000;text-decoration-color:#000000;text-decoration-line:none;text-decoration-style:solid;text-indent:0;text-orientation:mixed;text-transform:none;white-space:normal"/>
    <path d="m16.6 24.2c-3.38-0.0478-3.38 5.05 0 5h18c3.38 0.0478 3.38-5.05 0-5z" style="color-rendering:auto;color:#000000;dominant-baseline:auto;fill:#444444;font-feature-settings:normal;font-variant-alternates:normal;font-variant-caps:normal;font-variant-ligatures:normal;font-variant-numeric:normal;font-variant-position:normal;image-rendering:auto;isolation:auto;mix-blend-mode:normal;shape-padding:0;shape-rendering:auto;solid-color:#000000;text-decoration-color:#000000;text-decoration-line:none;text-decoration-style:solid;text-indent:0;text-orientation:mixed;text-transform:none;white-space:normal"/>
    <path d="m55.9 11.5c-2.61 0.0053-4.97 1.45-6.29 3.81-1.12 1.98-1.67 4.45-1.89 8.1l-0.0233 0.403-0.408 0.0134c-0.65 0.0223-1.12 0.0549-1.56 0.223-0.445 0.168-0.832 0.586-0.982 0.981-0.0804 0.211-0.0524 0.209-0.0584 0.264-0.0059 0.0547-0.01 0.108-0.0139 0.172-0.0079 0.128-0.0149 0.292-0.0212 0.496-0.0126 0.408-0.0226 0.975-0.0315 1.69-0.0178 1.42-0.0295 3.42-0.0295 5.79 0 4.29-7e-3 6.34 0.0724 7.46 0.0397 0.56 0.0769 0.913 0.282 1.28 0.205 0.364 0.56 0.534 0.677 0.597 0.317 0.172 0.485 0.154 0.805 0.178 0.32 0.0236 0.772 0.0376 1.47 0.0491 1.4 0.023 3.77 0.0298 7.84 0.031 3.67 0.0011 6.05-0.0053 7.54-0.0253 0.746-0.01 1.27-0.0227 1.64-0.0408 0.183-0.0091 0.325-0.0195 0.448-0.0336 0.123-0.014 0.172 0.0194 0.441-0.115 0.472-0.236 0.624-0.487 0.811-0.857 0.0817-0.162 0.152-0.405 0.183-0.676 0.0312-0.27 0.0455-0.619 0.0563-1.19 0.0216-1.14 0.0191-3.14 0.0062-6.87l-0.0295-8c0.0019-0.644-0.787-1.3-1.4-1.31h-1.78c0.0292-0.0841 0.0442-0.172 0.0444-0.261l-0.0016-0.822c-0.0051-2.04-0.534-4.66-1.32-6.48-1.32-3.07-3.63-4.86-6.49-4.85zm0.1 3.72c0.262-0.0127 0.496 0.0347 0.834 0.135 0.917 0.272 1.6 0.87 2.15 2.01 0.554 1.14 0.924 2.82 1.05 5.03l0.0739 1.3c0.0047 0.0726 0.0193 0.144 0.0434 0.213h-8.76v-0.869c0.0011-1.91 0.132-3.16 0.4-4.15 0.508-1.87 1.48-2.9 3.21-3.45 0.445-0.141 0.733-0.214 0.995-0.227z" style="color-rendering:auto;color:#000000;dominant-baseline:auto;fill:#ff0055;font-feature-settings:normal;font-variant-alternates:normal;font-variant-caps:normal;font-variant-ligatures:normal;font-variant-numeric:normal;font-variant-position:normal;image-rendering:auto;isolation:auto;mix-blend-mode:normal;paint-order:stroke markers fill;shape-padding:0;shape-rendering:auto;solid-color:#000000;text-decoration-color:#000000;text-decoration-line:none;text-decoration-style:solid;text-indent:0;text-orientation:mixed;text-transform:none;white-space:normal"/>
    <path d="m43.5 41.7a0.802 0.802 0 0 0 0.383 0.0977z" style="color-rendering:auto;color:#000000;dominant-baseline:auto;fill:#ff0055;font-feature-settings:normal;font-variant-alternates:normal;font-variant-caps:normal;font-variant-ligatures:normal;font-variant-numeric:normal;font-variant-position:normal;image-rendering:auto;isolation:auto;mix-blend-mode:normal;paint-order:stroke markers fill;shape-padding:0;shape-rendering:auto;solid-color:#000000;text-decoration-color:#000000;text-decoration-line:none;text-decoration-style:solid;text-indent:0;text-orientation:mixed;text-transform:none;white-space:normal"/>
    <text x="75.136574" y="30.356001" style="fill:#444444;font-family:sans-serif;font-size:10.6px;letter-spacing:0px;line-height:1.25;stroke-width:.265;word-spacing:0px" xml:space="preserve"><tspan x="75.136574" y="30.356001" style="fill:#444444;font-size:19.8px;font-weight:bold;stroke-width:.265">2019</tspan></text>
  </g>
</svg>
