<?xml version="1.0" encoding="UTF-8"?>
<svg width="531" height="446" enable-background="new 0 0 512 512" version="1.1" viewBox="0 0 531 446" xmlns="http://www.w3.org/2000/svg" xmlns:cc="http://creativecommons.org/ns#" xmlns:dc="http://purl.org/dc/elements/1.1/" xmlns:rdf="http://www.w3.org/1999/02/22-rdf-syntax-ns#">
  <metadata>
    <rdf:RDF>
      <cc:Work rdf:about="">
        <dc:format>image/svg+xml</dc:format>
        <dc:type rdf:resource="http://purl.org/dc/dcmitype/StillImage"/>
        <dc:title/>
      </cc:Work>
    </rdf:RDF>
  </metadata>
  <g transform="translate(2.74 -34.2)">
    <g>
      <path d="m420 39.2c-25.5 0.342-47.1 25.1-44.8 50.4-3e-3 7.99 0.215 16 0.189 24h-66.3c-0.197-18.9 3.27-40.7-9.76-56.4-15.2-20-46.5-24.2-66-7.98-13.9 10.9-19.8 29.6-17.8 46.8-0.0165 5.87-0.0142 11.7 0.124 17.6h-66.4c-0.23-19.3 3.32-41.5-10.4-57.2-15.7-20-47.9-23.2-66.8-5.88-13 10.7-18 28.3-16.4 44.6-0.178 5.26 1.68 11.5-2.1 16-18.8-10.4-42.7 3.94-48.4 23.2-2.85 8.75-1.23 18.8 4.99 25.7 2.15 4.62-2.87 9.03-3.37 13.7-7.89 26.8-3.26 55.1-4.49 82.6 0.506 11.6-2.03 24.3 3.42 35 5.97 10.3 19.1 14.7 30.2 12.1 6.11-0.282 11.5 5.79 9.58 11.8-0.983 45.9-0.0532 91.9-0.403 138-1.22 4.22 2.63 12.5-2.29 13.8-6.26 1.64-14.7-3.16-19 3.16-0.656 5.36 6.26 5.91 9.99 4.94 155-0.273 310 0.572 465-0.439 3.86-2.4 0.762-9.18-3.65-7.7-5.15 0.16-13.2 1.69-15.8-3.85v-159c12.2 0.696 26.6 2.09 35.9-7.63 10.9-12.1 5.73-29.3 6.75-43.9-0.768-30 4.25-61.5-8.77-89.7-0.387-3.16 4.55-5.53 5.3-9.16 9.83-24.6-18.7-52.7-43.3-44.1-2.95 0.513-8.1 5.81-6.59-0.217 0.344-18.2 2.17-39-11.1-53.5-9.18-10.8-23.6-16.8-37.7-16.3zm-158 7.97c22.4-0.725 41.6 21.5 38.7 43.5 0.574 15 0.894 32.6-10.9 43.8-15.8 17.1-47.2 14.9-59.8-5.01-9.02-13.2-7.11-29.8-6.82-44.9 0.684-14.4 9.35-28.2 22.8-33.9 5.01-2.28 10.5-3.49 16-3.49zm160 0c22.4-0.751 41.7 21.4 38.8 43.5 0.833 15.4 0.675 33.4-11.6 44.5-16.1 16.4-46.7 13.8-59.1-5.75-9.02-13.2-7.11-29.8-6.82-44.9 0.683-14.4 9.35-28.2 22.8-33.9 5.01-2.27 10.5-3.5 16-3.49zm-319 2e-3c22.4-0.744 41.7 21.4 38.8 43.5 0.832 15.4 0.675 33.4-11.6 44.5-16.1 16.4-46.7 13.8-59.1-5.76-9.01-13.2-7.11-29.8-6.81-44.9 0.685-14.4 9.36-28.2 22.8-33.9 5.01-2.27 10.5-3.49 16-3.48zm-62 68.3c10.7-0.146 16.6 13.2 11.9 22-4.45 13.2-19.9 24-33.8 18.4-9.89-5.75-7.93-20.4-1.27-27.9 5.36-7.29 13.9-12.6 23.2-12.5zm445 0.043c16.6 0.526 32.1 18.3 26.3 34.8-5.23 9.88-19.6 8.69-27.3 2.37-9.95-6.48-17.3-20.7-10.6-31.9 2.64-3.61 7.25-5.4 11.6-5.29zm-318 6.07h51c7.61 26.6 41.8 41.2 66 27.4 10.9-5.66 19.5-15.7 23.3-27.4h56.6c-28.4 21.1-44.8 56.8-41.8 92v61.1c-39.6-0.329-79.3-0.33-119 0-1.36-31.5 2.71-63.4-2.83-94.5-5.53-23.3-20.2-43.8-38.8-58.6h5.37zm-17.6 2.3c26.6 15.5 44.5 44.8 45.7 75.5-13.6 1.17-27.4-1.23-41 0.955-4.42 5.96-0.436 13.8-1.84 20.6v53.7c-33-0.334-65.9-0.332-98.9 0-0.705-24.4 1.17-49.3-0.916-73.3-5.56-4.11-13-0.572-19.4-1.74-7.55 5.1e-4 -15.1 1e-3 -22.7 2e-3 0.834-12 3.61-23.8 8.6-34.8 20.6 4.62 40.2-12.8 43.8-32.5 13.6 21.8 46.3 28.8 67 13.2 8.06-5.62 13.9-14 17.6-23 0.647 0.426 1.29 0.853 1.94 1.28zm229 0.836c9.39 24.6 41.7 37.3 64.9 24.3 7.52-3.76 13.5-9.91 18.9-16.1 3.76 19.5 23.2 36.5 43.6 31.9 4.97 10.9 7.74 22.6 8.59 34.5-13.8 1.3-27.6-1.41-41.2 1.09-4.19 6.03-0.295 13.7-1.69 20.4v53.7c-33-0.334-65.9-0.332-98.9 0-0.705-24.4 1.17-49.2-0.918-73.4-5.55-4.11-13-0.55-19.4-1.73-7.52 5.1e-4 -15 1e-3 -22.6 2e-3 1.19-31.5 20-61.6 47.6-76.8 0.325 0.618 0.65 1.24 0.975 1.86zm-333 82.9v88.4c-10.2-0.683-23.5 2.71-30.9-6.58-7.41-10.7-2.32-24.1-3.85-36v-45.9c11.6-3.6e-4 23.2-2e-3 34.8-2e-3zm117 2e-3c10.9 3.5e-4 21.9 2e-3 32.8 2e-3 -0.85 25.7 1.44 51.6-1.15 77.1-3.19 8.92-13.5 12.2-22.2 11.5-6.69 1.9-13.5-4.67-11.8-11.5 0.705-25.7 0.0603-51.5 0.303-77.2h1zm203 0v88.4c-10.2-0.677-23.5 2.7-30.9-6.56-7.32-10.4-2.42-23.5-3.87-35v-46.8c11.6-3.6e-4 23.2-2e-3 34.8-2e-3zm117 0c10.9 3.5e-4 21.9 2e-3 32.8 2e-3 -0.85 25.7 1.44 51.6-1.15 77.1-3.19 8.92-13.5 12.2-22.2 11.5-6.69 1.9-13.5-4.67-11.8-11.5 0.705-25.7 0.0603-51.5 0.303-77.2h1zm-426 74.6c32.3 0.581 64.5 0.368 96.8 0.0937v88.5h-99v-88.7c0.712 0.0482 1.42 0.0964 2.13 0.145zm150 0c38.9 0.577 77.9 0.382 117 0.0996-6e-4 61.6-1e-3 123-2e-3 185h-55.4c-0.653-32.8 1.13-65.9-0.887-98.6-2.84-3.26-9.07 0.503-7.07 4.53-0.192 31.4-0.0136 62.7-0.082 94.1h-55.5v-185c0.712 0.0482 1.42 0.0964 2.13 0.145zm170 4e-3c32.3 0.573 64.6 0.366 96.8 0.0918v88.5h-45.4c-1.08-15.8 1.59-32.3-1.27-47.7-3.84-2.91-8.79 1.95-6.83 6.03v41.6h-45.5v-88.7c0.711 0.0475 1.42 0.095 2.13 0.143zm-180 19.5v165h-34.8v-163c11.8-0.277 24.7 1.88 34.8-5.75v3.5zm138-1.59c9.95 5.43 21.2 3.36 32.1 3.94v163h-34.8v-168c0.902 0.341 1.8 0.682 2.71 1.02zm-277 78.7h43.5v88.3h-45.5v-88.3h1zm53.5 0h43.5v88.3h-45.5v-88.3h1zm266 0h43.5v88.3h-45.5v-88.3h1zm53.5 0h43.5v88.3h-45.5v-88.3h1z" style="fill:#444444"/>
      <path d="m376 114h-66.3c-0.197-18.9 3.27-40.7-9.76-56.4-15.2-20-46.5-24.2-66-7.98-13.9 10.9-19.8 29.6-17.8 46.8-0.0165 5.87-0.0142 11.7 0.124 17.6h-66.4s-5.11 8.27 1.69 11.9c48.5 26.2 43.1 86.6 43.4 162 0.202 61.1-3.28 121 0.478 179h135c0.158-83.3-0.261-198-0.261-198s-0.914-35.6 3.75-90.6c1.21-14.3 16.3-37.6 42.6-55.6 9-6.12 1.39-9.91-0.555-9.28zm-113-66.4c22.4-0.725 41.6 21.5 38.7 43.5 0.574 15 0.894 32.6-10.9 43.8-15.8 17.1-47.2 14.9-59.8-5.01-9.02-13.2-7.11-29.8-6.82-44.9 0.684-14.4 9.35-28.2 22.8-33.9 5.01-2.28 10.5-3.49 16-3.49zm-95.7 74.4h51c7.61 26.6 41.8 41.2 66 27.4 10.9-5.66 19.5-15.7 23.3-27.4h56.6c-28.4 21.1-44.8 56.8-41.8 92v61.1c-39.6-0.329-79.3-0.33-119 0-1.36-31.5 2.71-63.4-2.83-94.5-5.53-23.3-20.2-43.8-38.8-58.6zm38.3 161c38.9 0.577 77.9 0.382 117 0.0996-6e-4 61.6-1e-3 123-2e-3 185h-55.4c-0.653-32.8 1.13-65.9-0.887-98.6-2.84-3.26-9.07 0.503-7.07 4.53-0.192 31.4-0.0136 69.2-0.082 94.1h-55.5v-185c0.712 0.0482 1.42 0.0964 2.13 0.145zm125 185z" style="fill:#ff0055"/>
    </g>
  </g>
</svg>
