<?xml version="1.0" encoding="UTF-8"?>
<!-- Created with Inkscape (http://www.inkscape.org/) -->
<svg width="167mm" height="185mm" version="1.1" viewBox="0 0 167 185" xmlns="http://www.w3.org/2000/svg" xmlns:cc="http://creativecommons.org/ns#" xmlns:dc="http://purl.org/dc/elements/1.1/" xmlns:rdf="http://www.w3.org/1999/02/22-rdf-syntax-ns#">
  <metadata>
    <rdf:RDF>
      <cc:Work rdf:about="">
        <dc:format>image/svg+xml</dc:format>
        <dc:type rdf:resource="http://purl.org/dc/dcmitype/StillImage"/>
        <dc:title/>
      </cc:Work>
    </rdf:RDF>
  </metadata>
  <g transform="translate(256 23.2)">
    <path d="m-181 13.5c-0.612 0.0671-1.2 0.222-1.75 0.469-2.21 0.986-3.45 3.05-4.28 5.21-1.67 4.32-2.03 9.85-2.72 12.7a2 2 0 0 0-0.0391 0.199c-0.791 5.8-5.76 9.32-11.3 11.7-4.52 0.467-9.42 0.176-14.4 0.381a2 2 0 0 0-0.141 0.0117c-2.16 0.242-4.75-0.0531-7.5-2e-3 -2.74 0.0511-5.77 0.526-8.34 2.65a2 2 0 0 0-0.164 0.15c-7.22 7.48-13.3 16.5-16.2 26.8-2.7 3.77-3.62 9.17-2.5 13.5 0.581 2.27 1.87 4.43 4.16 5.35 2.29 0.915 5.07 0.355 8.04-1.49a2 2 0 0 0 0.684-0.707c3.06-5.34 4.46-11.1 6.47-16.3-0.205 4.54-0.389 9.05-0.531 13.7-4.22 15.3-9.06 30.6-13.4 46a2 2 0 0 0-0.041 0.178c-0.519 2.8-2.37 6.86-3.1 11-0.366 2.05-0.454 4.19 0.266 6.24 0.719 2.05 2.32 3.89 4.72 5.12a2 2 0 0 0 0.15 0.0684c3.99 1.63 8.8 0.231 11.2-3.41a2 2 0 0 0 0.23-0.475c3.93-11.9 7.38-23.9 10.9-35.8-0.162 7.24-0.303 14.5-0.469 21.7a2 2 0 0 0 8e-3 0.213c0.169 2.02-0.235 4.51-0.289 7.17-0.0543 2.66 0.339 5.67 2.49 8.16a2 2 0 0 0 0.18 0.182c2.49 2.23 5.13 3.22 7.58 2.89 2.45-0.325 4.41-1.88 5.79-3.8 2.68-3.72 3.69-9 2.67-13.5 0.708-26.9 1.01-53.8 4.05-80.4 8.83-2.69 17.9-7.96 21.8-17.1a2 2 0 0 0 0.0879-0.248c1.04-3.65 2.8-8.02 3.77-12.5 0.967-4.51 1.14-9.35-1.4-13.6a2 2 0 0 0-0.684-0.689c-2.16-1.31-4.23-1.9-6.07-1.7zm1.36 3.99c0.538 0.0977 1.31 0.469 2.16 0.93 1.55 2.97 1.54 6.43 0.715 10.3-0.852 3.97-2.51 8.16-3.64 12.1-3.48 7.96-12 12.9-20.5 15.3a2 2 0 0 0-1.46 1.7c-3.22 27.3-3.48 54.8-4.2 82.1a2 2 0 0 0 0.0644 0.559c0.829 3.17-0.0858 8.03-1.98 10.7-0.947 1.32-2 2.03-3.07 2.17-1.05 0.139-2.42-0.223-4.26-1.82-1.23-1.48-1.52-3.16-1.47-5.36 0.0459-2.25 0.505-4.85 0.275-7.59l8e-3 0.213c0.279-12.2 0.649-24.4 0.785-36.6a2 2 0 0 0-3.91-0.621c-5.18 16.5-9.61 33.2-15 49.5-1.25 1.72-4.17 2.57-6.16 1.8-1.6-0.837-2.31-1.73-2.69-2.82-0.389-1.11-0.398-2.55-0.0996-4.21 0.596-3.33 2.42-7.28 3.1-10.9l-0.043 0.176c4.33-15.4 9.21-30.8 13.5-46.3a2 2 0 0 0 0.0723-0.471c0.221-7.44 0.858-15 0.875-22.6a2 2 0 0 0-3.56-1.26c-5.9 7.35-6.7 16.6-10.5 23.6-2.03 1.14-3.32 1.24-4 0.971-0.737-0.294-1.39-1.11-1.77-2.62-0.776-3.03 0.17-8.12 2.04-10.5a2 2 0 0 0 0.348-0.695c2.62-9.5 8.32-18.1 15.2-25.2 1.61-1.31 3.47-1.66 5.81-1.71 2.36-0.044 5.06 0.293 7.87-0.0215l-0.141 0.0117c4.77-0.197 9.87 0.146 15-0.418a2 2 0 0 0 0.564-0.146c6.14-2.62 12.8-7.06 13.9-14.9 0.836-3.54 1.26-8.73 2.54-12 0.648-1.68 1.44-2.67 2.17-2.99 0.365-0.163 0.83-0.256 1.49-0.137z" style="color-rendering:auto;color:#000000;dominant-baseline:auto;fill:#ff0055;font-feature-settings:normal;font-variant-alternates:normal;font-variant-caps:normal;font-variant-ligatures:normal;font-variant-numeric:normal;font-variant-position:normal;image-rendering:auto;isolation:auto;mix-blend-mode:normal;shape-padding:0;shape-rendering:auto;solid-color:#000000;text-decoration-color:#000000;text-decoration-line:none;text-decoration-style:solid;text-indent:0;text-orientation:mixed;text-transform:none;white-space:normal"/>
    <path d="m-165 13.7a2 2 0 0 0-0.33 0.0273c-2.83 0.475-4.98 1.88-6.17 3.82-1.19 1.94-1.45 4.19-1.36 6.4 0.181 4.43 1.78 9.12 2.41 12.1l-0.01-0.0469c2.23 12.1 12.4 20.7 23.6 23.7a2 2 0 0 0 0.299 0.0566c0.363 0.0406 0.145-0.0236 0.164 0.0078 0.0191 0.0314 0.142 0.387 0.172 0.975 0.0604 1.18-0.329 2.96 0.395 4.94l-0.109-0.453c2.56 21.9 2.85 44 3.3 66.2a2 2 0 0 0 0.043 0.369c0.666 3.16-0.0199 7.88 0.0801 12.5 0.05 2.31 0.313 4.63 1.25 6.79 0.935 2.16 2.62 4.09 5.12 5.33a2 2 0 0 0 0.207 0.0898c4.75 1.72 9.54-1.25 11.5-5.32a2 2 0 0 0 0.193-0.768c0.534-11.2 0.0655-22.2-0.182-33.3 3.32 10.9 6.41 22 10.1 33l-0.082-0.342c0.388 2.63 1.89 4.68 3.81 5.78 1.92 1.11 4.15 1.37 6.27 1.03 2.11-0.341 4.15-1.3 5.66-2.91 1.51-1.62 2.41-3.97 2.08-6.56a2 2 0 0 0-0.0449-0.24c-4.88-19.3-10.9-38.3-16.4-57.4-0.767-5.05-0.859-10.4-1.04-15.8 1.02 2.63 1.94 5.56 2.78 7.74 0.159 4.39 2.82 8.49 6.33 10.6 1.84 1.11 4.08 1.69 6.24 0.938 2.16-0.753 3.85-2.75 4.83-5.67a2 2 0 0 0 0.0879-0.898c-1.09-8.38-4.58-16.2-7.72-23.6a2 2 0 0 0-0.256-0.438c-4.28-5.57-7.54-14.1-15.9-17.4a2 2 0 0 0-0.592-0.137c-8.14-0.582-16.4-0.309-24.4-0.543-4.79-1.28-9.82-4.44-11.5-8.89a2 2 0 0 0-0.174-0.355c-1.52-2.46-1.62-6.87-2.28-11.2-0.327-2.16-0.824-4.33-2.05-6.23-1.23-1.9-3.29-3.4-6.04-3.96a2 2 0 0 0-0.396-0.0391zm-0.0391 4.1c1.57 0.398 2.46 1.05 3.11 2.07 0.717 1.11 1.17 2.73 1.46 4.65 0.571 3.77 0.43 8.53 2.72 12.4 2.37 6.24 8.63 9.86 14.3 11.3a2 2 0 0 0 0.438 0.0625c8.12 0.249 16.2-6e-3 24.1 0.525 6.13 2.56 9.17 9.64 13.8 15.8 3.06 7.21 6.2 14.5 7.27 21.9-0.696 1.79-1.49 2.56-2.16 2.79-0.734 0.256-1.7 0.117-2.85-0.58-2.3-1.39-4.54-5.01-4.49-7.72a2 2 0 0 0-0.137-0.768c-0.803-2.06-1.82-5.41-3.04-8.46-0.609-1.52-1.27-2.98-2.04-4.23-0.776-1.25-1.63-2.38-3.06-3.01a2 2 0 0 0-2.79 2.04c0.808 7.59 0.225 15.6 1.46 23.7a2 2 0 0 0 0.0547 0.248c5.48 19.1 11.5 38 16.3 57.2 0.166 1.45-0.244 2.43-1.03 3.27-0.798 0.853-2.06 1.48-3.38 1.7-1.33 0.214-2.67 5e-3 -3.63-0.549-0.958-0.554-1.62-1.35-1.85-2.9a2 2 0 0 0-0.082-0.344c-5.05-15.1-8.75-30.8-14.1-46a2 2 0 0 0-3.88 0.607c-0.472 15.5 1.03 31.1 0.355 46.3-1.23 2.25-3.92 3.8-6.24 3.04-1.62-0.839-2.52-1.88-3.12-3.27-0.617-1.42-0.874-3.24-0.918-5.28-0.0885-4.08 0.747-8.89-0.166-13.2l0.043 0.371c-0.456-22.2-0.736-44.4-3.33-66.6a2 2 0 0 0-0.109-0.455c-0.137-0.374-0.0642-2.02-0.154-3.77-0.0451-0.877-0.15-1.86-0.754-2.85s-1.84-1.75-3.13-1.9l0.299 0.0566c-10-2.7-18.8-10.3-20.7-20.6a2 2 0 0 0-8e-3 -0.0469c-0.721-3.44-2.19-7.93-2.33-11.5-0.072-1.77 0.191-3.2 0.771-4.15 0.532-0.87 1.39-1.48 3.05-1.84z" style="color-rendering:auto;color:#000000;dominant-baseline:auto;fill:#ff0055;font-feature-settings:normal;font-variant-alternates:normal;font-variant-caps:normal;font-variant-ligatures:normal;font-variant-numeric:normal;font-variant-position:normal;image-rendering:auto;isolation:auto;mix-blend-mode:normal;shape-padding:0;shape-rendering:auto;solid-color:#000000;text-decoration-color:#000000;text-decoration-line:none;text-decoration-style:solid;text-indent:0;text-orientation:mixed;text-transform:none;white-space:normal"/>
    <path d="m-212 9.12c-5.48-0.536-11.2 1.38-14.9 5.94-8.64 9.05-3.86 25.2 8.1 28.5 2.01 0.641 4.07 0.772 6.02 0.664 12.8-0.0803 21.3-15.6 14.3-26.4-2.78-5.2-8.02-8.18-13.5-8.72zm-0.396 4.05c4.26 0.416 8.34 2.68 10.4 6.61a2 2 0 0 0 0.0977 0.164c5.25 8.01-1.38 20.2-11 20.3a2 2 0 0 0-0.109 0.0039c-1.65 0.0969-3.26-0.0286-4.69-0.492a2 2 0 0 0-0.0937-0.0273c-8.96-2.42-12.8-15.2-6.25-21.9a2 2 0 0 0 0.115-0.131c2.79-3.45 7.22-4.88 11.5-4.46z" style="color-rendering:auto;color:#000000;dominant-baseline:auto;fill:#ff0055;font-feature-settings:normal;font-variant-alternates:normal;font-variant-caps:normal;font-variant-ligatures:normal;font-variant-numeric:normal;font-variant-position:normal;image-rendering:auto;isolation:auto;mix-blend-mode:normal;shape-padding:0;shape-rendering:auto;solid-color:#000000;text-decoration-color:#000000;text-decoration-line:none;text-decoration-style:solid;text-indent:0;text-orientation:mixed;text-transform:none;white-space:normal"/>
    <path d="m-130 9.05c-5.68-0.181-11.4 2.24-14.8 7.28-7.66 9.62-1.83 25 10.1 27.5 1.55 0.35 3.07 0.409 4.52 0.369 13.2 0.32 22.2-16 14.5-26.9-3.04-5.29-8.62-8.07-14.3-8.25zm-0.139 4.08c4.41 0.137 8.76 2.23 11 6.23a2 2 0 0 0 0.113 0.178c5.78 8.1-1.29 21-11.1 20.7a2 2 0 0 0-0.113 0c-1.27 0.0377-2.49-0.0267-3.6-0.279a2 2 0 0 0-0.0273-0.0059c-8.91-1.89-13.5-14-7.76-21.2a2 2 0 0 0 0.113-0.154c2.51-3.8 6.98-5.61 11.4-5.47z" style="color-rendering:auto;color:#000000;dominant-baseline:auto;fill:#ff0055;font-feature-settings:normal;font-variant-alternates:normal;font-variant-caps:normal;font-variant-ligatures:normal;font-variant-numeric:normal;font-variant-position:normal;image-rendering:auto;isolation:auto;mix-blend-mode:normal;shape-padding:0;shape-rendering:auto;solid-color:#000000;text-decoration-color:#000000;text-decoration-line:none;text-decoration-style:solid;text-indent:0;text-orientation:mixed;text-transform:none;white-space:normal"/>
    <path d="m-194-9.05c-0.981-0.0373-1.89 0.189-2.67 0.746-1.56 1.11-1.89 2.97-1.75 4.58 0.257 2.99 2.02 6.22 5.21 7.61 1.62 1.55 3.29 3.55 5.73 5.01a2 2 0 0 0 1.4 0.246c1.35-0.262 2.46-0.655 3.38-1.31 0.918-0.656 1.61-1.67 1.8-2.73 0.397-2.12-0.655-3.84-1.83-5.41-2.34-3.14-6.12-6.12-7.69-7.56a2 2 0 0 0-0.508-0.34c-1.05-0.495-2.1-0.797-3.08-0.834zm-0.344 4c-0.0548 0.0392 0.456-0.0345 1.55 0.406 1.9 1.73 5.16 4.43 6.87 6.73 0.899 1.2 1.12 2.18 1.1 2.28-9e-3 0.0503 0.0473 0.0344-0.197 0.209-0.142 0.101-0.671 0.239-1.05 0.371-1.47-1.05-2.85-2.52-4.49-4.06a2 2 0 0 0-0.766-0.451c-1.44-0.459-2.97-2.91-3.11-4.5-0.0684-0.794 0.155-1.02 0.0937-0.98z" style="color-rendering:auto;color:#000000;dominant-baseline:auto;fill:#444444;font-feature-settings:normal;font-variant-alternates:normal;font-variant-caps:normal;font-variant-ligatures:normal;font-variant-numeric:normal;font-variant-position:normal;image-rendering:auto;isolation:auto;mix-blend-mode:normal;shape-padding:0;shape-rendering:auto;solid-color:#000000;text-decoration-color:#000000;text-decoration-line:none;text-decoration-style:solid;text-indent:0;text-orientation:mixed;text-transform:none;white-space:normal"/>
    <path d="m-151-9.09a2 2 0 0 0-1.21 0.443c-1.57 1.27-5.34 3.59-8.15 6.36-1.4 1.39-2.64 2.91-3.16 4.82-0.52 1.91 0.0269 4.22 1.69 5.9a2 2 0 0 0 1.37 0.596c1.01 0.025 1.78-0.267 2.65-0.643 0.868-0.376 1.78-0.883 2.73-1.49 1.89-1.21 3.89-2.82 5.55-4.59 1.65-1.76 3.06-3.61 3.35-5.87 0.146-1.13-0.112-2.44-0.902-3.44-0.79-1-1.95-1.63-3.33-2.02a2 2 0 0 0-0.592-0.0742zm0.275 4.31c0.13 0.0871 0.468 0.21 0.506 0.258 0.0945 0.12 0.117 0.134 0.0762 0.453-0.0824 0.638-0.927 2.18-2.3 3.65-1.37 1.46-3.18 2.92-4.79 3.96-0.805 0.517-1.56 0.928-2.16 1.19-0.112 0.0485-0.0811 0.0235-0.182 0.0586-0.174-0.379-0.208-0.732-0.082-1.19 0.208-0.765 0.969-1.9 2.12-3.03 1.98-1.96 4.74-3.79 6.82-5.33z" style="color-rendering:auto;color:#000000;dominant-baseline:auto;fill:#444444;font-feature-settings:normal;font-variant-alternates:normal;font-variant-caps:normal;font-variant-ligatures:normal;font-variant-numeric:normal;font-variant-position:normal;image-rendering:auto;isolation:auto;mix-blend-mode:normal;shape-padding:0;shape-rendering:auto;solid-color:#000000;text-decoration-color:#000000;text-decoration-line:none;text-decoration-style:solid;text-indent:0;text-orientation:mixed;text-transform:none;white-space:normal"/>
    <path d="m-172-18.2c-1.45 0.0082-2.87 0.759-4 1.99a2 2 0 0 0-0.119 0.145c-1.23 1.62-1.22 3.48-1.14 4.96 0.0872 1.48 0.239 2.77 0.109 3.51a2 2 0 0 0 8e-3 0.732c0.143 0.717-0.0512 2.11-0.139 3.73-0.0839 1.55 0.109 3.63 1.65 5.13 1.18 1.41 3.09 1.93 4.57 1.57 1.5-0.364 2.64-1.28 3.48-2.35a2 2 0 0 0 0.367-0.744c0.944-3.71 0.183-7.48 0.383-10.4 4e-5 -5.82e-4 -4e-5 -0.00137 0-0.00195 0.688-2.44 0.0213-4.94-1.59-6.65-0.867-0.921-2.13-1.63-3.58-1.62zm0.0234 4c0.152-8.55e-4 0.35 0.0584 0.641 0.367 0.581 0.618 0.982 2.14 0.633 3.07a2 2 0 0 0-0.123 0.566c-0.237 3.46 0.222 6.78-0.236 9.19-0.336 0.304-0.714 0.633-0.945 0.689-0.313 0.0761-0.24 0.183-0.586-0.246a2 2 0 0 0-0.24-0.25c-0.437-0.382-0.52-0.861-0.453-2.1 0.0671-1.24 0.439-2.87 0.0684-4.73l8e-3 0.732c0.296-1.7 0.0171-3.22-0.0547-4.43-0.0695-1.18 0.0555-1.85 0.322-2.24 0.489-0.48 0.831-0.624 0.967-0.625z" style="color-rendering:auto;color:#000000;dominant-baseline:auto;fill:#444444;font-feature-settings:normal;font-variant-alternates:normal;font-variant-caps:normal;font-variant-ligatures:normal;font-variant-numeric:normal;font-variant-position:normal;image-rendering:auto;isolation:auto;mix-blend-mode:normal;shape-padding:0;shape-rendering:auto;solid-color:#000000;text-decoration-color:#000000;text-decoration-line:none;text-decoration-style:solid;text-indent:0;text-orientation:mixed;text-transform:none;white-space:normal"/>
  </g>
</svg>
