<?xml version="1.0" encoding="UTF-8"?>
<!-- Created with Inkscape (http://www.inkscape.org/) -->
<svg width="207mm" height="125mm" version="1.1" viewBox="0 0 207 125" xmlns="http://www.w3.org/2000/svg" xmlns:cc="http://creativecommons.org/ns#" xmlns:dc="http://purl.org/dc/elements/1.1/" xmlns:rdf="http://www.w3.org/1999/02/22-rdf-syntax-ns#">
  <metadata>
    <rdf:RDF>
      <cc:Work rdf:about="">
        <dc:format>image/svg+xml</dc:format>
        <dc:type rdf:resource="http://purl.org/dc/dcmitype/StillImage"/>
        <dc:title/>
      </cc:Work>
    </rdf:RDF>
  </metadata>
  <g transform="translate(-4.74 -14.7)">
    <path d="m71.4 91.4v-2.22l8.88-0.13v4.91l-6.71 0.098" style="fill:none;paint-order:fill markers stroke;stroke-linecap:round;stroke-linejoin:round;stroke-width:.794;stroke:#ff0055"/>
    <path d="m202 42.9-117 27.2c-0.454 0.0899 0 6.83 0 6.83 0 0.463 117-15.7 117-15.7 0.459-0.0616 0.414-17.6 0.414-17.6 0-0.463-0.377-0.83-0.828-0.725z" style="fill:none;paint-order:fill markers stroke;stroke-linecap:round;stroke-linejoin:round;stroke-width:.794;stroke:#ff0055"/>
    <circle cx="154" cy="111" r="5.33" style="fill:none;paint-order:fill markers stroke;stroke-linecap:round;stroke-linejoin:round;stroke-width:.794;stroke:#ff0055"/>
    <ellipse cx="119" cy="106" rx="3.63" ry="4.3" style="fill:none;paint-order:fill markers stroke;stroke-linecap:round;stroke-linejoin:round;stroke-width:.794;stroke:#ff0055"/>
    <path d="m163 114c8.82 0.535 10.6-1.74 10.3-5.21-0.267-3.47 2.54-6.01-15.5-9.89-13.9-7.41-24.7-8.31-30.6-7.51-6.01 0.813-16.5 4.52-14.2 13.1 0.619 2.3 1.3 2.03 1.3 2.03" style="fill:none;stroke-width:.794;stroke:#444444"/>
    <path d="m206 22.1c0 0.29-122 42.6-122 42.6l-73.5-15.1c-0.284-0.0574 0-29.6 0-29.6" style="fill:none;paint-order:fill markers stroke;stroke-linecap:round;stroke-linejoin:round;stroke-width:.794;stroke:#ff0055"/>
    <path d="m64.8 93.6-21.5 0.0175 1e-6 -35.8 38 7.88v20.6" style="fill:none;paint-order:fill markers stroke;stroke-linecap:round;stroke-linejoin:round;stroke-width:.794;stroke:#ff0055"/>
    <path d="m121 96.9c-0.383-1.1 0.962-1.99 3.85-3.8 3.1-1.94 13.5-0.207 15.1 1.13 1.6 1.34 6.6 4.65 6.15 5.48-0.509 0.925-24.7-1.68-25.1-2.81z" style="fill:none;stroke-width:.794;stroke:#444444"/>
    <path d="m123 108 24.5 3.34" style="fill:none;stroke-width:.794;stroke:#000000"/>
    <path d="m158 98.6c-5.08 0.935-9.22 0.401-11.9-1.6-2.67-2-8.02-3.9-5.88-3.88 2.09 0.025 2.83 0.0769 3.64-0.313" style="fill:none;stroke-width:.794;stroke:#444444"/>
    <ellipse transform="matrix(.993 -.12 .16 .987 0 0)" cx="57.8" cy="124" rx="14" ry="3.39" style="fill:none;paint-order:fill markers stroke;stroke-linecap:round;stroke-linejoin:round;stroke-width:.794;stroke:#ff0055"/>
    <ellipse transform="matrix(.998 -.0644 .124 .992 0 0)" cx="71.8" cy="112" rx="7.64" ry="1.68" style="fill:none;paint-order:fill markers stroke;stroke-linecap:round;stroke-linejoin:round;stroke-width:.794;stroke:#ff0055"/>
    <path d="m93.5 119c3.78-0.378 5.59-0.504 6.05-9.07 0.105-1.96 0.189-1.32 1.89-1.13 1.7 0.189 3.59-1.32 2.27 7.18-1.32 8.5-6.61 6.05-10 6.99-3.4 0.945-3.21 0.756-3.21 0.756" style="fill:none;stroke-width:.794;stroke:#444444"/>
    <path d="m76.2 117c7.18-0.567 12.8-1.42 15.9-2.65 2.08-1.32 2.08 10.4-0.378 11-2.36 1.13-15.5 6.3-15.5 5.21z" style="fill:#ffffff;stroke-width:.794;stroke:#444444"/>
    <path d="m76 125c-3.49 0.0468-3.44 1.04-3.44 1.04l3.57 4.48" style="fill:none;stroke-width:.794;stroke:#444444"/>
    <path d="m102 120c1.7 2.65 2.08 9.26 2.08 9.26" style="fill:none;stroke-width:.794;stroke:#444444"/>
    <path d="m98.8 122c1.32 1.89 1.13 5.29 1.13 5.29" style="fill:none;stroke-width:.794;stroke:#444444"/>
    <path d="m53.4 120c2 7.09 7.7 1.79 11.8 3.21 2.05 0.723 3.21 5.29 3.4 8.13l0.189 2.83" style="fill:none;stroke-width:.794;stroke:#444444"/>
    <path d="m52.5 125c0.955 2.98 0.666 6.31 10.8 4.12 4.39-0.948 4.77-0.602 5.13 0.481" style="fill:none;stroke-width:.794;stroke:#444444"/>
    <path d="m67.3 103c0-2.46 0.189-6.24 2.08-8.32 1.89-2.08 2.65 1.51 2.65 2.65v6.24" style="fill:none;stroke-width:.794;stroke:#444444"/>
    <ellipse cx="71.7" cy="93.4" rx="1.42" ry="1.8" style="fill:#ffffff;paint-order:fill markers stroke;stroke-linecap:round;stroke-linejoin:round;stroke-width:.794;stroke:#ff0055"/>
    <path d="m77.7 102c-1.51-3.78 0.159-8.31 3.58-3.96 3.42 4.34 3.42 4.34 3.42 4.34" style="fill:none;stroke-width:.794;stroke:#444444"/>
    <ellipse transform="matrix(-.948 .317 .317 .948 0 0)" cx="-44.1" cy="114" rx="1.42" ry="1.8" style="fill:#ffffff;paint-order:fill markers stroke;stroke-linecap:round;stroke-linejoin:round;stroke-width:.794;stroke:#ff0055"/>
    <path d="m64.3 129 0.132 1.55" style="fill:none;stroke-width:.794;stroke:#444444"/>
  </g>
</svg>
