<svg width="512" height="512" version="1.1" viewBox="0 0 60 60" xmlns="http://www.w3.org/2000/svg">
  <g style="fill:#444">
    <path d="m10.5 39c-2.49 0-4.5 2.01-4.5 4.5s2.01 4.5 4.5 4.5c2.49 0 4.5-2.01 4.5-4.5-0.0055-2.48-2.02-4.49-4.5-4.5zm0 7c-1.38 0-2.5-1.12-2.5-2.5s1.12-2.5 2.5-2.5c1.38 0 2.5 1.12 2.5 2.5s-1.12 2.5-2.5 2.5z"/>
    <path d="m49.5 39c-2.49 0-4.5 2.01-4.5 4.5s2.01 4.5 4.5 4.5 4.5-2.01 4.5-4.5c-0.0055-2.48-2.02-4.49-4.5-4.5zm0 7c-1.38 0-2.5-1.12-2.5-2.5s1.12-2.5 2.5-2.5 2.5 1.12 2.5 2.5-1.12 2.5-2.5 2.5z"/>
    <path d="m56 30h-4.5c-1.67-5.74-1.55-5.39-1.7-5.6-1-1.36-3.22-2.3-5.8-2.95v-3.45h8c1.66 0 3-1.34 3-3v-12c0-1.66-1.34-3-3-3h-44c-1.66 0-3 1.34-3 3v12c0 1.66 1.34 3 3 3h8v3.45c-2.58 0.65-4.78 1.59-5.8 2.95-0.15 0.21 0-0.14-1.7 5.6h-4.5c-2.21 0-4 1.79-4 4 0.00958 1.79 1.2 3.35 2.92 3.83-0.597 0.95-0.916 2.05-0.92 3.17v5c0.00713 2.54 1.61 4.79 4 5.64v5.36c0 1.66 1.34 3 3 3h6c1.66 0 3-1.34 3-3v-5h24v5c0 1.66 1.34 3 3 3h6c1.66 0 3-1.34 3-3v-5.36c2.39-0.845 3.99-3.1 4-5.64v-5c-0.00427-1.12-0.323-2.22-0.92-3.17 0.659-0.178 1.26-0.523 1.75-1 1.15-1.14 1.49-2.87 0.868-4.36-0.62-1.5-2.08-2.47-3.7-2.47zm-14-9c-0.66-0.13-1.33-0.24-2-0.33v-2.67h2zm-4-3v2.44c-5.32-0.58-10.7-0.58-16 0v-2.44zm-31-3v-12c0-0.552 0.448-1 1-1h44c0.552 0 1 0.448 1 1v12c0 0.552-0.448 1-1 1h-44c-0.552 0-1-0.448-1-1zm11 3h2v2.69c-0.67 0.09-1.34 0.2-2 0.33zm-6.1 7.47c2.2-2.47 12.2-3.47 18.1-3.47s15.9 0.95 18.1 3.47c2 7 1.46 4.91 2.56 9.27-13.7-2.31-27.6-2.31-41.3 0 1.09-4.34 0.49-2.15 2.56-9.27zm-9.9 8.53c0-1.1 0.895-2 2-2h4l-0.76 3c-0.912 0.134-1.78 0.476-2.54 1h-0.7c-1.1 0-2-0.895-2-2zm14 23c0 0.552-0.448 1-1 1h-6c-0.552 0-1-0.448-1-1v-5h8zm36 0c0 0.552-0.448 1-1 1h-6c-0.552 0-1-0.448-1-1v-5h8zm4-11c0 2.21-1.79 4-4 4-47.2 0-44.2 0-44.8-0.08-1.87-0.376-3.21-2.02-3.21-3.92v-5c0-2.21 1.79-4 4-4h0.11c0.0298 0.00504 0.0602 0.00504 0.09 0 7.19-1.3 14.5-1.97 21.8-2 7.38 0.0255 14.7 0.695 22 2 2.21 0 4 1.79 4 4zm1.41-10.6c-0.373 0.376-0.88 0.588-1.41 0.59h-0.7c-0.75-0.52-1.61-0.862-2.51-1l-0.79-3h4c0.806 0.00339 1.53 0.491 1.84 1.24s0.139 1.6-0.43 2.17z" style="fill:#f05;"/>
    <path d="m38 39h-16c-1.66 0-3 1.34-3 3v3c0 1.66 1.34 3 3 3h16c1.66 0 3-1.34 3-3v-3c0-1.66-1.34-3-3-3zm1 6c0 0.552-0.448 1-1 1h-16c-0.552 0-1-0.448-1-1v-3c0-0.552 0.448-1 1-1h16c0.552 0 1 0.448 1 1z"/>
    <path d="m21 11.5c0-2-2-3.5-4.5-3.5-1.5 0-2.5-0.79-2.5-1.5s1-1.5 2.5-1.5 2.5 0.79 2.5 1.5c0 0.552 0.448 1 1 1 2 0 1-4.5-3.5-4.5-2.5 0-4.5 1.54-4.5 3.5s2 3.5 4.5 3.5c1.47 0 2.5 0.79 2.5 1.5s-1 1.5-2.5 1.5-2.5-0.79-2.5-1.5c0-0.552-0.448-1-1-1-2 0-1 4.5 3.5 4.5 2.5 0 4.5-1.54 4.5-3.5z" style="fill:#444;"/>
    <path d="m34 15h5c0.552 0 1-0.448 1-1s-0.448-1-1-1h-4v-9c0-0.552-0.448-1-1-1s-1 0.448-1 1v10c0 0.552 0.448 1 1 1z" style="fill:#444;"/>
    <g transform="matrix(.164 0 0 .189 -11 -7.07)" style="fill:#444;" aria-label="O">
      <path d="m201 85.7q0-9.33 2.79-15.7 2.08-4.67 5.67-8.38 3.62-3.71 7.92-5.5 5.71-2.42 13.2-2.42 13.5 0 21.6 8.38 8.12 8.38 8.12 23.3 0 14.8-8.04 23.2-8.04 8.33-21.5 8.33-13.6 0-21.7-8.29-8.04-8.33-8.04-22.9zm12.7-0.417q0 10.4 4.79 15.8 4.79 5.33 12.2 5.33t12.1-5.29q4.75-5.33 4.75-16 0-10.5-4.62-15.7-4.58-5.17-12.2-5.17t-12.3 5.25q-4.67 5.21-4.67 15.8z"/>
    </g>
    <g transform="matrix(.164 0 0 .189 7.95 -7.07)" style="fill:#444;" aria-label="D">
      <path d="m204 54.8h22.5q7.62 0 11.6 1.17 5.38 1.58 9.21 5.63 3.83 4.04 5.83 9.92 2 5.83 2 14.4 0 7.54-1.88 13-2.29 6.67-6.54 10.8-3.21 3.12-8.67 4.88-4.08 1.29-10.9 1.29h-23.2zm12.3 10.3v40.5h9.21q5.17 0 7.46-0.583 3-0.75 4.96-2.54 2-1.79 3.25-5.87 1.25-4.12 1.25-11.2t-1.25-10.9q-1.25-3.79-3.5-5.92t-5.71-2.88q-2.58-0.583-10.1-0.583z"/>
    </g>
  </g>
</svg>
