<svg width="190mm" height="190mm" version="1.1" viewBox="0 0 190 190" xmlns="http://www.w3.org/2000/svg">
  <g transform="translate(45 -20)" style="font-size:1em; font-family:Source Sans Pro, Helvetica, sans-serif;fill:#444;">
    <path d="m49.5 54.3h23.4c2.8 30.3 11.4 59.9 21.2 89.2h-17c-6.2-23.5-13.7-46.5-15.1-72-2.89 25.4-7.58 49.6-15.5 72h-18.1c10.2-29.4 19.9-58.8 21.2-89.2z" style="fill:#ff0055;paint-order:stroke markers fill"/>
    <path d="m20.9 140a2.24 2.24 0 0 0-1.94 3.36l17.4 30.1a2.24 2.24 0 0 0 3.88 0l17.4-30.1a2.24 2.24 0 0 0-1.94-3.36z" style="color-rendering:auto;color:#000000;dominant-baseline:auto;fill:#ff0055;font-feature-settings:normal;font-variant-alternates:normal;font-variant-caps:normal;font-variant-ligatures:normal;font-variant-numeric:normal;font-variant-position:normal;image-rendering:auto;isolation:auto;mix-blend-mode:normal;paint-order:stroke markers fill;shape-padding:0;shape-rendering:auto;solid-color:#000000;text-decoration-color:#000000;text-decoration-line:none;text-decoration-style:solid;text-indent:0;text-orientation:mixed;text-transform:none;white-space:normal"/>
    <path d="m61.6 54.3h11.3c2.8 30.3 11.4 59.9 21.2 89.2h-17c-6.2-23.5-13.7-46.5-15.1-72z" style="fill:#444444;paint-order:stroke markers fill"/>
    <path d="m68 140a2.24 2.24 0 0 0-1.94 3.36l17.4 30.1a2.24 2.24 0 0 0 3.88 0l17.4-30.1a2.24 2.24 0 0 0-1.94-3.36z" style="color-rendering:auto;color:#000000;dominant-baseline:auto;fill:#444444;font-feature-settings:normal;font-variant-alternates:normal;font-variant-caps:normal;font-variant-ligatures:normal;font-variant-numeric:normal;font-variant-position:normal;image-rendering:auto;isolation:auto;mix-blend-mode:normal;paint-order:stroke markers fill;shape-padding:0;shape-rendering:auto;solid-color:#000000;text-decoration-color:#000000;text-decoration-line:none;text-decoration-style:solid;text-indent:0;text-orientation:mixed;text-transform:none;white-space:normal"/>
    <text x="30" y="34">Plek BV</text>
    <text x="-42" y="190">autobedrijven</text>
    <text x="72" y="190">Softie BV</text>
    <g style="font-size:.833em;">
      <text x="10" y="48.294617">(verantwoordelijke)</text>
      <text x="-20" y="206">(verwerkers)</text>
      <text x="72" y="206">(verwerker)</text>
    </g>
  </g>
</svg>
