<?xml version="1.0" encoding="UTF-8" standalone="no"?>
<svg
   xmlns:dc="http://purl.org/dc/elements/1.1/"
   xmlns:cc="http://creativecommons.org/ns#"
   xmlns:rdf="http://www.w3.org/1999/02/22-rdf-syntax-ns#"
   xmlns:svg="http://www.w3.org/2000/svg"
   xmlns="http://www.w3.org/2000/svg"
   width="158.75mm"
   height="136.87036mm"
   viewBox="0 0 158.75 136.87036"
   version="1.1"
   id="svg8">
  <defs
     id="defs2" />
  <metadata
     id="metadata5">
    <rdf:RDF>
      <cc:Work
         rdf:about="">
        <dc:format>image/svg+xml</dc:format>
        <dc:type
           rdf:resource="http://purl.org/dc/dcmitype/StillImage" />
        <dc:title></dc:title>
      </cc:Work>
    </rdf:RDF>
  </metadata>
  <g
     id="layer1"
     transform="translate(-3.8635221,-54.670455)">
    <g
       id="g940"
       transform="matrix(2.9826158,0,0,2.9826158,-308.23708,-309.26409)">
      <path
         style="font-variation-settings:normal;opacity:1;vector-effect:none;fill:#000000;fill-opacity:1;stroke-width:0.0846667;stroke-linecap:butt;stroke-linejoin:miter;stroke-miterlimit:4;stroke-dasharray:none;stroke-dashoffset:0;stroke-opacity:1;stop-color:#000000;stop-opacity:1"
         d="m 105.69495,122.57623 1.05397,-0.55762 h 1.48603 c 0.81731,0 1.48602,0.0211 1.48602,0.0468 0,0.0258 -0.20471,0.30199 -0.45492,0.61383 -0.60192,0.7502 -1.49323,1.59409 -2.15669,2.04195 -0.54932,0.37082 -2.17183,1.18862 -2.36255,1.19082 -0.0718,8.3e-4 -0.10478,-0.14176 -0.10256,-0.44329 l 0.003,-0.4445 1.06209,-0.59266 c 0.97484,-0.54399 1.38669,-0.8645 1.38669,-1.07918 0,-0.24095 -1.4391,0.31326 -2.03125,0.78224 -0.1768,0.14003 -0.34455,0.2546 -0.37277,0.2546 -0.0282,0 -0.0513,-0.28247 -0.0513,-0.62771 v -0.62771 z m -0.1011,3.91222 c 2.02723,-1.02873 3.83907,-2.40627 4.55871,-3.466 0.17915,-0.26381 0.46881,-0.59759 0.64369,-0.74175 l 0.31797,-0.26209 1.27188,3.5e-4 1.27187,3.6e-4 -1.68068,1.00722 c -0.92437,0.55398 -1.72447,1.05107 -1.778,1.10465 -0.0734,0.0734 -0.004,0.0831 0.28368,0.0392 0.81116,-0.12405 1.98754,-0.66438 3.47134,-1.59445 l 0.889,-0.55723 5.87392,-3e-5 5.87393,-3e-5 1.83691,1.18833 c 1.0103,0.65357 2.09131,1.40213 2.40224,1.66345 l 0.56533,0.47513 v 0.88366 0.88366 l -0.3175,-0.24613 c -3.63096,-2.81475 -4.55179,-3.38618 -6.24417,-3.87489 -1.46258,-0.42236 -3.7845,-0.64215 -4.99533,-0.47284 -0.89543,0.1252 -9.84987,3.08026 -11.98033,3.95363 -2.26805,0.92977 -2.99206,1.21269 -3.1115,1.21586 -0.0686,0.002 -0.1057,-0.12391 -0.10546,-0.35702 l 3.4e-4,-0.35984 0.95212,-0.48316 z m -0.84704,2.1809 c 0.0582,-0.0179 0.39158,-0.11563 0.74083,-0.2171 0.34925,-0.10146 0.92075,-0.31722 1.27,-0.47947 0.95239,-0.44244 2.14421,-0.9118 3.97933,-1.56711 0.90805,-0.32427 2.3368,-0.83997 3.175,-1.14601 4.931,-1.80039 7.1663,-2.11151 10.22531,-1.4232 1.445,0.32515 2.27261,0.76683 4.59136,2.45035 0.4191,0.30428 1.1897,0.79239 1.71244,1.08469 l 0.95045,0.53144 0.002,1.04313 0.002,1.04313 -0.5991,-0.32346 c -0.32951,-0.17791 -0.89148,-0.54612 -1.24883,-0.81825 -2.7128,-2.06583 -3.03258,-2.27254 -4.14217,-2.67749 -1.19344,-0.43555 -1.9934,-0.5498 -3.83123,-0.54718 -1.77265,0.002 -2.64808,0.10317 -4.75809,0.54698 -1.64382,0.34575 -2.62604,0.64598 -5.65591,1.7288 -1.46685,0.52422 -2.9337,1.03258 -3.25967,1.12968 -0.819,0.24398 -2.96842,0.77966 -3.12836,0.77966 -0.10523,0 -0.13131,-0.10982 -0.13131,-0.55299 0,-0.36855 0.0353,-0.56387 0.10584,-0.5856 z m 0.635,2.19649 c 0.40745,-0.12228 2.43628,-0.78992 4.5085,-1.48364 4.63335,-1.5511 6.27037,-1.98989 8.83537,-2.36823 1.85005,-0.27288 3.2093,-0.35163 4.35379,-0.25226 1.77355,0.154 2.45402,0.41145 4.12885,1.56211 0.57524,0.39521 1.45745,0.93486 1.96044,1.19921 0.503,0.26435 1.2003,0.67521 1.54955,0.91302 l 0.635,0.43239 0.0237,1.13066 0.0237,1.13067 -0.27769,-0.18502 c -0.50493,-0.33644 -1.79342,-0.92976 -2.30969,-1.06357 -1.22451,-0.31738 -3.62111,-0.29958 -5.38053,0.04 -1.09883,0.21205 -2.14175,0.56046 -4.04772,1.35222 -2.51559,1.045 -4.22625,1.55072 -5.65372,1.67138 -0.35898,0.0303 -1.71168,-0.0144 -3.07416,-0.10172 -2.31861,-0.14857 -2.51243,-0.14913 -4.11882,-0.012 -0.92715,0.0791 -1.73335,0.14339 -1.79155,0.14275 -0.075,-8.4e-4 -0.10584,-0.18274 -0.10584,-0.62382 v -0.62266 l 0.61384,-0.18113 c 1.31091,-0.3868 2.58471,-0.59337 5.82083,-0.94391 1.70106,-0.18426 2.59918,-0.377 4.48733,-0.96298 2.32627,-0.72195 5.04411,-1.32461 6.78603,-1.50475 1.20048,-0.12415 2.30534,-0.0243 3.88197,0.3509 1.04681,0.2491 1.778,0.32312 1.778,0.17998 0,-0.11404 -0.70936,-0.74121 -1.0201,-0.9019 -1.23275,-0.63748 -3.41824,-0.96765 -5.33064,-0.80532 -1.54933,0.13152 -2.52221,0.32133 -6.29677,1.22856 -5.63885,1.35531 -8.76097,2.03888 -10.19132,2.23133 l -0.52917,0.0712 v -0.70053 -0.70053 z m 0.67733,4.82452 c 2.20296,-0.10991 3.709,-0.0263 5.42296,0.30102 1.20101,0.22937 2.01551,0.21634 2.99201,-0.0479 0.43589,-0.11793 1.55453,-0.40575 2.48586,-0.63959 1.59818,-0.40128 1.79087,-0.47222 3.429,-1.26243 2.60063,-1.2545 3.06182,-1.37526 5.29167,-1.38559 2.11988,-0.01 3.09677,0.19958 4.7625,1.02089 l 0.9525,0.46964 v 1.18215 c 0,0.65017 -0.0286,1.16944 -0.0635,1.15392 -0.0349,-0.0155 -0.43705,-0.25075 -0.89361,-0.52271 -1.17311,-0.69881 -2.11981,-1.12451 -2.9903,-1.34466 -0.65543,-0.16576 -0.95741,-0.18915 -2.36026,-0.18286 -2.02308,0.009 -3.32085,0.18185 -3.72795,0.49633 -0.16461,0.12716 -0.16423,0.13089 0.0306,0.29595 0.35848,0.30377 0.77945,0.36288 3.06239,0.43001 1.7671,0.052 2.39653,0.10177 2.96334,0.23454 1.20997,0.28342 2.00194,0.61778 3.28083,1.38511 l 0.6985,0.4191 v 1.26431 c 0,0.69538 -0.0172,1.26432 -0.0382,1.26432 -0.021,0 -0.61191,-0.37754 -1.31318,-0.83897 -1.91342,-1.25902 -2.56248,-1.46102 -6.5508,-2.0387 -3.09676,-0.44854 -4.12482,-0.53982 -5.4752,-0.48611 -1.13899,0.0453 -2.70934,0.32943 -2.70934,0.49022 0,0.29629 1.03516,0.49596 2.59365,0.50028 1.0028,0.003 2.40193,0.169 5.39914,0.64144 3.48567,0.54943 4.80567,0.97272 6.60369,2.11762 0.41441,0.26388 0.91923,0.53626 1.12183,0.60529 l 0.36836,0.12551 v 0.92338 c 0,0.50785 -0.0202,0.92337 -0.0449,0.92337 -0.0247,0 -0.54735,-0.27328 -1.16142,-0.60729 -2.46399,-1.34024 -4.32722,-2.1052 -5.11136,-2.09852 l -0.41328,0.004 0.32712,0.28893 c 0.18326,0.16186 0.7418,0.46327 1.27,0.68534 1.8677,0.78521 3.09096,1.46527 4.03321,2.24221 0.20955,0.17278 0.54293,0.39525 0.74084,0.49436 l 0.35983,0.18022 v 0.63328 c 0,0.37932 -0.0351,0.63328 -0.0875,0.63328 -0.16833,0 -0.93247,-0.42937 -1.71497,-0.96362 -0.43404,-0.29634 -1.33052,-0.82792 -1.99218,-1.18128 -0.66167,-0.35335 -1.68828,-0.99115 -2.28136,-1.41731 -2.08197,-1.496 -3.16249,-1.86823 -6.7345,-2.31993 -3.34431,-0.42291 -4.75851,-0.47261 -6.91684,-0.24308 -1.91057,0.20317 -4.34315,0.18597 -5.59228,-0.0396 -1.52776,-0.27583 -1.43506,-0.20111 -1.43506,-1.15678 0,-0.71196 0.0174,-0.80632 0.14817,-0.80544 0.0815,5e-4 1.00542,0.15397 2.05317,0.34096 2.88481,0.51485 4.74962,0.5383 5.7286,0.072 0.41829,-0.19921 0.5293,-0.39394 0.25857,-0.45355 -0.64903,-0.1429 -1.85541,-0.23097 -4.10799,-0.29989 -1.41119,-0.0432 -2.90662,-0.10423 -3.32316,-0.13567 l -0.75736,-0.0572 v -0.60961 -0.6096 z m -1.22767,4.38983 c 0.10478,0.0253 0.8001,0.15233 1.54517,0.28237 1.28885,0.22496 1.45133,0.23454 3.34433,0.19733 3.33282,-0.0655 6.93813,-0.0319 7.83167,0.073 2.08806,0.24524 3.59073,0.61793 5.207,1.29142 1.2357,0.51492 5.08131,2.55441 6.16161,3.26776 1.08172,0.7143 1.84062,1.12252 2.09339,1.12605 0.35517,0.005 0.38844,0.0977 0.36295,1.01173 l -0.0243,0.8711 -0.7356,-0.38498 c -0.40457,-0.21174 -1.14752,-0.66789 -1.651,-1.01367 -2.23399,-1.53429 -5.82018,-3.46365 -7.45465,-4.01058 -0.88126,-0.29488 -2.32934,-0.54512 -2.45093,-0.42353 -0.20652,0.20651 0.54377,0.64234 1.92051,1.11557 0.54456,0.18719 1.92231,0.8396 3.556,1.68389 3.03438,1.56818 3.88411,2.06043 4.85753,2.81401 0.37847,0.293 0.98341,0.73066 1.3443,0.97258 l 0.65617,0.43985 v 0.61877 0.61876 l -0.65617,-0.29714 c -0.85082,-0.3853 -1.71085,-0.88274 -3.29773,-1.90743 -1.84295,-1.19003 -2.38329,-1.48028 -4.47043,-2.40135 -1.7358,-0.76601 -2.43701,-1.11098 -4.27567,-2.10345 -1.54114,-0.83187 -2.86278,-1.12594 -5.588,-1.24337 -1.00118,-0.0431 -2.69663,-0.17442 -3.76767,-0.29174 -1.81287,-0.19857 -4.49047,-0.471 -4.6355,-0.47163 -0.0349,-1.7e-4 -0.0635,-0.42351 -0.0635,-0.94079 0,-0.93251 0.002,-0.94012 0.1905,-0.89457 z m 0.33867,2.83162 c 2.19517,-0.0807 7.68016,0.66325 10.43517,1.41542 1.26959,0.34662 2.33956,0.73585 4.953,1.80178 3.96135,1.6157 5.64746,2.3872 7.40833,3.38976 0.93683,0.53339 2.54222,1.62661 3.03234,2.06492 l 0.40766,0.36458 -0.0267,0.64519 -0.0267,0.64518 -1.48167,-0.92477 c -1.92062,-1.19874 -3.66286,-2.05061 -6.43567,-3.14673 -3.94816,-1.56074 -4.43575,-1.70294 -8.46566,-2.46885 -1.37372,-0.26109 -3.37397,-0.66059 -4.445,-0.88779 -2.55147,-0.54125 -3.52217,-0.67789 -4.8157,-0.67789 h -1.06864 v -1.10067 -1.10067 z m 0.127,3.27327 c 1.09875,0.0944 2.00533,0.29052 3.35057,0.72483 2.18207,0.70449 2.70361,0.83158 4.34894,1.05974 2.06342,0.28614 3.07658,0.50437 5.51699,1.18833 5.58425,1.56507 6.94794,2.0231 8.96464,3.01105 1.01448,0.49697 3.25225,1.88752 3.76919,2.34217 0.12012,0.10565 0.14817,0.27207 0.14817,0.8792 0,0.46955 -0.0334,0.74887 -0.0895,0.74887 -0.21872,0 -1.71045,-0.68226 -3.43216,-1.56974 -2.19679,-1.13236 -2.8663,-1.40355 -4.18153,-1.69374 -0.53635,-0.11833 -2.59443,-0.61018 -4.57352,-1.09298 -1.97908,-0.4828 -4.58893,-1.09308 -5.79966,-1.35618 -1.66228,-0.36122 -2.68856,-0.64221 -4.191,-1.14746 -2.08364,-0.7007 -3.07461,-0.96681 -3.95817,-1.06289 l -0.52917,-0.0576 v -1.01501 -1.01501 z m -0.381,3.14903 c 0.98252,0.17354 1.93726,0.46449 3.81516,1.16266 2.58127,0.95966 3.09868,1.10542 6.05252,1.70504 2.59531,0.52683 8.16661,1.9167 9.45749,2.35935 0.76831,0.26346 6.07421,2.3047 6.83683,2.6302 l 0.3175,0.13552 v 0.59153 c 0,0.32534 -0.0179,0.59153 -0.0399,0.59153 -0.0219,0 -0.20794,-0.11848 -0.41337,-0.26328 -0.23735,-0.16729 -0.51664,-0.27941 -0.76612,-0.30753 -0.59035,-0.0665 -0.44019,0.13067 0.46149,0.60609 l 0.75786,0.39959 v 0.71889 c 0,0.55267 -0.0245,0.70416 -0.10583,0.65517 -0.0582,-0.035 -0.56304,-0.38426 -1.12184,-0.77601 -1.4034,-0.98388 -2.43768,-1.57883 -3.68124,-2.11756 -2.47954,-1.07418 -4.97242,-1.68269 -8.21442,-2.00515 -1.62855,-0.16198 -2.7082,-0.36065 -4.84451,-0.89144 -2.44662,-0.60789 -3.23452,-0.71052 -5.48483,-0.71445 -1.04775,-0.002 -2.21932,0.0262 -2.6035,0.0622 l -0.6985,0.0655 -1e-5,-0.95448 -10e-6,-0.95448 h 1.46051 c 0.80328,0 1.64539,-0.0315 1.87134,-0.07 l 0.41084,-0.07 -0.19917,-0.21668 c -0.41944,-0.45632 -1.60688,-0.78634 -2.82937,-0.78634 h -0.71413 v -0.80222 -0.80221 z m 1.22767,5.82538 c 1.71877,0.0691 2.99479,0.2119 4.65748,0.52134 2.16194,0.40236 2.47357,0.45037 4.36029,0.67177 1.91057,0.2242 6.29529,1.02664 8.14839,1.49123 1.53186,0.38404 4.16817,1.2801 5.08017,1.7267 0.44528,0.21805 1.04646,0.57082 1.33597,0.78395 0.28951,0.21313 0.78359,0.55389 1.09796,0.75725 l 0.57157,0.36975 v 0.89463 0.89464 l -0.1905,-0.12438 c -0.46564,-0.30403 -1.83148,-1.04218 -2.544,-1.37488 -1.54251,-0.72023 -3.14802,-1.24427 -6.49417,-2.1197 -1.00118,-0.26193 -2.63948,-0.71969 -3.64066,-1.01724 -2.6392,-0.78437 -4.36034,-1.07239 -4.36034,-0.72966 0,0.0662 0.28605,0.21907 0.67734,0.36196 1.37191,0.50099 7.77337,2.6449 9.99066,3.34596 1.86231,0.58882 2.61554,0.87653 4.064,1.55232 0.9779,0.45624 1.93993,0.87785 2.13784,0.9369 l 0.35983,0.10738 v 0.96027 c 0,0.52814 -0.0206,0.96026 -0.0457,0.96026 -0.11589,0 -0.80904,-0.39805 -1.29279,-0.74241 -0.73868,-0.52584 -1.46098,-0.78527 -3.93314,-1.41265 -2.48193,-0.62986 -5.71651,-1.53803 -6.75103,-1.89549 -1.01203,-0.34969 -1.35064,-0.50526 -3.21733,-1.47821 -2.17193,-1.13205 -3.17546,-1.5923 -4.1583,-1.90713 -2.04141,-0.65393 -4.61864,-1.16359 -6.35641,-1.25703 l -0.99996,-0.0538 v -1.14208 -1.14207 z m -1.08847,3.51978 c 0.96829,0 3.17773,0.28644 4.66563,0.60487 1.83071,0.3918 3.13307,0.90116 6.51934,2.54979 2.96016,1.44119 5.68078,2.45536 8.001,2.98258 2.84149,0.64567 4.1431,1.0499 5.62214,1.74601 0.48445,0.228 1.02737,0.45401 1.2065,0.50225 0.31604,0.0851 0.32569,0.0989 0.32569,0.46543 v 0.37774 h -1.33002 -1.33001 l -0.69214,-0.29728 c -0.9549,-0.41014 -1.682,-0.58169 -3.74811,-0.88436 -2.32593,-0.34072 -3.00195,-0.52037 -5.27139,-1.40088 -1.04207,-0.40431 -2.37091,-0.90797 -2.953,-1.11925 -0.58208,-0.21128 -1.76318,-0.66834 -2.62466,-1.01568 -2.5212,-1.01651 -3.87091,-1.514 -4.99751,-1.84203 -1.16629,-0.33958 -2.75099,-0.63719 -3.39291,-0.63719 h -0.41492 v -1.016 -1.016 z m -0.30853,3.4721 c 0.23553,0.002 3.21892,0.76746 4.12785,1.05952 0.53532,0.17202 2.27268,0.80217 3.8608,1.40033 4.33326,1.63213 5.15735,1.88022 10.19351,3.0688 l 0.889,0.20981 -4.99533,-0.0121 c -4.36668,-0.0106 -5.0859,-0.0305 -5.715,-0.15839 -0.937,-0.19045 -3.23224,-0.49028 -3.7465,-0.4894 -0.46757,7.6e-4 -0.50515,0.0956 -0.17466,0.44054 l 0.22751,0.23747 h -0.82827 c -0.67359,0 -0.87024,-0.0297 -1.05301,-0.15878 -0.36279,-0.25632 -1.5271,-0.81205 -2.23557,-1.06706 l -0.65617,-0.23618 v -0.62365 c 0,-0.34302 0.015,-0.62366 0.0334,-0.62366 0.0184,0 0.28335,0.0772 0.58882,0.17154 0.30548,0.0944 1.0293,0.26586 1.6085,0.38113 0.57919,0.11526 1.5768,0.3438 2.21689,0.50785 0.6401,0.16406 1.43994,0.32163 1.77742,0.35015 0.96535,0.0816 1.33124,-0.0788 0.80293,-0.35201 -0.19553,-0.10111 -6.90779,-2.41333 -7.00578,-2.41333 -0.0122,0 -0.0222,-0.381 -0.0222,-0.84667 0,-0.62129 0.0282,-0.84646 0.10584,-0.8459 z m 24.28041,-40.13276 h 1.13677 l 0.61583,0.61171 0.61582,0.61172 v 0.78949 c 0,0.66414 -0.0195,0.7786 -0.12254,0.72092 -0.0674,-0.0377 -0.53412,-0.43141 -1.03717,-0.87488 -0.50304,-0.44346 -1.20037,-1.01004 -1.54962,-1.25906 -0.34925,-0.24901 -0.6712,-0.48586 -0.71544,-0.52633 -0.0459,-0.042 0.4075,-0.0736 1.05635,-0.0736 z m 2.05515,0 c 0.29546,0 0.31327,0.0153 0.31327,0.26876 v 0.26876 l -0.23283,-0.20399 c -0.12806,-0.1122 -0.26903,-0.23314 -0.31327,-0.26876 -0.0442,-0.0356 0.0605,-0.0648 0.23283,-0.0648 z"
         id="path899" />
      <path
         style="font-variation-settings:normal;opacity:1;vector-effect:none;fill:#000000;fill-opacity:1;stroke-width:0.0846667;stroke-linecap:butt;stroke-linejoin:miter;stroke-miterlimit:4;stroke-dasharray:none;stroke-dashoffset:0;stroke-opacity:1;stop-color:#000000;stop-opacity:1"
         d="m 156.80993,122.57623 -1.05397,-0.55762 h -1.48603 c -0.81731,0 -1.48602,0.0211 -1.48602,0.0468 0,0.0258 0.20471,0.30199 0.45492,0.61383 0.60192,0.7502 1.49323,1.59409 2.15669,2.04195 0.54932,0.37082 2.17183,1.18862 2.36255,1.19082 0.0718,8.3e-4 0.10478,-0.14176 0.10256,-0.44329 l -0.003,-0.4445 -1.06209,-0.59266 c -0.97484,-0.54399 -1.38669,-0.8645 -1.38669,-1.07918 0,-0.24095 1.4391,0.31326 2.03125,0.78224 0.1768,0.14003 0.34455,0.2546 0.37277,0.2546 0.0282,0 0.0513,-0.28247 0.0513,-0.62771 v -0.62771 z m 0.1011,3.91222 c -2.02723,-1.02873 -3.83907,-2.40627 -4.55871,-3.466 -0.17915,-0.26381 -0.46881,-0.59759 -0.64369,-0.74175 l -0.31797,-0.26209 -1.27188,3.5e-4 -1.27187,3.6e-4 1.68068,1.00722 c 0.92437,0.55398 1.72447,1.05107 1.778,1.10465 0.0734,0.0734 0.004,0.0831 -0.28368,0.0392 -0.81116,-0.12405 -1.98754,-0.66438 -3.47134,-1.59445 l -0.889,-0.55723 -5.87392,-3e-5 -5.87393,-3e-5 -1.83691,1.18833 c -1.0103,0.65357 -2.09131,1.40213 -2.40224,1.66345 l -0.56533,0.47513 v 0.88366 0.88366 l 0.3175,-0.24613 c 3.63096,-2.81475 4.55179,-3.38618 6.24417,-3.87489 1.46258,-0.42236 3.7845,-0.64215 4.99533,-0.47284 0.89543,0.1252 9.84987,3.08026 11.98033,3.95363 2.26805,0.92977 2.99206,1.21269 3.1115,1.21586 0.0686,0.002 0.1057,-0.12391 0.10546,-0.35702 l -3.4e-4,-0.35984 -0.95212,-0.48316 z m 0.84704,2.1809 c -0.0582,-0.0179 -0.39158,-0.11563 -0.74083,-0.2171 -0.34925,-0.10146 -0.92075,-0.31722 -1.27,-0.47947 -0.95239,-0.44244 -2.14421,-0.9118 -3.97933,-1.56711 -0.90805,-0.32427 -2.3368,-0.83997 -3.175,-1.14601 -4.931,-1.80039 -7.1663,-2.11151 -10.22531,-1.4232 -1.445,0.32515 -2.27261,0.76683 -4.59136,2.45035 -0.4191,0.30428 -1.1897,0.79239 -1.71244,1.08469 l -0.95045,0.53144 -0.002,1.04313 -0.002,1.04313 0.5991,-0.32346 c 0.32951,-0.17791 0.89148,-0.54612 1.24883,-0.81825 2.7128,-2.06583 3.03258,-2.27254 4.14217,-2.67749 1.19344,-0.43555 1.9934,-0.5498 3.83123,-0.54718 1.77265,0.002 2.64808,0.10317 4.75809,0.54698 1.64382,0.34575 2.62604,0.64598 5.65591,1.7288 1.46685,0.52422 2.9337,1.03258 3.25967,1.12968 0.819,0.24398 2.96842,0.77966 3.12836,0.77966 0.10523,0 0.13131,-0.10982 0.13131,-0.55299 0,-0.36855 -0.0353,-0.56387 -0.10584,-0.5856 z m -0.635,2.19649 c -0.40745,-0.12228 -2.43628,-0.78992 -4.5085,-1.48364 -4.63335,-1.5511 -6.27037,-1.98989 -8.83537,-2.36823 -1.85005,-0.27288 -3.2093,-0.35163 -4.35379,-0.25226 -1.77355,0.154 -2.45402,0.41145 -4.12885,1.56211 -0.57524,0.39521 -1.45745,0.93486 -1.96044,1.19921 -0.503,0.26435 -1.2003,0.67521 -1.54955,0.91302 l -0.635,0.43239 -0.0237,1.13066 -0.0237,1.13067 0.27769,-0.18502 c 0.50493,-0.33644 1.79342,-0.92976 2.30969,-1.06357 1.22451,-0.31738 3.62111,-0.29958 5.38053,0.04 1.09883,0.21205 2.14175,0.56046 4.04772,1.35222 2.51559,1.045 4.22625,1.55072 5.65372,1.67138 0.35898,0.0303 1.71168,-0.0144 3.07416,-0.10172 2.31861,-0.14857 2.51243,-0.14913 4.11882,-0.012 0.92715,0.0791 1.73335,0.14339 1.79155,0.14275 0.075,-8.4e-4 0.10584,-0.18274 0.10584,-0.62382 v -0.62266 l -0.61384,-0.18113 c -1.31091,-0.3868 -2.58471,-0.59337 -5.82083,-0.94391 -1.70106,-0.18426 -2.59918,-0.377 -4.48733,-0.96298 -2.32627,-0.72195 -5.04411,-1.32461 -6.78603,-1.50475 -1.20048,-0.12415 -2.30534,-0.0243 -3.88197,0.3509 -1.04681,0.2491 -1.778,0.32312 -1.778,0.17998 0,-0.11404 0.70936,-0.74121 1.0201,-0.9019 1.23275,-0.63748 3.41824,-0.96765 5.33064,-0.80532 1.54933,0.13152 2.52221,0.32133 6.29677,1.22856 5.63885,1.35531 8.76097,2.03888 10.19132,2.23133 l 0.52917,0.0712 v -0.70053 -0.70053 z m -0.67733,4.82452 c -2.20296,-0.10991 -3.709,-0.0263 -5.42296,0.30102 -1.20101,0.22937 -2.01551,0.21634 -2.99201,-0.0479 -0.43589,-0.11793 -1.55453,-0.40575 -2.48586,-0.63959 -1.59818,-0.40128 -1.79087,-0.47222 -3.429,-1.26243 -2.60063,-1.2545 -3.06182,-1.37526 -5.29167,-1.38559 -2.11988,-0.01 -3.09677,0.19958 -4.7625,1.02089 l -0.9525,0.46964 v 1.18215 c 0,0.65017 0.0286,1.16944 0.0635,1.15392 0.0349,-0.0155 0.43705,-0.25075 0.89361,-0.52271 1.17311,-0.69881 2.11981,-1.12451 2.9903,-1.34466 0.65543,-0.16576 0.95741,-0.18915 2.36026,-0.18286 2.02308,0.009 3.32085,0.18185 3.72795,0.49633 0.16461,0.12716 0.16423,0.13089 -0.0306,0.29595 -0.35848,0.30377 -0.77945,0.36288 -3.06239,0.43001 -1.7671,0.052 -2.39653,0.10177 -2.96334,0.23454 -1.20997,0.28342 -2.00194,0.61778 -3.28083,1.38511 l -0.6985,0.4191 v 1.26431 c 0,0.69538 0.0172,1.26432 0.0382,1.26432 0.021,0 0.61191,-0.37754 1.31318,-0.83897 1.91342,-1.25902 2.56248,-1.46102 6.5508,-2.0387 3.09676,-0.44854 4.12482,-0.53982 5.4752,-0.48611 1.13899,0.0453 2.70934,0.32943 2.70934,0.49022 0,0.29629 -1.03516,0.49596 -2.59365,0.50028 -1.0028,0.003 -2.40193,0.169 -5.39914,0.64144 -3.48567,0.54943 -4.80567,0.97272 -6.60369,2.11762 -0.41441,0.26388 -0.91923,0.53626 -1.12183,0.60529 l -0.36836,0.12551 v 0.92338 c 0,0.50785 0.0202,0.92337 0.0449,0.92337 0.0247,0 0.54735,-0.27328 1.16142,-0.60729 2.46399,-1.34024 4.32722,-2.1052 5.11136,-2.09852 l 0.41328,0.004 -0.32712,0.28893 c -0.18326,0.16186 -0.7418,0.46327 -1.27,0.68534 -1.8677,0.78521 -3.09096,1.46527 -4.03321,2.24221 -0.20955,0.17278 -0.54293,0.39525 -0.74084,0.49436 l -0.35983,0.18022 v 0.63328 c 0,0.37932 0.0351,0.63328 0.0875,0.63328 0.16833,0 0.93247,-0.42937 1.71497,-0.96362 0.43404,-0.29634 1.33052,-0.82792 1.99218,-1.18128 0.66167,-0.35335 1.68828,-0.99115 2.28136,-1.41731 2.08197,-1.496 3.16249,-1.86823 6.7345,-2.31993 3.34431,-0.42291 4.75851,-0.47261 6.91684,-0.24308 1.91057,0.20317 4.34315,0.18597 5.59228,-0.0396 1.52776,-0.27583 1.43506,-0.20111 1.43506,-1.15678 0,-0.71196 -0.0174,-0.80632 -0.14817,-0.80544 -0.0815,5e-4 -1.00542,0.15397 -2.05317,0.34096 -2.88481,0.51485 -4.74962,0.5383 -5.7286,0.072 -0.41829,-0.19921 -0.5293,-0.39394 -0.25857,-0.45355 0.64903,-0.1429 1.85541,-0.23097 4.10799,-0.29989 1.41119,-0.0432 2.90662,-0.10423 3.32316,-0.13567 l 0.75736,-0.0572 v -0.60961 -0.6096 z m 1.22767,4.38983 c -0.10478,0.0253 -0.8001,0.15233 -1.54517,0.28237 -1.28885,0.22496 -1.45133,0.23454 -3.34433,0.19733 -3.33282,-0.0655 -6.93813,-0.0319 -7.83167,0.073 -2.08806,0.24524 -3.59073,0.61793 -5.207,1.29142 -1.2357,0.51492 -5.08131,2.55441 -6.16161,3.26776 -1.08172,0.7143 -1.84062,1.12252 -2.09339,1.12605 -0.35517,0.005 -0.38844,0.0977 -0.36295,1.01173 l 0.0243,0.8711 0.7356,-0.38498 c 0.40457,-0.21174 1.14752,-0.66789 1.651,-1.01367 2.23399,-1.53429 5.82018,-3.46365 7.45465,-4.01058 0.88126,-0.29488 2.32934,-0.54512 2.45093,-0.42353 0.20652,0.20651 -0.54377,0.64234 -1.92051,1.11557 -0.54456,0.18719 -1.92231,0.8396 -3.556,1.68389 -3.03438,1.56818 -3.88411,2.06043 -4.85753,2.81401 -0.37847,0.293 -0.98341,0.73066 -1.3443,0.97258 l -0.65617,0.43985 v 0.61877 0.61876 l 0.65617,-0.29714 c 0.85082,-0.3853 1.71085,-0.88274 3.29773,-1.90743 1.84295,-1.19003 2.38329,-1.48028 4.47043,-2.40135 1.7358,-0.76601 2.43701,-1.11098 4.27567,-2.10345 1.54114,-0.83187 2.86278,-1.12594 5.588,-1.24337 1.00118,-0.0431 2.69663,-0.17442 3.76767,-0.29174 1.81287,-0.19857 4.49047,-0.471 4.6355,-0.47163 0.0349,-1.7e-4 0.0635,-0.42351 0.0635,-0.94079 0,-0.93251 -0.002,-0.94012 -0.1905,-0.89457 z m -0.33867,2.83162 c -2.19517,-0.0807 -7.68016,0.66325 -10.43517,1.41542 -1.26959,0.34662 -2.33956,0.73585 -4.953,1.80178 -3.96135,1.6157 -5.64746,2.3872 -7.40833,3.38976 -0.93683,0.53339 -2.54222,1.62661 -3.03234,2.06492 l -0.40766,0.36458 0.0267,0.64519 0.0267,0.64518 1.48167,-0.92477 c 1.92062,-1.19874 3.66286,-2.05061 6.43567,-3.14673 3.94816,-1.56074 4.43575,-1.70294 8.46566,-2.46885 1.37372,-0.26109 3.37397,-0.66059 4.445,-0.88779 2.55147,-0.54125 3.52217,-0.67789 4.8157,-0.67789 h 1.06864 v -1.10067 -1.10067 z m -0.127,3.27327 c -1.09875,0.0944 -2.00533,0.29052 -3.35057,0.72483 -2.18207,0.70449 -2.70361,0.83158 -4.34894,1.05974 -2.06342,0.28614 -3.07658,0.50437 -5.51699,1.18833 -5.58425,1.56507 -6.94794,2.0231 -8.96464,3.01105 -1.01448,0.49697 -3.25225,1.88752 -3.76919,2.34217 -0.12012,0.10565 -0.14817,0.27207 -0.14817,0.8792 0,0.46955 0.0334,0.74887 0.0895,0.74887 0.21872,0 1.71045,-0.68226 3.43216,-1.56974 2.19679,-1.13236 2.8663,-1.40355 4.18153,-1.69374 0.53635,-0.11833 2.59443,-0.61018 4.57352,-1.09298 1.97908,-0.4828 4.58893,-1.09308 5.79966,-1.35618 1.66228,-0.36122 2.68856,-0.64221 4.191,-1.14746 2.08364,-0.7007 3.07461,-0.96681 3.95817,-1.06289 l 0.52917,-0.0576 v -1.01501 -1.01501 z m 0.381,3.14903 c -0.98252,0.17354 -1.93726,0.46449 -3.81516,1.16266 -2.58127,0.95966 -3.09868,1.10542 -6.05252,1.70504 -2.59531,0.52683 -8.16661,1.9167 -9.45749,2.35935 -0.76831,0.26346 -6.07421,2.3047 -6.83683,2.6302 l -0.3175,0.13552 v 0.59153 c 0,0.32534 0.0179,0.59153 0.0399,0.59153 0.0219,0 0.20794,-0.11848 0.41337,-0.26328 0.23735,-0.16729 0.51664,-0.27941 0.76612,-0.30753 0.59035,-0.0665 0.44019,0.13067 -0.46149,0.60609 l -0.75786,0.39959 v 0.71889 c 0,0.55267 0.0245,0.70416 0.10583,0.65517 0.0582,-0.035 0.56304,-0.38426 1.12184,-0.77601 1.4034,-0.98388 2.43768,-1.57883 3.68124,-2.11756 2.47954,-1.07418 4.97242,-1.68269 8.21442,-2.00515 1.62855,-0.16198 2.7082,-0.36065 4.84451,-0.89144 2.44662,-0.60789 3.23452,-0.71052 5.48483,-0.71445 1.04775,-0.002 2.21932,0.0262 2.6035,0.0622 l 0.6985,0.0655 1e-5,-0.95448 1e-5,-0.95448 h -1.46051 c -0.80328,0 -1.64539,-0.0315 -1.87134,-0.07 l -0.41084,-0.07 0.19917,-0.21668 c 0.41944,-0.45632 1.60688,-0.78634 2.82937,-0.78634 h 0.71413 v -0.80222 -0.80221 z m -1.22767,5.82538 c -1.71877,0.0691 -2.99479,0.2119 -4.65748,0.52134 -2.16194,0.40236 -2.47357,0.45037 -4.36029,0.67177 -1.91057,0.2242 -6.29529,1.02664 -8.14839,1.49123 -1.53186,0.38404 -4.16817,1.2801 -5.08017,1.7267 -0.44528,0.21805 -1.04646,0.57082 -1.33597,0.78395 -0.28951,0.21313 -0.78359,0.55389 -1.09796,0.75725 l -0.57157,0.36975 v 0.89463 0.89464 l 0.1905,-0.12438 c 0.46564,-0.30403 1.83148,-1.04218 2.544,-1.37488 1.54251,-0.72023 3.14802,-1.24427 6.49417,-2.1197 1.00118,-0.26193 2.63948,-0.71969 3.64066,-1.01724 2.6392,-0.78437 4.36034,-1.07239 4.36034,-0.72966 0,0.0662 -0.28605,0.21907 -0.67734,0.36196 -1.37191,0.50099 -7.77337,2.6449 -9.99066,3.34596 -1.86231,0.58882 -2.61554,0.87653 -4.064,1.55232 -0.9779,0.45624 -1.93993,0.87785 -2.13784,0.9369 l -0.35983,0.10738 v 0.96027 c 0,0.52814 0.0206,0.96026 0.0457,0.96026 0.11589,0 0.80904,-0.39805 1.29279,-0.74241 0.73868,-0.52584 1.46098,-0.78527 3.93314,-1.41265 2.48193,-0.62986 5.71651,-1.53803 6.75103,-1.89549 1.01203,-0.34969 1.35064,-0.50526 3.21733,-1.47821 2.17193,-1.13205 3.17546,-1.5923 4.1583,-1.90713 2.04141,-0.65393 4.61864,-1.16359 6.35641,-1.25703 l 0.99996,-0.0538 v -1.14208 -1.14207 z m 1.08847,3.51978 c -0.96829,0 -3.17773,0.28644 -4.66563,0.60487 -1.83071,0.3918 -3.13307,0.90116 -6.51934,2.54979 -2.96016,1.44119 -5.68078,2.45536 -8.001,2.98258 -2.84149,0.64567 -4.1431,1.0499 -5.62214,1.74601 -0.48445,0.228 -1.02737,0.45401 -1.2065,0.50225 -0.31604,0.0851 -0.32569,0.0989 -0.32569,0.46543 v 0.37774 h 1.33002 1.33001 l 0.69214,-0.29728 c 0.9549,-0.41014 1.682,-0.58169 3.74811,-0.88436 2.32593,-0.34072 3.00195,-0.52037 5.27139,-1.40088 1.04207,-0.40431 2.37091,-0.90797 2.953,-1.11925 0.58208,-0.21128 1.76318,-0.66834 2.62466,-1.01568 2.5212,-1.01651 3.87091,-1.514 4.99751,-1.84203 1.16629,-0.33958 2.75099,-0.63719 3.39291,-0.63719 h 0.41492 v -1.016 -1.016 z m 0.30853,3.4721 c -0.23553,0.002 -3.21892,0.76746 -4.12785,1.05952 -0.53532,0.17202 -2.27268,0.80217 -3.8608,1.40033 -4.33326,1.63213 -5.15735,1.88022 -10.19351,3.0688 l -0.889,0.20981 4.99533,-0.0121 c 4.36668,-0.0106 5.0859,-0.0305 5.715,-0.15839 0.937,-0.19045 3.23224,-0.49028 3.7465,-0.4894 0.46757,7.6e-4 0.50515,0.0956 0.17466,0.44054 l -0.22751,0.23747 h 0.82827 c 0.67359,0 0.87024,-0.0297 1.05301,-0.15878 0.36279,-0.25632 1.5271,-0.81205 2.23557,-1.06706 l 0.65617,-0.23618 v -0.62365 c 0,-0.34302 -0.015,-0.62366 -0.0334,-0.62366 -0.0184,0 -0.28335,0.0772 -0.58882,0.17154 -0.30548,0.0944 -1.0293,0.26586 -1.6085,0.38113 -0.57919,0.11526 -1.5768,0.3438 -2.21689,0.50785 -0.6401,0.16406 -1.43994,0.32163 -1.77742,0.35015 -0.96535,0.0816 -1.33124,-0.0788 -0.80293,-0.35201 0.19553,-0.10111 6.90779,-2.41333 7.00578,-2.41333 0.0122,0 0.0222,-0.381 0.0222,-0.84667 0,-0.62129 -0.0282,-0.84646 -0.10584,-0.8459 z m -24.28041,-40.13276 h -1.13677 l -0.61583,0.61171 -0.61582,0.61172 v 0.78949 c 0,0.66414 0.0195,0.7786 0.12254,0.72092 0.0674,-0.0377 0.53412,-0.43141 1.03717,-0.87488 0.50304,-0.44346 1.20037,-1.01004 1.54962,-1.25906 0.34925,-0.24901 0.6712,-0.48586 0.71544,-0.52633 0.0459,-0.042 -0.4075,-0.0736 -1.05635,-0.0736 z m -2.05515,0 c -0.29546,0 -0.31327,0.0153 -0.31327,0.26876 v 0.26876 l 0.23283,-0.20399 c 0.12806,-0.1122 0.26903,-0.23314 0.31327,-0.26876 0.0442,-0.0356 -0.0605,-0.0648 -0.23283,-0.0648 z"
         id="path918" />
    </g>
  </g>
</svg>
